<?xml version="1.0" standalone="no"?>
<!DOCTYPE svg PUBLIC "-//W3C//DTD SVG 20010904//EN"
 "http://www.w3.org/TR/2001/REC-SVG-20010904/DTD/svg10.dtd">
<svg version="1.0" xmlns="http://www.w3.org/2000/svg"
 width="119.000000pt" height="103.000000pt" viewBox="0 0 119.000000 103.000000"
 preserveAspectRatio="xMidYMid meet">

<g transform="translate(0.000000,103.000000) scale(0.100000,-0.100000)"
fill="#000000" stroke="none">
<path d="M550 1016 c-187 -49 -319 -169 -381 -347 -31 -89 -31 -229 0 -318 54
-156 169 -274 320 -327 54 -19 87 -24 177 -24 167 0 267 40 376 151 264 270
153 724 -208 850 -77 26 -211 33 -284 15z m241 -44 c233 -61 390 -300 351
-534 -46 -272 -307 -452 -574 -397 -242 50 -417 296 -379 533 47 290 321 471
602 398z"/>
<path d="M565 868 c-27 -15 -35 -28 -35 -59 0 -32 28 -59 61 -59 33 0 56 19
64 52 5 21 1 33 -19 52 -28 29 -41 31 -71 14z m63 -20 c7 -7 12 -25 12 -40 0
-34 -41 -59 -68 -42 -29 19 -37 41 -24 68 13 28 58 36 80 14z"/>
<path d="M407 719 c-16 -10 -17 -12 -87 -202 -27 -75 -50 -143 -50 -151 0 -36
29 -46 128 -46 l97 0 -32 20 c-23 14 -33 27 -33 45 0 14 25 93 55 177 30 84
53 153 52 154 -8 7 -118 9 -130 3z m107 -18 c4 -5 -17 -71 -45 -148 -40 -109
-50 -147 -46 -180 l5 -43 -55 0 c-57 0 -93 13 -93 33 0 17 111 319 123 335 11
14 103 17 111 3z"/>
<path d="M646 688 c-64 -157 -107 -298 -99 -327 8 -30 26 -34 178 -41 l140 -6
-45 -22 c-35 -18 -39 -22 -17 -19 15 2 27 1 27 -3 0 -14 -56 -59 -82 -65 -17
-4 -50 0 -83 10 -39 13 -72 16 -111 12 l-57 -6 28 29 c43 44 85 55 142 36 65
-22 78 -19 18 4 -65 26 -85 25 -128 -4 -38 -26 -96 -85 -97 -99 0 -4 18 2 40
13 46 23 123 26 160 5 14 -8 41 -14 62 -15 65 0 168 99 231 225 26 52 107 275
107 294 0 16 -115 14 -127 -1 -5 -7 -27 -64 -49 -126 -48 -140 -58 -152 -129
-152 -30 0 -56 4 -59 9 -3 5 16 67 43 139 27 72 46 133 43 136 -3 4 -32 6 -64
6 -57 0 -59 -1 -72 -32z"/>
</g>
</svg>
