<svg version="1.1" id="Layer_1" xmlns="http://www.w3.org/2000/svg" xmlns:xlink="http://www.w3.org/1999/xlink" x="0px" y="0px"
	 width="100%" viewBox="0 0 875 201" enable-background="new 0 0 875 201" xml:space="preserve">
<path fill="#FEFFFF" opacity="1.000000" stroke="none" 
	d="
M587.000000,202.000000 
	C391.378632,202.000000 196.257294,202.000000 1.067965,202.000000 
	C1.067965,135.060928 1.067965,68.121758 1.067965,1.091297 
	C292.666656,1.091297 584.333313,1.091297 875.966248,1.091297 
	C875.966248,68.076111 875.966248,135.038071 875.966248,202.000000 
	C779.788330,202.000000 683.644165,202.000000 587.000000,202.000000 
M49.341400,174.677673 
	C55.543163,178.157425 61.744926,181.637177 68.338608,185.672043 
	C75.199432,189.524139 82.060257,193.376221 89.348778,197.722549 
	C97.561432,193.099457 105.774086,188.476349 114.661850,183.721130 
	C122.102524,179.371979 129.543198,175.022827 137.617966,170.490662 
	C144.519424,166.384354 151.420868,162.278046 158.999191,158.035904 
	C163.473892,155.478561 168.070343,153.104248 172.351471,150.255966 
	C173.691437,149.364471 174.940674,147.199387 174.948471,145.610992 
	C175.099747,114.809578 175.085648,84.007156 174.978287,53.205376 
	C174.973434,51.817738 174.146347,49.830299 173.059769,49.153099 
	C168.277863,46.172817 163.259903,43.571259 157.873489,40.278381 
	C151.466507,36.728107 145.059509,33.177834 138.232651,29.053776 
	C131.162125,25.017082 124.091591,20.980389 116.614227,16.402372 
	C109.406555,12.322972 102.198875,8.243572 94.420479,3.668995 
	C91.713280,3.398285 88.572060,2.121552 86.388123,3.063734 
	C81.663490,5.102002 77.429344,8.277198 72.303711,11.119310 
	C65.123344,15.365964 57.942982,19.612617 50.081779,23.985344 
	C44.393978,27.340622 38.706177,30.695902 32.324120,34.156616 
	C23.981041,38.963524 15.564109,43.650223 7.363331,48.688744 
	C5.896389,49.590034 4.473684,51.941936 4.464147,53.632141 
	C4.291220,84.278397 4.306441,114.926033 4.434378,145.572739 
	C4.440604,147.064285 5.453011,149.211868 6.664121,149.932404 
	C15.351256,155.100723 24.211269,159.978455 33.448158,165.473053 
	C38.617725,168.356628 43.787296,171.240219 49.341400,174.677673 
M280.215698,139.791443 
	C285.592834,116.388367 290.969940,92.985291 296.347046,69.582214 
	C296.761841,69.625565 297.176605,69.668915 297.591400,69.712265 
	C297.591400,100.397636 297.591400,131.083008 297.591400,161.665985 
	C306.516571,161.665985 314.765472,161.665985 323.004395,161.665985 
	C323.004395,119.714790 323.004395,78.133034 323.004395,36.295151 
	C309.982819,36.295151 297.240265,36.295151 284.307129,36.295151 
	C277.099792,69.099388 269.938965,101.691879 262.778137,134.284363 
	C262.487366,134.277527 262.196564,134.270676 261.905792,134.263824 
	C254.442581,101.595802 246.979385,68.927773 239.532455,36.330910 
	C226.455917,36.330910 213.875732,36.330910 201.236237,36.330910 
	C201.236237,78.327850 201.236237,120.022598 201.236237,161.708649 
	C209.844727,161.708649 218.083664,161.708649 226.839722,161.708649 
	C226.839722,130.578140 226.839722,99.768745 226.839722,68.959343 
	C227.136047,68.932411 227.432388,68.905479 227.728714,68.878540 
	C234.918915,99.862564 242.109116,130.846588 249.346222,162.032745 
	C257.263672,162.032745 264.749512,162.195435 272.214996,161.878845 
	C273.518799,161.823547 275.478271,159.958725 275.866180,158.574188 
	C277.523315,152.659027 278.704803,146.610596 280.215698,139.791443 
M504.308960,57.499794 
	C504.308960,64.221428 504.308960,70.943062 504.308960,76.906815 
	C498.635345,73.837364 493.518707,69.836823 487.730194,68.171021 
	C471.035339,63.366638 454.237915,70.877853 446.157501,86.833618 
	C437.060730,104.796288 436.800415,123.517395 445.213623,141.745422 
	C453.334412,159.339890 470.229645,167.562149 487.939362,162.764252 
	C493.727264,161.196198 498.861023,157.213638 504.181396,154.394974 
	C504.275604,156.359024 504.406494,159.088287 504.532501,161.715683 
	C512.889282,161.715683 520.643005,161.715683 528.449219,161.715683 
	C528.449219,119.697479 528.449219,78.002747 528.449219,36.327454 
	C520.305847,36.327454 512.551086,36.327454 504.309296,36.327454 
	C504.309296,43.244820 504.309296,49.872406 504.308960,57.499794 
M411.595428,134.154999 
	C406.651855,133.708771 402.708313,134.216171 399.570038,139.375015 
	C397.825562,142.242706 393.146973,144.256516 389.491455,144.869232 
	C373.773865,147.503677 364.923889,138.777756 366.141510,121.828812 
	C386.620880,121.828812 407.160126,121.828812 427.867188,121.828812 
	C428.725342,109.361557 427.470001,97.904602 421.701447,87.352936 
	C407.124268,60.688866 364.731293,59.657402 348.813293,85.494431 
	C344.157257,93.051788 342.154877,101.417526 341.404083,110.101799 
	C340.444458,121.201332 341.475586,132.096909 346.457550,142.247635 
	C356.493622,162.696259 383.151794,170.278000 405.696838,159.205322 
	C416.203522,154.045105 423.376709,146.056427 426.953583,134.155136 
	C421.797302,134.155136 417.181915,134.155136 411.595428,134.154999 
M686.266724,119.217361 
	C686.875549,123.491562 687.152588,127.844902 688.150024,132.026413 
	C692.683411,151.033447 705.813354,162.295959 725.647217,164.483154 
	C742.006836,166.287201 758.162903,157.327393 765.216431,141.416901 
	C772.891479,124.104355 772.945251,106.361259 764.120056,89.423103 
	C750.616333,63.505741 714.203064,60.469830 696.236511,83.503616 
	C688.278137,93.706566 686.212402,105.733932 686.266724,119.217361 
M668.583252,94.846100 
	C666.201782,80.964325 657.910950,72.179825 644.354065,69.628708 
	C637.024780,68.249496 629.014526,68.350029 621.661011,69.694557 
	C607.404236,72.301262 599.973389,81.459854 599.908875,94.244789 
	C599.844971,106.914238 606.302979,114.116936 621.180969,117.863167 
	C629.403687,119.933617 637.711121,121.694351 645.866516,123.997620 
	C653.621277,126.187729 656.930481,130.039307 657.245911,136.126068 
	C657.627441,143.489456 654.565613,149.314163 647.372742,151.792679 
	C642.329224,153.530548 636.671814,154.069305 631.282166,154.102417 
	C618.974548,154.178009 610.867432,149.412964 609.507141,135.891953 
	C609.480896,135.631485 609.087280,135.407990 608.954712,135.264435 
	C604.937134,135.264435 601.018372,135.264435 595.518494,135.264435 
	C597.449036,140.339417 598.514221,144.874664 600.751282,148.729950 
	C612.502747,168.981888 647.001404,167.890823 660.034912,156.535049 
	C668.303467,149.330826 670.873901,140.236832 668.787781,129.960388 
	C666.923035,120.774643 659.826599,116.388039 651.418640,113.834656 
	C649.193054,113.158783 646.934326,112.588127 644.680542,112.009407 
	C636.952393,110.024979 629.129883,108.349457 621.515015,105.999687 
	C614.505310,103.836647 611.772827,99.697197 611.918701,93.156250 
	C612.065125,86.586189 615.420776,81.582596 622.042603,79.959122 
	C636.433289,76.430977 651.474731,77.059853 656.784790,97.596939 
	C660.658386,96.966385 664.658447,96.315239 668.583252,94.846100 
M551.974609,78.534424 
	C551.974609,106.257927 551.974609,133.981430 551.974609,161.679382 
	C560.373413,161.679382 568.098694,161.679382 575.772583,161.679382 
	C575.772583,130.631668 575.772583,99.936661 575.772583,69.256058 
	C567.700195,69.256058 559.985779,69.256058 551.974548,69.256058 
	C551.974548,72.259544 551.974548,74.902565 551.974609,78.534424 
M783.018799,71.186180 
	C782.724976,73.992691 782.431152,76.799210 782.081726,80.136368 
	C787.046021,80.136368 790.985596,80.136368 795.542786,80.136368 
	C795.542786,107.630295 795.542786,134.674454 795.542786,161.651855 
	C799.912109,161.651855 803.642151,161.651855 807.827393,161.651855 
	C807.827393,134.353989 807.827393,107.442787 807.827393,79.893021 
	C812.995056,79.893021 817.720764,79.893021 822.413940,79.893021 
	C822.413940,76.534569 822.413940,73.833527 822.413940,70.641037 
	C817.385132,70.641037 812.788574,70.641037 808.002686,70.641037 
	C808.002686,64.010078 807.791931,57.866909 808.074463,51.746513 
	C808.272583,47.455154 811.077271,45.221149 815.317078,44.984947 
	C817.726868,44.850700 820.150146,44.960693 822.576904,44.960693 
	C822.576904,41.219109 822.576904,38.280411 822.576904,35.401779 
	C806.138672,32.030800 795.671326,38.125214 795.607910,53.463795 
	C795.584717,59.067474 795.604126,64.671326 795.604126,70.905792 
	C791.130920,70.905792 787.507080,70.905792 783.018799,71.186180 
M862.597168,152.078003 
	C856.271118,151.751526 855.090393,150.657684 855.070129,144.224487 
	C855.005493,123.727058 855.042053,103.229294 855.057983,82.731667 
	C855.058655,81.943916 855.250061,81.156303 855.430420,79.770462 
	C861.013367,79.770462 866.406189,79.770462 871.700623,79.770462 
	C871.700623,76.522354 871.700623,73.921059 871.700623,70.670609 
	C866.038879,70.670609 860.655884,70.670609 854.858643,70.670609 
	C854.858643,61.775661 854.858643,53.537357 854.858643,44.443829 
	C852.242615,46.065170 850.411377,47.477249 848.362549,48.412708 
	C843.980042,50.413692 842.438599,53.570801 842.959717,58.355377 
	C843.398438,62.383816 843.049927,66.498001 843.049927,71.045517 
	C838.278992,71.045517 834.355530,71.045517 830.450195,71.045517 
	C830.450195,74.256340 830.450195,76.963295 830.450195,80.118652 
	C834.784607,80.118652 838.712463,80.118652 843.049927,80.118652 
	C843.049927,82.372726 843.049805,84.170799 843.049927,85.968864 
	C843.051636,105.633270 842.995667,125.297905 843.073547,144.962006 
	C843.132935,159.956680 847.570496,164.016052 862.444275,163.006042 
	C863.109131,162.960892 863.778259,162.942337 864.437012,162.850861 
	C874.064697,161.513901 874.265076,161.199661 871.629822,151.626251 
	C871.590576,151.483521 871.412903,151.378906 871.098511,151.038635 
	C868.673096,151.363281 866.075500,151.710983 862.597168,152.078003 
M555.530640,55.949944 
	C561.096863,60.300995 566.882202,60.591038 571.304626,56.740723 
	C575.347229,53.220974 576.311218,46.822315 573.485779,42.262981 
	C570.122986,36.836380 563.212585,35.179104 557.881287,38.520687 
	C552.114197,42.135399 551.004639,48.738895 555.530640,55.949944 
z"/>
<path fill="#3F82D4" opacity="1.000000" stroke="none" 
	d="
M280.137756,140.201111 
	C278.704803,146.610596 277.523315,152.659027 275.866180,158.574188 
	C275.478271,159.958725 273.518799,161.823547 272.214996,161.878845 
	C264.749512,162.195435 257.263672,162.032745 249.346222,162.032745 
	C242.109116,130.846588 234.918915,99.862564 227.728714,68.878540 
	C227.432388,68.905479 227.136047,68.932411 226.839722,68.959343 
	C226.839722,99.768745 226.839722,130.578140 226.839722,161.708649 
	C218.083664,161.708649 209.844727,161.708649 201.236237,161.708649 
	C201.236237,120.022598 201.236237,78.327850 201.236237,36.330910 
	C213.875732,36.330910 226.455917,36.330910 239.532455,36.330910 
	C246.979385,68.927773 254.442581,101.595802 261.905792,134.263824 
	C262.196564,134.270676 262.487366,134.277527 262.778137,134.284363 
	C269.938965,101.691879 277.099792,69.099388 284.307129,36.295151 
	C297.240265,36.295151 309.982819,36.295151 323.004395,36.295151 
	C323.004395,78.133034 323.004395,119.714790 323.004395,161.665985 
	C314.765472,161.665985 306.516571,161.665985 297.591400,161.665985 
	C297.591400,131.083008 297.591400,100.397636 297.591400,69.712265 
	C297.176605,69.668915 296.761841,69.625565 296.347046,69.582214 
	C290.969940,92.985291 285.592834,116.388367 280.137756,140.201111 
z"/>
<path fill="#4083D5" opacity="1.000000" stroke="none" 
	d="
M504.309143,56.999893 
	C504.309296,49.872406 504.309296,43.244820 504.309296,36.327454 
	C512.551086,36.327454 520.305847,36.327454 528.449219,36.327454 
	C528.449219,78.002747 528.449219,119.697479 528.449219,161.715683 
	C520.643005,161.715683 512.889282,161.715683 504.532501,161.715683 
	C504.406494,159.088287 504.275604,156.359024 504.181396,154.394974 
	C498.861023,157.213638 493.727264,161.196198 487.939362,162.764252 
	C470.229645,167.562149 453.334412,159.339890 445.213623,141.745422 
	C436.800415,123.517395 437.060730,104.796288 446.157501,86.833618 
	C454.237915,70.877853 471.035339,63.366638 487.730194,68.171021 
	C493.518707,69.836823 498.635345,73.837364 504.308960,76.906815 
	C504.308960,70.943062 504.308960,64.221428 504.309143,56.999893 
M494.742218,140.415375 
	C505.750793,132.380356 507.064972,111.043442 501.354034,98.857124 
	C498.040497,91.786568 492.930176,87.006752 484.519348,86.862785 
	C475.866699,86.714691 470.370972,91.393097 467.166687,98.752327 
	C462.441162,109.605400 462.377899,120.817902 466.979248,131.713654 
	C471.903320,143.373581 482.886902,146.868652 494.742218,140.415375 
z"/>
<path fill="#4083D5" opacity="1.000000" stroke="none" 
	d="
M412.080994,134.155060 
	C417.181915,134.155136 421.797302,134.155136 426.953583,134.155136 
	C423.376709,146.056427 416.203522,154.045105 405.696838,159.205322 
	C383.151794,170.278000 356.493622,162.696259 346.457550,142.247635 
	C341.475586,132.096909 340.444458,121.201332 341.404083,110.101799 
	C342.154877,101.417526 344.157257,93.051788 348.813293,85.494431 
	C364.731293,59.657402 407.124268,60.688866 421.701447,87.352936 
	C427.470001,97.904602 428.725342,109.361557 427.867188,121.828812 
	C407.160126,121.828812 386.620880,121.828812 366.141510,121.828812 
	C364.923889,138.777756 373.773865,147.503677 389.491455,144.869232 
	C393.146973,144.256516 397.825562,142.242706 399.570038,139.375015 
	C402.708313,134.216171 406.651855,133.708771 412.080994,134.155060 
M398.600525,92.027824 
	C392.758667,85.573448 384.614929,83.534248 377.008118,86.621033 
	C370.523438,89.252464 366.251068,96.732742 366.339691,105.577896 
	C378.389160,105.577896 390.441833,105.577896 403.666901,105.577896 
	C401.977478,100.884125 400.494171,96.762985 398.600525,92.027824 
z"/>
<path fill="#58CA9B" opacity="1.000000" stroke="none" 
	d="
M686.256348,118.758453 
	C686.212402,105.733932 688.278137,93.706566 696.236511,83.503616 
	C714.203064,60.469830 750.616333,63.505741 764.120056,89.423103 
	C772.945251,106.361259 772.891479,124.104355 765.216431,141.416901 
	C758.162903,157.327393 742.006836,166.287201 725.647217,164.483154 
	C705.813354,162.295959 692.683411,151.033447 688.150024,132.026413 
	C687.152588,127.844902 686.875549,123.491562 686.256348,118.758453 
M750.904480,89.687836 
	C740.016907,73.540459 711.266602,73.273308 702.067383,96.622543 
	C696.589722,110.525787 696.586670,124.670387 703.020569,138.307495 
	C707.895691,148.640518 716.191040,154.193970 727.973755,154.325073 
	C739.946228,154.458267 748.825195,149.163635 753.559326,138.554840 
	C760.803101,122.322212 760.708435,105.975929 750.904480,89.687836 
z"/>
<path fill="#2771C7" opacity="1.000000" stroke="none" 
	d="
M33.016392,164.948456 
	C24.211269,159.978455 15.351256,155.100723 6.664121,149.932404 
	C5.453011,149.211868 4.440604,147.064285 4.434378,145.572739 
	C4.306441,114.926033 4.291220,84.278397 4.464147,53.632141 
	C4.473684,51.941936 5.896389,49.590034 7.363331,48.688744 
	C15.564109,43.650223 23.981041,38.963524 32.838768,34.483135 
	C33.564495,42.420776 33.775574,50.031898 33.700733,57.865440 
	C26.907362,60.284592 25.535290,64.865707 25.708406,71.447334 
	C26.188971,89.717636 26.247322,108.020187 25.690598,126.286163 
	C25.470051,133.522171 26.760178,138.770676 33.990082,141.803589 
	C33.667686,149.816025 33.342037,157.382233 33.016392,164.948456 
z"/>
<path fill="#58CA9B" opacity="1.000000" stroke="none" 
	d="
M668.620850,95.255096 
	C664.658447,96.315239 660.658386,96.966385 656.784790,97.596939 
	C651.474731,77.059853 636.433289,76.430977 622.042603,79.959122 
	C615.420776,81.582596 612.065125,86.586189 611.918701,93.156250 
	C611.772827,99.697197 614.505310,103.836647 621.515015,105.999687 
	C629.129883,108.349457 636.952393,110.024979 644.680542,112.009407 
	C646.934326,112.588127 649.193054,113.158783 651.418640,113.834656 
	C659.826599,116.388039 666.923035,120.774643 668.787781,129.960388 
	C670.873901,140.236832 668.303467,149.330826 660.034912,156.535049 
	C647.001404,167.890823 612.502747,168.981888 600.751282,148.729950 
	C598.514221,144.874664 597.449036,140.339417 595.518494,135.264435 
	C601.018372,135.264435 604.937134,135.264435 608.954712,135.264435 
	C609.087280,135.407990 609.480896,135.631485 609.507141,135.891953 
	C610.867432,149.412964 618.974548,154.178009 631.282166,154.102417 
	C636.671814,154.069305 642.329224,153.530548 647.372742,151.792679 
	C654.565613,149.314163 657.627441,143.489456 657.245911,136.126068 
	C656.930481,130.039307 653.621277,126.187729 645.866516,123.997620 
	C637.711121,121.694351 629.403687,119.933617 621.180969,117.863167 
	C606.302979,114.116936 599.844971,106.914238 599.908875,94.244789 
	C599.973389,81.459854 607.404236,72.301262 621.661011,69.694557 
	C629.014526,68.350029 637.024780,68.249496 644.354065,69.628708 
	C657.910950,72.179825 666.201782,80.964325 668.620850,95.255096 
z"/>
<path fill="#3D81D4" opacity="1.000000" stroke="none" 
	d="
M551.974609,78.040009 
	C551.974548,74.902565 551.974548,72.259544 551.974548,69.256058 
	C559.985779,69.256058 567.700195,69.256058 575.772583,69.256058 
	C575.772583,99.936661 575.772583,130.631668 575.772583,161.679382 
	C568.098694,161.679382 560.373413,161.679382 551.974609,161.679382 
	C551.974609,133.981430 551.974609,106.257927 551.974609,78.040009 
z"/>
<path fill="#5ACB9C" opacity="1.000000" stroke="none" 
	d="
M783.450989,71.045990 
	C787.507080,70.905792 791.130920,70.905792 795.604126,70.905792 
	C795.604126,64.671326 795.584717,59.067474 795.607910,53.463795 
	C795.671326,38.125214 806.138672,32.030800 822.576904,35.401779 
	C822.576904,38.280411 822.576904,41.219109 822.576904,44.960693 
	C820.150146,44.960693 817.726868,44.850700 815.317078,44.984947 
	C811.077271,45.221149 808.272583,47.455154 808.074463,51.746513 
	C807.791931,57.866909 808.002686,64.010078 808.002686,70.641037 
	C812.788574,70.641037 817.385132,70.641037 822.413940,70.641037 
	C822.413940,73.833527 822.413940,76.534569 822.413940,79.893021 
	C817.720764,79.893021 812.995056,79.893021 807.827393,79.893021 
	C807.827393,107.442787 807.827393,134.353989 807.827393,161.651855 
	C803.642151,161.651855 799.912109,161.651855 795.542786,161.651855 
	C795.542786,134.674454 795.542786,107.630295 795.542786,80.136368 
	C790.985596,80.136368 787.046021,80.136368 782.081726,80.136368 
	C782.431152,76.799210 782.724976,73.992691 783.450989,71.045990 
z"/>
<path fill="#5392DF" opacity="1.000000" stroke="none" 
	d="
M158.327484,40.832451 
	C163.259903,43.571259 168.277863,46.172817 173.059769,49.153099 
	C174.146347,49.830299 174.973434,51.817738 174.978287,53.205376 
	C175.085648,84.007156 175.099747,114.809578 174.948471,145.610992 
	C174.940674,147.199387 173.691437,149.364471 172.351471,150.255966 
	C168.070343,153.104248 163.473892,155.478561 158.310638,157.830231 
	C157.414780,156.336578 157.027542,155.048752 157.026382,153.760574 
	C156.993759,117.623764 156.984192,81.486870 157.056290,45.350159 
	C157.059296,43.843418 157.885040,42.338318 158.327484,40.832451 
z"/>
<path fill="#56CA9A" opacity="1.000000" stroke="none" 
	d="
M863.037476,152.068329 
	C866.075500,151.710983 868.673096,151.363281 871.098511,151.038635 
	C871.412903,151.378906 871.590576,151.483521 871.629822,151.626251 
	C874.265076,161.199661 874.064697,161.513901 864.437012,162.850861 
	C863.778259,162.942337 863.109131,162.960892 862.444275,163.006042 
	C847.570496,164.016052 843.132935,159.956680 843.073547,144.962006 
	C842.995667,125.297905 843.051636,105.633270 843.049927,85.968864 
	C843.049805,84.170799 843.049927,82.372726 843.049927,80.118652 
	C838.712463,80.118652 834.784607,80.118652 830.450195,80.118652 
	C830.450195,76.963295 830.450195,74.256340 830.450195,71.045517 
	C834.355530,71.045517 838.278992,71.045517 843.049927,71.045517 
	C843.049927,66.498001 843.398438,62.383816 842.959717,58.355377 
	C842.438599,53.570801 843.980042,50.413692 848.362549,48.412708 
	C850.411377,47.477249 852.242615,46.065170 854.858643,44.443829 
	C854.858643,53.537357 854.858643,61.775661 854.858643,70.670609 
	C860.655884,70.670609 866.038879,70.670609 871.700623,70.670609 
	C871.700623,73.921059 871.700623,76.522354 871.700623,79.770462 
	C866.406189,79.770462 861.013367,79.770462 855.430420,79.770462 
	C855.250061,81.156303 855.058655,81.943916 855.057983,82.731667 
	C855.042053,103.229294 855.005493,123.727058 855.070129,144.224487 
	C855.090393,150.657684 856.271118,151.751526 863.037476,152.068329 
z"/>
<path fill="#4D8DDC" opacity="1.000000" stroke="none" 
	d="
M158.100494,40.555416 
	C157.885040,42.338318 157.059296,43.843418 157.056290,45.350159 
	C156.984192,81.486870 156.993759,117.623764 157.026382,153.760574 
	C157.027542,155.048752 157.414780,156.336578 157.972198,157.898148 
	C151.420868,162.278046 144.519424,166.384354 137.304321,170.136932 
	C136.993698,164.141373 137.169571,158.491104 136.894821,152.862823 
	C136.811951,151.164902 135.478073,149.528046 134.928467,147.585052 
	C140.413208,144.194855 145.797195,141.249054 150.889923,137.864975 
	C152.333557,136.905701 153.769821,134.675034 153.784027,133.015274 
	C153.974182,110.776024 153.982819,88.533966 153.775986,66.295021 
	C153.759415,64.511452 152.241150,62.144173 150.705582,61.081516 
	C145.550797,57.514233 140.072006,54.415138 135.131271,51.032093 
	C136.030075,49.504757 136.865372,48.098583 136.932877,46.656467 
	C137.123840,42.577507 136.847717,38.475273 137.076004,34.400158 
	C137.166489,32.784924 138.101852,31.217018 138.652527,29.627563 
	C145.059509,33.177834 151.466507,36.728107 158.100494,40.555416 
z"/>
<path fill="#397ED1" opacity="1.000000" stroke="none" 
	d="
M72.994583,10.987366 
	C77.429344,8.277198 81.663490,5.102002 86.388123,3.063734 
	C88.572060,2.121552 91.713280,3.398285 94.707474,4.373135 
	C94.990303,19.027065 94.986130,32.976852 94.734329,47.207443 
	C91.581543,47.656029 88.315155,48.748264 85.851730,47.785641 
	C81.635712,46.138157 77.922318,43.204395 74.009270,40.399452 
	C74.347023,33.957661 74.976501,27.922684 74.886627,21.898438 
	C74.832237,18.252817 73.662949,14.623828 72.994583,10.987366 
z"/>
<path fill="#3E82D4" opacity="1.000000" stroke="none" 
	d="
M113.986732,183.853241 
	C105.774086,188.476349 97.561432,193.099457 89.200783,197.044205 
	C89.367508,194.923706 89.947533,193.483032 89.955475,192.039185 
	C90.026466,179.129471 90.031265,166.218948 89.937561,153.309509 
	C89.929108,152.145569 89.093452,150.987640 88.738968,149.554169 
	C88.990791,148.928940 89.145607,148.576462 89.434174,148.227951 
	C89.567940,148.231918 89.831711,148.277283 90.070236,148.513885 
	C94.696709,151.397217 99.043167,154.116333 103.487877,156.664017 
	C106.236061,158.239258 109.133720,159.553726 112.266525,161.276596 
	C112.712624,163.337082 112.886971,165.104370 112.994659,166.875717 
	C113.338654,172.534088 113.657921,178.193954 113.986732,183.853241 
z"/>
<path fill="#377DD0" opacity="1.000000" stroke="none" 
	d="
M88.641960,149.826920 
	C89.093452,150.987640 89.929108,152.145569 89.937561,153.309509 
	C90.031265,166.218948 90.026466,179.129471 89.955475,192.039185 
	C89.947533,193.483032 89.367508,194.923706 88.986938,196.797089 
	C82.060257,193.376221 75.199432,189.524139 68.311874,185.002426 
	C68.523117,176.572800 68.761101,168.812805 69.257446,160.824432 
	C75.891182,157.006348 82.266571,153.416626 88.641960,149.826920 
z"/>
<path fill="#4083D5" opacity="1.000000" stroke="none" 
	d="
M94.981964,46.926643 
	C94.986130,32.976852 94.990303,19.027065 94.992836,4.620724 
	C102.198875,8.243572 109.406555,12.322972 116.810997,17.145531 
	C116.642387,25.360586 116.277008,32.832481 115.566040,40.201481 
	C112.397163,37.923260 109.859169,38.228409 106.883606,40.247440 
	C103.132675,42.792587 98.968086,44.728111 94.981964,46.926643 
z"/>
<path fill="#4688D8" opacity="1.000000" stroke="none" 
	d="
M114.324295,183.787186 
	C113.657921,178.193954 113.338654,172.534088 112.994659,166.875717 
	C112.886971,165.104370 112.712624,163.337082 112.475998,161.007721 
	C119.827896,156.252762 127.272575,152.057983 134.717255,147.863220 
	C135.478073,149.528046 136.811951,151.164902 136.894821,152.862823 
	C137.169571,158.491104 136.993698,164.141373 136.987274,170.228455 
	C129.543198,175.022827 122.102524,179.371979 114.324295,183.787186 
z"/>
<path fill="#3279CE" opacity="1.000000" stroke="none" 
	d="
M72.649147,11.053338 
	C73.662949,14.623828 74.832237,18.252817 74.886627,21.898438 
	C74.976501,27.922684 74.347023,33.957661 73.675385,40.326473 
	C69.986534,37.792091 66.921936,37.981434 63.376431,40.739525 
	C60.566525,42.925385 57.098610,44.265377 53.585052,45.779922 
	C52.831535,40.645947 52.482674,35.706070 51.970852,30.783129 
	C51.729160,28.458433 51.175129,26.166208 50.762619,23.859272 
	C57.942982,19.612617 65.123344,15.365964 72.649147,11.053338 
z"/>
<path fill="#4688D8" opacity="1.000000" stroke="none" 
	d="
M115.911629,40.304379 
	C116.277008,32.832481 116.642387,25.360586 117.014420,17.416193 
	C124.091591,20.980389 131.162125,25.017082 138.442596,29.340670 
	C138.101852,31.217018 137.166489,32.784924 137.076004,34.400158 
	C136.847717,38.475273 137.123840,42.577507 136.932877,46.656467 
	C136.865372,48.098583 136.030075,49.504757 134.796936,50.966873 
	C128.002914,47.439060 121.957268,43.871719 115.911629,40.304379 
z"/>
<path fill="#3178CD" opacity="1.000000" stroke="none" 
	d="
M68.999084,161.052795 
	C68.761101,168.812805 68.523117,176.572800 68.115913,184.724869 
	C61.744926,181.637177 55.543163,178.157425 49.209122,173.977112 
	C49.406155,165.785461 49.735470,158.294357 50.414536,150.877380 
	C56.842552,154.318604 62.920818,157.685699 68.999084,161.052795 
z"/>
<path fill="#2C74C9" opacity="1.000000" stroke="none" 
	d="
M50.422199,23.922308 
	C51.175129,26.166208 51.729160,28.458433 51.970852,30.783129 
	C52.482674,35.706070 52.831535,40.645947 53.379463,46.046577 
	C47.003353,50.223854 40.495003,53.933437 33.986652,57.643021 
	C33.775574,50.031898 33.564495,42.420776 33.185894,34.430416 
	C38.706177,30.695902 44.393978,27.340622 50.422199,23.922308 
z"/>
<path fill="#4083D5" opacity="1.000000" stroke="none" 
	d="
M555.289551,55.665382 
	C551.004639,48.738895 552.114197,42.135399 557.881287,38.520687 
	C563.212585,35.179104 570.122986,36.836380 573.485779,42.262981 
	C576.311218,46.822315 575.347229,53.220974 571.304626,56.740723 
	C566.882202,60.591038 561.096863,60.300995 555.289551,55.665382 
z"/>
<path fill="#2C74C9" opacity="1.000000" stroke="none" 
	d="
M50.064781,150.803268 
	C49.735470,158.294357 49.406155,165.785461 49.016853,173.700165 
	C43.787296,171.240219 38.617725,168.356628 33.232277,165.210754 
	C33.342037,157.382233 33.667686,149.816025 34.302708,141.906525 
	C39.762978,144.643250 44.913879,147.723267 50.064781,150.803268 
z"/>
<path fill="#FDFEFF" opacity="1.000000" stroke="none" 
	d="
M494.440582,140.632751 
	C482.886902,146.868652 471.903320,143.373581 466.979248,131.713654 
	C462.377899,120.817902 462.441162,109.605400 467.166687,98.752327 
	C470.370972,91.393097 475.866699,86.714691 484.519348,86.862785 
	C492.930176,87.006752 498.040497,91.786568 501.354034,98.857124 
	C507.064972,111.043442 505.750793,132.380356 494.440582,140.632751 
z"/>
<path fill="#F9FBFE" opacity="1.000000" stroke="none" 
	d="
M398.805695,92.334839 
	C400.494171,96.762985 401.977478,100.884125 403.666901,105.577896 
	C390.441833,105.577896 378.389160,105.577896 366.339691,105.577896 
	C366.251068,96.732742 370.523438,89.252464 377.008118,86.621033 
	C384.614929,83.534248 392.758667,85.573448 398.805695,92.334839 
z"/>
<path fill="#FEFFFE" opacity="1.000000" stroke="none" 
	d="
M751.101990,89.992249 
	C760.708435,105.975929 760.803101,122.322212 753.559326,138.554840 
	C748.825195,149.163635 739.946228,154.458267 727.973755,154.325073 
	C716.191040,154.193970 707.895691,148.640518 703.020569,138.307495 
	C696.586670,124.670387 696.589722,110.525787 702.067383,96.622543 
	C711.266602,73.273308 740.016907,73.540459 751.101990,89.992249 
z"/>
<path fill="#FDFEFE" opacity="1.000000" stroke="none" 
	d="
M50.414532,150.877380 
	C44.913879,147.723267 39.762978,144.643250 34.299454,141.460297 
	C26.760178,138.770676 25.470051,133.522171 25.690598,126.286163 
	C26.247322,108.020187 26.188971,89.717636 25.708406,71.447334 
	C25.535290,64.865707 26.907362,60.284592 33.700733,57.865440 
	C40.495003,53.933437 47.003353,50.223854 53.717293,46.247620 
	C57.098610,44.265377 60.566525,42.925385 63.376431,40.739525 
	C66.921936,37.981434 69.986534,37.792091 73.663971,40.737816 
	C77.922318,43.204395 81.635712,46.138157 85.851730,47.785641 
	C88.315155,48.748264 91.581543,47.656029 94.734329,47.207443 
	C98.968086,44.728111 103.132675,42.792587 106.883606,40.247440 
	C109.859169,38.228409 112.397163,37.923260 115.566040,40.201481 
	C121.957268,43.871719 128.002914,47.439060 134.382889,51.071625 
	C140.072006,54.415138 145.550797,57.514233 150.705582,61.081516 
	C152.241150,62.144173 153.759415,64.511452 153.775986,66.295021 
	C153.982819,88.533966 153.974182,110.776024 153.784027,133.015274 
	C153.769821,134.675034 152.333557,136.905701 150.889923,137.864975 
	C145.797195,141.249054 140.413208,144.194855 134.928467,147.585052 
	C127.272575,152.057983 119.827896,156.252762 112.173752,160.716400 
	C109.133720,159.553726 106.236061,158.239258 103.487877,156.664017 
	C99.043167,154.116333 94.696709,151.397217 90.446869,148.453369 
	C92.380318,147.078461 94.175659,146.000687 96.309036,144.862488 
	C98.966835,143.299133 101.286598,141.796234 103.941818,140.266617 
	C106.572769,138.856842 108.868263,137.473770 111.506699,136.036926 
	C113.922005,134.696732 115.994377,133.410278 118.402313,132.060944 
	C120.485817,130.940659 122.233757,129.883255 124.315437,128.745743 
	C130.716309,126.467216 132.816452,122.474213 132.392181,115.800430 
	C131.699646,104.906914 131.683594,93.903320 132.392075,83.011856 
	C132.849289,75.983315 130.298492,72.157059 123.711212,69.966019 
	C121.649857,68.797188 119.859009,67.837151 117.861954,66.613503 
	C115.060776,65.413689 112.465820,64.477486 109.542114,63.680992 
	C107.039413,65.142563 104.865463,66.464424 102.360168,67.853012 
	C99.922455,69.220947 97.816086,70.522148 95.379143,71.872246 
	C93.356224,72.914673 91.663872,73.908188 89.668976,74.767181 
	C87.596169,73.708878 85.825897,72.785103 83.855301,71.591095 
	C80.768158,69.899002 77.881355,68.477142 74.675720,66.913300 
	C71.641212,64.067123 69.012474,60.921883 64.634583,64.979942 
	C62.190002,66.335693 60.086079,67.633522 57.633038,68.991455 
	C55.703316,69.949333 54.209610,71.085747 52.525406,71.699013 
	C47.938412,73.369286 46.737747,76.442627 46.922569,81.233376 
	C47.330738,91.813347 47.828712,102.495232 46.814137,112.992897 
	C45.930027,122.140594 49.241264,127.264511 57.495224,129.979691 
	C57.650780,130.030853 57.820621,130.038589 58.172127,130.344070 
	C60.565399,131.773697 62.770336,132.925827 65.163513,134.355621 
	C67.520386,135.782242 69.689011,136.931229 72.055595,138.358292 
	C75.077034,140.144318 77.900513,141.652252 80.926109,143.439270 
	C83.368088,144.930756 85.607933,146.143158 88.026833,147.584091 
	C88.570724,147.949753 88.935570,148.086868 89.300415,148.223999 
	C89.145607,148.576462 88.990791,148.928940 88.738968,149.554169 
	C82.266571,153.416626 75.891182,157.006348 69.257446,160.824432 
	C62.920818,157.685699 56.842552,154.318604 50.414532,150.877380 
z"/>
<path fill="#48BD8D" opacity="1.000000" stroke="none" 
	d="
M89.434174,148.227966 
	C88.935570,148.086868 88.570724,147.949753 88.199066,147.171417 
	C88.462563,139.016083 88.732880,131.501923 89.356537,123.951904 
	C91.424904,123.103546 93.139938,122.291061 94.895081,121.978378 
	C95.280457,129.959763 95.625725,137.441345 95.970993,144.922928 
	C94.175659,146.000687 92.380318,147.078461 90.208344,148.216766 
	C89.831711,148.277283 89.567940,148.231918 89.434174,148.227966 
z"/>
<path fill="#229964" opacity="1.000000" stroke="none" 
	d="
M57.983795,130.066589 
	C57.820621,130.038589 57.650780,130.030853 57.495224,129.979691 
	C49.241264,127.264511 45.930027,122.140594 46.814137,112.992897 
	C47.828712,102.495232 47.330738,91.813347 46.922569,81.233376 
	C46.737747,76.442627 47.938412,73.369286 52.525406,71.699013 
	C54.209610,71.085747 55.703316,69.949333 57.687996,69.411484 
	C58.394604,71.877159 58.948952,73.981682 58.959358,76.088882 
	C59.034527,91.315628 59.049751,106.543243 58.953922,121.769760 
	C58.936504,124.537292 58.322430,127.301079 57.983795,130.066589 
z"/>
<path fill="#31A874" opacity="1.000000" stroke="none" 
	d="
M64.975250,64.922028 
	C69.012474,60.921883 71.641212,64.067123 74.677612,67.377853 
	C74.998657,73.052818 75.225708,78.136353 74.889275,83.182327 
	C74.752029,85.240891 73.393265,87.218002 72.233688,89.149483 
	C70.885483,88.713043 69.893829,88.359291 68.368523,87.815170 
	C68.368523,94.368080 68.688446,100.343277 68.267067,106.265732 
	C67.931374,110.983871 69.849770,113.654640 73.986099,115.670837 
	C73.993454,121.755325 74.161652,127.392326 73.902878,133.009659 
	C73.823738,134.727600 72.572250,136.391541 71.857635,138.080200 
	C69.689011,136.931229 67.520386,135.782242 65.172295,133.921478 
	C65.327972,130.936005 65.977592,128.658356 65.949135,126.389236 
	C65.692078,105.899323 65.316254,85.410889 64.975250,64.922028 
z"/>
<path fill="#28A06C" opacity="1.000000" stroke="none" 
	d="
M64.634583,64.979942 
	C65.316254,85.410889 65.692078,105.899323 65.949135,126.389236 
	C65.977592,128.658356 65.327972,130.936005 64.984055,133.643829 
	C62.770336,132.925827 60.565399,131.773697 58.172131,130.344070 
	C58.322430,127.301079 58.936504,124.537292 58.953922,121.769760 
	C59.049751,106.543243 59.034527,91.315628 58.959358,76.088882 
	C58.948952,73.981682 58.394604,71.877159 58.037117,69.351379 
	C60.086079,67.633522 62.190002,66.335693 64.634583,64.979942 
z"/>
<path fill="#61D3A4" opacity="1.000000" stroke="none" 
	d="
M109.870865,63.541275 
	C112.465820,64.477486 115.060776,65.413689 117.688210,67.005890 
	C117.480705,68.948349 117.034836,70.234306 117.031708,71.521347 
	C116.986443,90.127632 116.974632,108.734169 117.046814,127.340286 
	C117.053009,128.936096 117.711349,130.529388 118.066742,132.123840 
	C115.994377,133.410278 113.922005,134.696732 111.181519,135.753632 
	C110.333359,127.975731 110.153313,120.427383 110.191841,112.525070 
	C110.623642,104.033783 110.836876,95.896454 111.029327,87.306091 
	C110.629326,79.082458 110.250092,71.311867 109.870865,63.541275 
z"/>
<path fill="#65D8AA" opacity="1.000000" stroke="none" 
	d="
M118.402313,132.060944 
	C117.711349,130.529388 117.053009,128.936096 117.046814,127.340286 
	C116.974632,108.734169 116.986443,90.127632 117.031708,71.521347 
	C117.034836,70.234306 117.480705,68.948349 117.894424,67.269501 
	C119.859009,67.837151 121.649857,68.797188 123.715897,70.419708 
	C123.987976,90.330078 123.984840,109.577965 123.981705,128.825836 
	C122.233757,129.883255 120.485817,130.940659 118.402313,132.060944 
z"/>
<path fill="#6EE0B3" opacity="1.000000" stroke="none" 
	d="
M124.315445,128.745758 
	C123.984840,109.577965 123.987976,90.330078 123.986412,70.628502 
	C130.298492,72.157059 132.849289,75.983315 132.392075,83.011856 
	C131.683594,93.903320 131.699646,104.906914 132.392181,115.800430 
	C132.816452,122.474213 130.716309,126.467216 124.315445,128.745758 
z"/>
<path fill="#3CB17F" opacity="1.000000" stroke="none" 
	d="
M72.590240,89.232170 
	C73.393265,87.218002 74.752029,85.240891 74.889275,83.182327 
	C75.225708,78.136353 74.998657,73.052818 74.996445,67.519836 
	C77.881355,68.477142 80.768158,69.899002 83.838272,72.069221 
	C83.665581,80.273148 83.309578,87.728722 82.599091,95.129440 
	C79.026489,93.127113 75.808365,91.179642 72.590240,89.232170 
z"/>
<path fill="#3CB17F" opacity="1.000000" stroke="none" 
	d="
M72.055595,138.358292 
	C72.572250,136.391541 73.823738,134.727600 73.902878,133.009659 
	C74.161652,127.392326 73.993454,121.755325 74.316925,115.735046 
	C77.583656,117.161163 80.522896,118.978111 83.097977,121.051605 
	C82.489510,126.077576 82.342728,130.854813 81.961433,135.613266 
	C81.758507,138.145691 81.149628,140.645599 80.723984,143.160187 
	C77.900513,141.652252 75.077034,140.144318 72.055595,138.358292 
z"/>
<path fill="#58CA9B" opacity="1.000000" stroke="none" 
	d="
M109.973267,112.879036 
	C110.153313,120.427383 110.333359,127.975731 110.838577,135.807373 
	C108.868263,137.473770 106.572769,138.856842 103.551743,140.005493 
	C102.550949,138.208801 102.073631,136.651337 102.036446,135.083420 
	C101.897133,129.210052 101.901703,123.333267 102.079742,117.238861 
	C104.862518,115.639656 107.417892,114.259346 109.973267,112.879036 
z"/>
<path fill="#4BBF8F" opacity="1.000000" stroke="none" 
	d="
M89.971512,74.901703 
	C91.663872,73.908188 93.356224,72.914673 95.718475,72.106522 
	C96.925446,74.281670 97.829712,76.253380 97.928642,78.264702 
	C98.193222,83.643562 98.112259,89.039421 97.946854,94.656250 
	C95.477760,96.145554 93.230408,97.407135 90.911423,98.276886 
	C90.550362,90.223938 90.260941,82.562820 89.971512,74.901703 
z"/>
<path fill="#42B785" opacity="1.000000" stroke="none" 
	d="
M80.926109,143.439270 
	C81.149628,140.645599 81.758507,138.145691 81.961433,135.613266 
	C82.342728,130.854813 82.489510,126.077576 83.410660,121.118118 
	C85.726074,121.947983 87.364639,122.967880 89.003197,123.987778 
	C88.732880,131.501923 88.462563,139.016083 88.020020,146.942902 
	C85.607933,146.143158 83.368088,144.930756 80.926109,143.439270 
z"/>
<path fill="#50C494" opacity="1.000000" stroke="none" 
	d="
M101.852333,117.457764 
	C101.901703,123.333267 101.897133,129.210052 102.036446,135.083420 
	C102.073631,136.651337 102.550949,138.208801 103.216278,140.032196 
	C101.286598,141.796234 98.966835,143.299133 96.309036,144.862488 
	C95.625725,137.441345 95.280457,129.959763 95.124786,121.758392 
	C97.493706,119.845001 99.673019,118.651382 101.852333,117.457764 
z"/>
<path fill="#5ACB9C" opacity="1.000000" stroke="none" 
	d="
M109.542114,63.680992 
	C110.250092,71.311867 110.629326,79.082458 110.668076,87.348404 
	C108.217995,88.894714 106.108398,89.945663 103.998901,90.528198 
	C103.999329,84.954758 104.132042,79.844765 103.940704,74.746925 
	C103.853149,72.414368 103.127678,70.105759 102.691513,67.786285 
	C104.865463,66.464424 107.039413,65.142563 109.542114,63.680992 
z"/>
<path fill="#52C696" opacity="1.000000" stroke="none" 
	d="
M102.360168,67.853020 
	C103.127678,70.105759 103.853149,72.414368 103.940704,74.746925 
	C104.132042,79.844765 103.999329,84.954758 103.792473,90.792358 
	C101.780167,92.492783 99.974380,93.460655 98.168594,94.428528 
	C98.112259,89.039421 98.193222,83.643562 97.928642,78.264702 
	C97.829712,76.253380 96.925446,74.281670 96.049042,72.057617 
	C97.816086,70.522148 99.922455,69.220947 102.360168,67.853020 
z"/>
<path fill="#43B887" opacity="1.000000" stroke="none" 
	d="
M89.668976,74.767181 
	C90.260941,82.562820 90.550362,90.223938 90.574356,98.433716 
	C87.857147,97.716354 85.405357,96.450325 82.953575,95.184296 
	C83.309578,87.728722 83.665581,80.273148 84.038605,72.339447 
	C85.825897,72.785103 87.596169,73.708878 89.668976,74.767181 
z"/>
<path fill="#FBFDFC" opacity="1.000000" stroke="none" 
	d="
M82.599091,95.129440 
	C85.405357,96.450325 87.857147,97.716354 90.645996,98.825546 
	C93.230408,97.407135 95.477760,96.145554 97.946854,94.656250 
	C99.974380,93.460655 101.780167,92.492783 103.792374,91.260765 
	C106.108398,89.945663 108.217995,88.894714 110.688843,87.801445 
	C110.836876,95.896454 110.623642,104.033783 110.191841,112.525070 
	C107.417892,114.259346 104.862518,115.639656 102.079742,117.238861 
	C99.673019,118.651382 97.493706,119.845001 95.084679,121.258598 
	C93.139938,122.291061 91.424904,123.103546 89.356537,123.951904 
	C87.364639,122.967880 85.726074,121.947983 83.774826,120.861565 
	C80.522896,118.978111 77.583656,117.161163 74.313591,115.279999 
	C69.849770,113.654640 67.931374,110.983871 68.267067,106.265732 
	C68.688446,100.343277 68.368523,94.368080 68.368523,87.815170 
	C69.893829,88.359291 70.885483,88.713043 72.233688,89.149483 
	C75.808365,91.179642 79.026489,93.127113 82.599091,95.129440 
z"/>
</svg>