<svg version="1.1" id="Layer_1" xmlns="http://www.w3.org/2000/svg" xmlns:xlink="http://www.w3.org/1999/xlink" x="0px" y="0px"
	 width="100%" viewBox="0 0 2000 1753" enable-background="new 0 0 2000 1753" xml:space="preserve">
<path fill="#FFFFFF" opacity="1.000000" stroke="none" 
	d="
M1358.000000,1754.000000 
	C905.333313,1754.000000 453.166656,1754.000000 1.000000,1754.000000 
	C1.000000,1169.666626 1.000000,585.333313 1.000000,1.000000 
	C667.666687,1.000000 1334.333374,1.000000 2001.000000,1.000000 
	C2001.000000,585.333313 2001.000000,1169.666626 2001.000000,1754.000000 
	C1786.833374,1754.000000 1572.666626,1754.000000 1358.000000,1754.000000 
M1212.735596,391.271057 
	C1180.164551,372.499817 1147.593506,353.728577 1114.639648,334.378296 
	C1109.392212,331.397919 1104.125000,328.451691 1098.901001,325.430817 
	C1082.090576,315.709991 1065.332031,305.898712 1048.481567,296.248138 
	C1038.740601,290.669373 1028.861084,285.332581 1018.740662,279.266235 
	C1013.369873,276.160919 1008.062622,272.934631 1002.575073,270.051575 
	C1001.468262,269.470093 999.407593,269.716156 998.244873,270.381439 
	C986.110474,277.324524 974.083374,284.454742 961.999573,291.486816 
	C943.994385,301.964844 925.967590,312.405640 907.316833,323.189575 
	C902.119934,326.146271 896.905945,329.073303 891.729065,332.064575 
	C865.145020,347.425079 838.570496,362.802124 811.309509,378.265930 
	C803.474670,382.861481 795.678345,387.524231 787.796570,392.037903 
	C773.570068,400.184998 759.235046,408.143646 745.050903,416.363159 
	C727.341309,426.625549 709.767639,437.122314 692.081421,447.425293 
	C673.406250,458.304382 654.667542,469.074432 635.310974,480.192078 
	C610.539917,494.517029 585.768860,508.841949 560.304504,523.242737 
	C552.181274,528.011902 544.077759,532.815125 535.930664,537.543335 
	C516.924377,548.573853 498.017059,559.785645 478.783020,570.404785 
	C474.639008,572.692688 473.929382,575.153259 473.930908,579.248962 
	C474.004211,777.329712 474.053864,975.410522 473.761932,1173.490845 
	C473.751160,1180.787354 476.727142,1183.790405 482.237854,1186.797119 
	C494.822479,1193.663330 507.170502,1200.963379 519.610657,1208.093994 
	C533.408569,1216.003174 547.202209,1223.919556 561.639771,1232.146484 
	C573.666077,1239.172363 585.664185,1246.247192 597.726196,1253.211304 
	C611.453247,1261.136963 625.237305,1268.963745 639.636353,1277.148438 
	C644.404480,1279.924561 649.173340,1282.699219 653.940552,1285.476929 
	C669.805054,1294.720947 685.653320,1303.992920 701.537720,1313.202637 
	C716.335938,1321.782349 731.172424,1330.296021 746.635864,1339.155518 
	C761.201965,1347.465698 775.813477,1355.697388 790.320801,1364.108887 
	C803.835999,1371.945068 817.205261,1380.032349 830.703430,1387.898193 
	C843.648743,1395.441772 856.678650,1402.839966 869.668396,1410.307251 
	C882.358337,1417.602173 895.024597,1424.938477 907.738098,1432.192017 
	C919.455872,1438.877563 931.222778,1445.477051 943.302795,1452.724609 
	C944.515137,1453.514404 945.694275,1454.361572 946.944702,1455.085327 
	C964.091858,1465.009521 981.229187,1474.951050 998.447815,1484.749756 
	C999.590820,1485.400269 1001.688538,1485.507080 1002.801697,1484.890747 
	C1009.631042,1481.109253 1016.304565,1477.046509 1023.684692,1472.805054 
	C1038.381104,1464.419800 1053.114014,1456.097778 1067.763794,1447.631958 
	C1083.557739,1438.505127 1099.273926,1429.243896 1115.686890,1419.795532 
	C1117.840820,1418.632202 1120.025879,1417.522705 1122.143433,1416.296631 
	C1138.395264,1406.887207 1154.656982,1397.494873 1170.868774,1388.017090 
	C1183.392212,1380.695312 1195.847778,1373.257568 1209.105469,1365.855347 
	C1210.073364,1365.239136 1211.016724,1364.579834 1212.012573,1364.012695 
	C1231.365479,1352.994629 1250.773926,1342.073242 1270.069702,1330.955933 
	C1295.331665,1316.401245 1320.523193,1301.723755 1345.705811,1287.032104 
	C1352.885742,1282.843018 1359.930420,1278.422119 1367.760864,1274.003418 
	C1369.522827,1273.147461 1371.345337,1272.396362 1373.037476,1271.419312 
	C1391.734741,1260.625122 1410.424072,1249.816528 1429.089966,1238.967773 
	C1439.416382,1232.966064 1449.694702,1226.881592 1460.683838,1220.737793 
	C1481.156616,1208.953735 1501.576904,1197.076538 1522.143311,1185.458252 
	C1526.667969,1182.902222 1528.150391,1179.892578 1528.145508,1174.564209 
	C1527.966675,981.466187 1527.995483,788.368042 1527.995483,595.269897 
	C1527.995483,589.105408 1528.232910,582.926147 1527.850586,576.785461 
	C1527.735352,574.935486 1526.336914,572.480408 1524.776489,571.517456 
	C1515.289429,565.663025 1505.619263,560.101196 1495.945923,554.553955 
	C1483.994873,547.700562 1471.981201,540.956665 1459.362549,533.846252 
	C1448.076294,527.235168 1436.819458,520.573486 1425.497314,514.024597 
	C1406.936523,503.288940 1388.323975,492.643158 1369.753052,481.925140 
	C1362.242310,477.590363 1354.811401,473.116821 1347.295044,468.791870 
	C1333.546021,460.880646 1319.760254,453.032928 1305.355347,444.843262 
	C1301.739380,442.614471 1298.176025,440.294220 1294.498535,438.172180 
	C1275.791138,427.377625 1257.077393,416.593842 1238.317017,405.891968 
	C1229.951538,401.119904 1221.471313,396.548920 1212.735596,391.271057 
z"/>
<path fill="#5090DE" opacity="1.000000" stroke="none" 
	d="
M1459.994629,1220.834351 
	C1449.694702,1226.881592 1439.416382,1232.966064 1429.089966,1238.967773 
	C1410.424072,1249.816528 1391.734741,1260.625122 1373.037476,1271.419312 
	C1371.345337,1272.396362 1369.522827,1273.147461 1367.339600,1273.632568 
	C1366.612183,1270.813354 1366.041992,1268.365112 1366.039185,1265.916260 
	C1365.985840,1220.505493 1366.014648,1175.094727 1365.956299,1129.683960 
	C1365.953369,1127.416748 1365.314575,1125.150146 1365.140869,1122.586670 
	C1373.243652,1117.661377 1380.975830,1112.624634 1389.190063,1108.562622 
	C1393.821899,1106.272339 1395.112915,1103.559937 1395.108398,1098.590088 
	C1394.973511,951.154907 1394.979858,803.719604 1395.086670,656.284363 
	C1395.089966,651.628052 1394.284302,648.483337 1389.493408,646.656677 
	C1386.034180,645.337830 1383.029785,642.849976 1379.775513,640.964783 
	C1355.521606,626.914185 1331.256104,612.883972 1306.996948,598.388306 
	C1306.999878,551.456299 1307.027222,504.983307 1306.955933,458.510468 
	C1306.948975,454.059418 1306.326538,449.609283 1305.989868,445.158752 
	C1319.760254,453.032928 1333.546021,460.880646 1347.295044,468.791870 
	C1354.811401,473.116821 1362.242310,477.590363 1369.753052,481.925140 
	C1388.323975,492.643158 1406.936523,503.288940 1425.497314,514.024597 
	C1436.819458,520.573486 1448.076294,527.235168 1459.680664,534.462646 
	C1459.997437,763.664124 1459.996094,992.249207 1459.994629,1220.834351 
z"/>
<path fill="#216DC5" opacity="1.000000" stroke="none" 
	d="
M560.997742,1231.832886 
	C547.202209,1223.919556 533.408569,1216.003174 519.610657,1208.093994 
	C507.170502,1200.963379 494.822479,1193.663330 482.237854,1186.797119 
	C476.727142,1183.790405 473.751160,1180.787354 473.761932,1173.490845 
	C474.053864,975.410522 474.004211,777.329712 473.930908,579.248962 
	C473.929382,575.153259 474.639008,572.692688 478.783020,570.404785 
	C498.017059,559.785645 516.924377,548.573853 535.930664,537.543335 
	C544.077759,532.815125 552.181274,528.011902 560.652039,523.662415 
	C560.999756,756.231995 560.999878,988.381836 560.999939,1220.531738 
	C560.999939,1224.298828 560.998474,1228.065796 560.997742,1231.832886 
z"/>
<path fill="#5493E0" opacity="1.000000" stroke="none" 
	d="
M1460.339233,1220.786133 
	C1459.996094,992.249207 1459.997437,763.664124 1459.996582,534.622192 
	C1471.981201,540.956665 1483.994873,547.700562 1495.945923,554.553955 
	C1505.619263,560.101196 1515.289429,565.663025 1524.776489,571.517456 
	C1526.336914,572.480408 1527.735352,574.935486 1527.850586,576.785461 
	C1528.232910,582.926147 1527.995483,589.105408 1527.995483,595.269897 
	C1527.995483,788.368042 1527.966675,981.466187 1528.145508,1174.564209 
	C1528.150391,1179.892578 1526.667969,1182.902222 1522.143311,1185.458252 
	C1501.576904,1197.076538 1481.156616,1208.953735 1460.339233,1220.786133 
z"/>
<path fill="#2570C7" opacity="1.000000" stroke="none" 
	d="
M561.318726,1231.989746 
	C560.998474,1228.065796 560.999939,1224.298828 560.999939,1220.531738 
	C560.999878,988.381836 560.999756,756.231995 560.998657,523.624512 
	C585.768860,508.841949 610.539917,494.517029 635.801025,480.433838 
	C636.527405,482.799713 636.967957,484.923676 636.969910,487.048004 
	C637.009827,531.192688 637.028687,575.337463 636.956055,619.482056 
	C636.948730,623.933533 636.328857,628.383911 635.674561,632.990723 
	C627.231873,637.937012 619.170654,642.838989 610.949036,647.455261 
	C608.192322,649.003113 606.932129,650.719910 606.933777,654.013184 
	C607.007263,802.987671 607.006836,951.962219 606.935974,1100.936768 
	C606.934448,1104.203003 608.125793,1105.955688 610.907776,1107.516479 
	C620.368408,1112.824341 629.675537,1118.406006 639.028442,1124.359009 
	C639.009399,1175.501099 639.002991,1226.167236 638.996582,1276.833496 
	C625.237305,1268.963745 611.453247,1261.136963 597.726196,1253.211304 
	C585.664185,1246.247192 573.666077,1239.172363 561.318726,1231.989746 
z"/>
<path fill="#337ACF" opacity="1.000000" stroke="none" 
	d="
M942.968079,1452.114380 
	C931.222778,1445.477051 919.455872,1438.877563 907.738098,1432.192017 
	C895.024597,1424.938477 882.358337,1417.602173 869.668396,1410.307251 
	C856.678650,1402.839966 843.648743,1395.441772 830.703430,1387.898193 
	C817.205261,1380.032349 803.835999,1371.945068 790.320801,1364.108887 
	C775.813477,1355.697388 761.201965,1347.465698 746.316956,1338.539307 
	C746.012939,1287.241089 746.027832,1236.558960 746.402893,1185.930908 
	C762.272034,1194.884644 777.798340,1203.754517 793.284424,1212.694092 
	C805.253357,1219.603027 817.141357,1226.652466 829.120667,1233.543457 
	C842.217834,1241.077759 855.373413,1248.510742 868.530640,1255.940063 
	C869.033691,1256.224243 869.966125,1256.267700 870.450012,1255.990112 
	C883.129211,1248.718140 895.754639,1241.352417 908.433716,1234.080200 
	C920.252258,1227.301514 932.121948,1220.611938 943.978394,1214.359131 
	C943.991699,1291.477661 944.005432,1368.120483 943.956604,1444.763306 
	C943.955017,1447.213867 943.312073,1449.664062 942.968079,1452.114380 
z"/>
<path fill="#397ED2" opacity="1.000000" stroke="none" 
	d="
M907.949951,322.862274 
	C925.967590,312.405640 943.994385,301.964844 961.999573,291.486816 
	C974.083374,284.454742 986.110474,277.324524 998.244873,270.381439 
	C999.407593,269.716156 1001.468262,269.470093 1002.575073,270.051575 
	C1008.062622,272.934631 1013.369873,276.160919 1018.831787,279.999420 
	C1018.615234,283.184509 1018.039978,285.636230 1018.038696,288.088287 
	C1017.992493,375.874878 1018.004150,463.661499 1017.987793,551.448120 
	C1017.986938,555.941833 1019.207642,560.808472 1014.178650,563.891541 
	C1013.436462,564.346497 1013.422485,565.989258 1013.057983,567.061401 
	C1013.044434,567.040344 1013.092773,567.046814 1012.870422,567.111267 
	C1012.361633,567.322021 1012.151672,567.541443 1011.714966,567.970825 
	C1010.623108,568.441833 1009.834534,568.776062 1008.833862,568.826416 
	C1005.615112,567.835083 1003.941223,568.836121 1003.868652,572.415710 
	C1001.908020,572.723145 999.824524,573.331665 998.391235,572.623779 
	C993.752930,570.332764 989.354248,567.556763 984.861694,564.970398 
	C959.536865,550.390991 934.211731,535.812317 908.918579,520.811523 
	C908.300293,510.564270 907.528015,500.744812 907.047974,490.911133 
	C906.780640,485.434509 906.971008,479.933899 907.004578,474.444427 
	C907.313538,423.916992 907.633301,373.389648 907.949951,322.862274 
z"/>
<path fill="#2A73CA" opacity="1.000000" stroke="none" 
	d="
M635.993286,632.834839 
	C636.328857,628.383911 636.948730,623.933533 636.956055,619.482056 
	C637.028687,575.337463 637.009827,531.192688 636.969910,487.048004 
	C636.967957,484.923676 636.527405,482.799713 636.123901,480.283875 
	C654.667542,469.074432 673.406250,458.304382 692.081421,447.425293 
	C709.767639,437.122314 727.341309,426.625549 745.050903,416.363159 
	C759.235046,408.143646 773.570068,400.184998 787.796570,392.037903 
	C795.678345,387.524231 803.474670,382.861481 811.652832,378.676758 
	C811.996643,425.717621 812.023376,472.347687 811.953735,518.977661 
	C811.947327,523.261169 811.325378,527.543701 810.668335,531.986206 
	C804.195557,535.765991 798.060242,539.414917 791.888367,543.000854 
	C778.107971,551.007507 764.306641,558.978088 750.518799,566.971985 
	C737.009644,574.804321 723.518982,582.668518 709.997559,590.479431 
	C697.472473,597.714844 684.927063,604.915161 672.372620,612.099548 
	C660.258118,619.032166 648.120667,625.924744 635.993286,632.834839 
z"/>
<path fill="#488ADA" opacity="1.000000" stroke="none" 
	d="
M1364.971924,1122.883301 
	C1365.314575,1125.150146 1365.953369,1127.416748 1365.956299,1129.683960 
	C1366.014648,1175.094727 1365.985840,1220.505493 1366.039185,1265.916260 
	C1366.041992,1268.365112 1366.612183,1270.813354 1366.977783,1273.684814 
	C1359.930420,1278.422119 1352.885742,1282.843018 1345.705811,1287.032104 
	C1320.523193,1301.723755 1295.331665,1316.401245 1270.069702,1330.955933 
	C1250.773926,1342.073242 1231.365479,1352.994629 1212.012573,1364.012695 
	C1211.016724,1364.579834 1210.073364,1365.239136 1208.636230,1365.329346 
	C1208.111206,1362.645020 1208.007568,1360.486572 1208.007080,1358.328125 
	C1207.997681,1312.789429 1207.981934,1267.250610 1208.041504,1221.711914 
	C1208.045288,1218.764893 1208.644653,1215.818726 1209.139404,1212.573853 
	C1216.984009,1207.900879 1224.671143,1203.552612 1232.324951,1199.146118 
	C1248.614502,1189.767822 1264.893311,1180.370850 1281.164185,1170.960083 
	C1297.329712,1161.610229 1313.460327,1152.199463 1329.643921,1142.881104 
	C1340.695435,1136.517700 1351.811768,1130.267090 1363.121826,1123.901611 
	C1363.631226,1123.691528 1363.843506,1123.473389 1364.227539,1123.103760 
	C1364.639893,1122.977539 1364.805908,1122.930420 1364.971924,1122.883301 
z"/>
<path fill="#3E82D4" opacity="1.000000" stroke="none" 
	d="
M1013.071594,567.082520 
	C1013.422485,565.989258 1013.436462,564.346497 1014.178650,563.891541 
	C1019.207642,560.808472 1017.986938,555.941833 1017.987793,551.448120 
	C1018.004150,463.661499 1017.992493,375.874878 1018.038696,288.088287 
	C1018.039978,285.636230 1018.615234,283.184509 1018.983398,280.309753 
	C1028.861084,285.332581 1038.740601,290.669373 1048.481567,296.248138 
	C1065.332031,305.898712 1082.090576,315.709991 1098.901001,325.430817 
	C1104.125000,328.451691 1109.392212,331.397919 1114.823853,335.139282 
	C1115.005371,384.280121 1115.054565,432.660095 1114.954468,481.039764 
	C1114.935303,490.305023 1114.328125,499.569122 1113.676270,508.993530 
	C1105.813110,513.667236 1098.312744,518.261963 1090.707886,522.676636 
	C1078.302856,529.877869 1065.836182,536.973083 1053.383179,544.091370 
	C1039.953369,551.768066 1026.509399,559.419861 1013.071594,567.082520 
z"/>
<path fill="#397ED2" opacity="1.000000" stroke="none" 
	d="
M943.135437,1452.419434 
	C943.312073,1449.664062 943.955017,1447.213867 943.956604,1444.763306 
	C944.005432,1368.120483 943.991699,1291.477661 944.144775,1214.055176 
	C958.327209,1205.223999 972.385010,1197.228394 986.357849,1189.087158 
	C990.619263,1186.604004 994.646790,1183.719482 999.135803,1180.960815 
	C1000.623291,1181.152954 1001.756409,1181.403320 1003.201050,1181.851562 
	C1009.684143,1185.682129 1015.855774,1189.314697 1022.020264,1193.379395 
	C1022.342041,1199.431519 1022.953247,1205.051392 1022.957764,1210.671631 
	C1023.028137,1298.140259 1023.020020,1385.608765 1023.029968,1473.077393 
	C1016.304565,1477.046509 1009.631042,1481.109253 1002.801697,1484.890747 
	C1001.688538,1485.507080 999.590820,1485.400269 998.447815,1484.749756 
	C981.229187,1474.951050 964.091858,1465.009521 946.944702,1455.085327 
	C945.694275,1454.361572 944.515137,1453.514404 943.135437,1452.419434 
z"/>
<path fill="#3E82D4" opacity="1.000000" stroke="none" 
	d="
M1023.357300,1472.941162 
	C1023.020020,1385.608765 1023.028137,1298.140259 1022.957764,1210.671631 
	C1022.953247,1205.051392 1022.342041,1199.431519 1022.350037,1193.506592 
	C1027.202759,1195.815918 1031.717407,1198.432129 1036.234375,1201.044189 
	C1062.820068,1216.418457 1089.406250,1231.791870 1115.936523,1247.541748 
	C1115.253784,1250.252075 1114.084229,1252.585205 1114.079712,1254.920776 
	C1113.976196,1308.026978 1113.989258,1361.133301 1114.043213,1414.239624 
	C1114.045166,1416.173828 1114.682617,1418.107422 1115.024048,1420.041382 
	C1099.273926,1429.243896 1083.557739,1438.505127 1067.763794,1447.631958 
	C1053.114014,1456.097778 1038.381104,1464.419800 1023.357300,1472.941162 
z"/>
<path fill="#2A73CA" opacity="1.000000" stroke="none" 
	d="
M746.042725,1185.876953 
	C746.027832,1236.558960 746.012939,1287.241089 745.995056,1338.380859 
	C731.172424,1330.296021 716.335938,1321.782349 701.537720,1313.202637 
	C685.653320,1303.992920 669.805054,1294.720947 653.940552,1285.476929 
	C649.173340,1282.699219 644.404480,1279.924561 639.316467,1276.990967 
	C639.002991,1226.167236 639.009399,1175.501099 639.352295,1124.507568 
	C646.492554,1127.945435 653.360291,1131.600098 660.087158,1135.497681 
	C676.363770,1144.928711 692.581726,1154.461426 708.809998,1163.975708 
	C721.231445,1171.258179 733.632568,1178.575195 746.042725,1185.876953 
z"/>
<path fill="#337ACF" opacity="1.000000" stroke="none" 
	d="
M810.989258,531.826660 
	C811.325378,527.543701 811.947327,523.261169 811.953735,518.977661 
	C812.023376,472.347687 811.996643,425.717621 811.994446,378.630463 
	C838.570496,362.802124 865.145020,347.425079 891.729065,332.064575 
	C896.905945,329.073303 902.119934,326.146271 907.633423,323.025940 
	C907.633301,373.389648 907.313538,423.916992 907.004578,474.444427 
	C906.971008,479.933899 906.780640,485.434509 907.047974,490.911133 
	C907.528015,500.744812 908.300293,510.564270 908.628784,520.608582 
	C895.995117,513.790710 883.698547,506.726410 871.343201,499.766663 
	C870.301331,499.179779 868.528931,498.693451 867.664795,499.176971 
	C860.854919,502.987305 854.223633,507.114838 847.460510,511.011230 
	C835.331726,517.998901 823.149292,524.893311 810.989258,531.826660 
z"/>
<path fill="#4386D7" opacity="1.000000" stroke="none" 
	d="
M1113.992188,508.833740 
	C1114.328125,499.569122 1114.935303,490.305023 1114.954468,481.039764 
	C1115.054565,432.660095 1115.005371,384.280121 1115.015259,335.428772 
	C1147.593506,353.728577 1180.164551,372.499817 1212.884766,392.009766 
	C1213.356079,395.200531 1213.955811,397.652313 1213.958862,400.104828 
	C1214.014648,446.377228 1214.011841,492.649750 1213.953125,538.922180 
	C1213.950928,540.630310 1213.259399,542.337524 1212.531372,544.011414 
	C1186.662109,529.362000 1161.128784,514.784363 1135.681274,500.058197 
	C1133.652588,498.884277 1132.481445,498.375549 1130.227417,499.795105 
	C1124.993896,503.091003 1119.425171,505.854492 1113.992188,508.833740 
z"/>
<path fill="#4386D7" opacity="1.000000" stroke="none" 
	d="
M1115.355469,1419.918457 
	C1114.682617,1418.107422 1114.045166,1416.173828 1114.043213,1414.239624 
	C1113.989258,1361.133301 1113.976196,1308.026978 1114.079712,1254.920776 
	C1114.084229,1252.585205 1115.253784,1250.252075 1116.280273,1247.580322 
	C1121.499268,1250.047485 1126.281616,1252.919800 1131.171753,1255.594727 
	C1132.068481,1256.085083 1133.671997,1256.239746 1134.496094,1255.764160 
	C1147.688599,1248.150757 1160.766357,1240.338745 1173.955444,1232.719238 
	C1185.571045,1226.008545 1197.292236,1219.480713 1208.966797,1212.872070 
	C1208.644653,1215.818726 1208.045288,1218.764893 1208.041504,1221.711914 
	C1207.981934,1267.250610 1207.997681,1312.789429 1208.007080,1358.328125 
	C1208.007568,1360.486572 1208.111206,1362.645020 1208.250244,1365.337402 
	C1195.847778,1373.257568 1183.392212,1380.695312 1170.868774,1388.017090 
	C1154.656982,1397.494873 1138.395264,1406.887207 1122.143433,1416.296631 
	C1120.025879,1417.522705 1117.840820,1418.632202 1115.355469,1419.918457 
z"/>
<path fill="#488ADA" opacity="1.000000" stroke="none" 
	d="
M1212.889160,544.045166 
	C1213.259399,542.337524 1213.950928,540.630310 1213.953125,538.922180 
	C1214.011841,492.649750 1214.014648,446.377228 1213.958862,400.104828 
	C1213.955811,397.652313 1213.356079,395.200531 1213.038574,392.317566 
	C1221.471313,396.548920 1229.951538,401.119904 1238.317017,405.891968 
	C1257.077393,416.593842 1275.791138,427.377625 1294.498535,438.172180 
	C1298.176025,440.294220 1301.739380,442.614471 1305.672607,445.000977 
	C1306.326538,449.609283 1306.948975,454.059418 1306.955933,458.510468 
	C1307.027222,504.983307 1306.999878,551.456299 1306.656006,598.337158 
	C1300.846313,595.489441 1295.413696,592.176392 1289.908813,588.987976 
	C1265.615723,574.916931 1241.301758,560.881714 1216.990967,546.503052 
	C1215.952759,545.799866 1214.918945,545.427307 1213.649414,544.967346 
	C1213.238770,544.601685 1213.063965,544.323425 1212.889160,544.045166 
z"/>
<path fill="#FFFFFF" opacity="1.000000" stroke="none" 
	d="
M1216.995361,546.833618 
	C1241.301758,560.881714 1265.615723,574.916931 1289.908813,588.987976 
	C1295.413696,592.176392 1300.846313,595.489441 1306.653198,598.796265 
	C1331.256104,612.883972 1355.521606,626.914185 1379.775513,640.964783 
	C1383.029785,642.849976 1386.034180,645.337830 1389.493408,646.656677 
	C1394.284302,648.483337 1395.089966,651.628052 1395.086670,656.284363 
	C1394.979858,803.719604 1394.973511,951.154907 1395.108398,1098.590088 
	C1395.112915,1103.559937 1393.821899,1106.272339 1389.190063,1108.562622 
	C1380.975830,1112.624634 1373.243652,1117.661377 1365.140869,1122.586670 
	C1364.805908,1122.930420 1364.639893,1122.977539 1363.973877,1123.092529 
	C1363.282349,1123.428833 1363.090820,1123.697510 1362.899170,1123.966064 
	C1351.811768,1130.267090 1340.695435,1136.517700 1329.643921,1142.881104 
	C1313.460327,1152.199463 1297.329712,1161.610229 1281.164185,1170.960083 
	C1264.893311,1180.370850 1248.614502,1189.767822 1232.324951,1199.146118 
	C1224.671143,1203.552612 1216.984009,1207.900879 1209.139404,1212.573853 
	C1197.292236,1219.480713 1185.571045,1226.008545 1173.955444,1232.719238 
	C1160.766357,1240.338745 1147.688599,1248.150757 1134.496094,1255.764160 
	C1133.671997,1256.239746 1132.068481,1256.085083 1131.171753,1255.594727 
	C1126.281616,1252.919800 1121.499268,1250.047485 1116.336060,1247.204346 
	C1089.406250,1231.791870 1062.820068,1216.418457 1036.234375,1201.044189 
	C1031.717407,1198.432129 1027.202759,1195.815918 1022.357239,1193.074463 
	C1015.855774,1189.314697 1009.684143,1185.682129 1003.411682,1181.604492 
	C1011.560059,1176.141357 1019.809204,1171.123413 1028.417480,1166.058350 
	C1052.200928,1152.383301 1075.625366,1138.755249 1099.408447,1125.074585 
	C1124.167358,1110.966553 1148.567749,1096.911011 1173.309814,1082.808105 
	C1184.768066,1076.363403 1195.915771,1070.019409 1206.994507,1063.556763 
	C1224.744141,1053.202637 1242.361938,1042.617554 1260.244141,1032.499268 
	C1263.797607,1030.488647 1265.070801,1028.537109 1265.066162,1024.512451 
	C1264.953491,926.576843 1264.978149,828.641052 1264.978027,730.705322 
	C1264.978027,729.705994 1265.256348,728.593750 1264.910156,727.733032 
	C1264.356079,726.355225 1263.692749,724.642456 1262.544556,723.943298 
	C1254.549316,719.074280 1246.438843,714.392395 1238.324707,709.720947 
	C1216.553223,697.186890 1194.761353,684.688232 1172.665527,672.007690 
	C1160.065796,664.617981 1147.803589,657.351929 1135.451050,650.243347 
	C1134.225586,649.538208 1132.060059,649.108887 1130.986328,649.714233 
	C1122.865845,654.292053 1114.909302,659.160645 1106.547607,663.981689 
	C1094.467163,670.847717 1082.753540,677.693237 1071.010620,684.487915 
	C1052.333374,695.294922 1033.636475,706.068115 1014.635437,717.024658 
	C1011.203369,718.977966 1008.241516,721.204163 1004.909607,722.394287 
	C1002.604797,723.217468 999.264221,723.568481 997.287476,722.485657 
	C985.103760,715.812012 973.204468,708.621582 961.155457,701.698853 
	C949.131653,694.790527 937.043213,687.994690 924.663879,680.998047 
	C923.730225,680.298950 923.189270,679.623230 922.490540,679.222900 
	C907.699646,670.747742 892.890930,662.303589 877.920593,653.538086 
	C875.855408,652.320435 874.021484,651.208801 872.034607,650.581421 
	C870.422119,650.072205 868.195129,649.386169 866.978760,650.077332 
	C856.196472,656.204224 845.578857,662.620789 834.589600,669.093140 
	C823.671143,675.231262 813.030151,681.149353 802.493713,687.248291 
	C792.933105,692.782349 783.486389,698.513428 773.640259,704.200867 
	C763.286804,709.914307 753.340210,715.689697 743.253174,721.208435 
	C738.518250,723.799011 736.791443,727.004578 736.806885,732.778137 
	C737.065552,829.491821 736.991516,926.206360 736.991699,1022.920715 
	C736.991699,1024.585327 736.758423,1026.296387 737.075317,1027.898560 
	C737.293762,1029.003174 738.030090,1030.380981 738.952515,1030.913696 
	C750.587280,1037.633179 762.298096,1044.221191 774.310852,1050.999268 
	C780.779114,1054.779053 786.906616,1058.435791 793.076660,1062.019409 
	C807.372192,1070.322144 821.688293,1078.589478 836.323364,1087.017578 
	C840.713745,1089.546021 844.736084,1092.000977 848.848450,1094.294678 
	C857.192200,1098.948486 865.584656,1103.515015 874.097656,1108.433838 
	C881.806458,1113.164062 889.376221,1117.574951 896.942444,1121.991821 
	C908.564941,1128.776489 920.135498,1135.652222 931.822876,1142.322998 
	C940.123474,1147.060791 948.580383,1151.524780 957.105774,1156.429810 
	C960.884521,1158.849243 964.536377,1160.930420 968.163391,1163.054077 
	C978.374817,1169.032959 988.576111,1175.029419 998.781433,1181.018921 
	C994.646790,1183.719482 990.619263,1186.604004 986.357849,1189.087158 
	C972.385010,1197.228394 958.327209,1205.223999 944.135620,1213.579346 
	C932.121948,1220.611938 920.252258,1227.301514 908.433716,1234.080200 
	C895.754639,1241.352417 883.129211,1248.718140 870.450012,1255.990112 
	C869.966125,1256.267700 869.033691,1256.224243 868.530640,1255.940063 
	C855.373413,1248.510742 842.217834,1241.077759 829.120667,1233.543457 
	C817.141357,1226.652466 805.253357,1219.603027 793.284424,1212.694092 
	C777.798340,1203.754517 762.272034,1194.884644 746.402893,1185.930908 
	C733.632568,1178.575195 721.231445,1171.258179 708.809998,1163.975708 
	C692.581726,1154.461426 676.363770,1144.928711 660.087158,1135.497681 
	C653.360291,1131.600098 646.492554,1127.945435 639.364990,1124.031738 
	C629.675537,1118.406006 620.368408,1112.824341 610.907776,1107.516479 
	C608.125793,1105.955688 606.934448,1104.203003 606.935974,1100.936768 
	C607.006836,951.962219 607.007263,802.987671 606.933777,654.013184 
	C606.932129,650.719910 608.192322,649.003113 610.949036,647.455261 
	C619.170654,642.838989 627.231873,637.937012 635.674561,632.990723 
	C648.120667,625.924744 660.258118,619.032166 672.372620,612.099548 
	C684.927063,604.915161 697.472473,597.714844 709.997559,590.479431 
	C723.518982,582.668518 737.009644,574.804321 750.518799,566.971985 
	C764.306641,558.978088 778.107971,551.007507 791.888367,543.000854 
	C798.060242,539.414917 804.195557,535.765991 810.668335,531.986206 
	C823.149292,524.893311 835.331726,517.998901 847.460510,511.011230 
	C854.223633,507.114838 860.854919,502.987305 867.664795,499.176971 
	C868.528931,498.693451 870.301331,499.179779 871.343201,499.766663 
	C883.698547,506.726410 895.995117,513.790710 908.596863,521.030457 
	C934.211731,535.812317 959.536865,550.390991 984.861694,564.970398 
	C989.354248,567.556763 993.752930,570.332764 998.391235,572.623779 
	C999.824524,573.331665 1001.908020,572.723145 1004.209656,572.364014 
	C1006.165588,571.043884 1007.605774,570.077087 1009.045898,569.110352 
	C1009.834534,568.776062 1010.623108,568.441833 1011.971619,567.990295 
	C1012.718567,567.597656 1012.905640,567.322205 1013.092773,567.046814 
	C1013.092773,567.046814 1013.044434,567.040344 1013.057983,567.061401 
	C1026.509399,559.419861 1039.953369,551.768066 1053.383179,544.091370 
	C1065.836182,536.973083 1078.302856,529.877869 1090.707886,522.676636 
	C1098.312744,518.261963 1105.813110,513.667236 1113.676270,508.993530 
	C1119.425171,505.854492 1124.993896,503.091003 1130.227417,499.795105 
	C1132.481445,498.375549 1133.652588,498.884277 1135.681274,500.058197 
	C1161.128784,514.784363 1186.662109,529.362000 1212.531372,544.011353 
	C1213.063965,544.323425 1213.238770,544.601685 1213.793457,545.248413 
	C1215.113892,546.022461 1216.054688,546.428040 1216.995361,546.833618 
z"/>
<path fill="#3E82D4" opacity="1.000000" stroke="none" 
	d="
M1008.833862,568.826416 
	C1007.605774,570.077087 1006.165588,571.043884 1004.384521,572.062317 
	C1003.941223,568.836121 1005.615112,567.835083 1008.833862,568.826416 
z"/>
<path fill="#3E82D4" opacity="1.000000" stroke="none" 
	d="
M1012.870422,567.111267 
	C1012.905640,567.322205 1012.718567,567.597656 1012.274780,567.853516 
	C1012.151672,567.541443 1012.361633,567.322021 1012.870422,567.111267 
z"/>
<path fill="#5090DE" opacity="1.000000" stroke="none" 
	d="
M1363.121826,1123.901611 
	C1363.090820,1123.697510 1363.282349,1123.428833 1363.727539,1123.171631 
	C1363.843506,1123.473389 1363.631226,1123.691528 1363.121826,1123.901611 
z"/>
<path fill="#44BA89" opacity="1.000000" stroke="none" 
	d="
M999.135803,1180.960815 
	C988.576111,1175.029419 978.374817,1169.032959 968.163391,1163.054077 
	C964.536377,1160.930420 960.884521,1158.849243 957.114258,1155.953613 
	C957.003174,1104.737793 957.021851,1054.317139 957.403931,1003.940552 
	C970.419067,1011.122437 983.289001,1017.909729 995.608704,1025.580688 
	C1000.155212,1028.411743 1003.260254,1027.689697 1007.193481,1025.365723 
	C1013.365784,1021.718628 1019.702576,1018.350037 1026.025391,1015.287598 
	C1026.387451,1018.160889 1026.957886,1020.609924 1026.960815,1023.059570 
	C1027.014160,1068.478271 1026.984863,1113.897095 1027.045044,1159.315918 
	C1027.047974,1161.579468 1027.705566,1163.842163 1028.058350,1166.105347 
	C1019.809204,1171.123413 1011.560059,1176.141357 1003.100220,1181.406494 
	C1001.756409,1181.403320 1000.623291,1181.152954 999.135803,1180.960815 
z"/>
<path fill="#4386D7" opacity="1.000000" stroke="none" 
	d="
M1216.990967,546.503052 
	C1216.054688,546.428040 1215.113892,546.022461 1214.029175,545.335815 
	C1214.918945,545.427307 1215.952759,545.799866 1216.990967,546.503052 
z"/>
<path fill="#6DDFB2" opacity="1.000000" stroke="none" 
	d="
M1172.977661,672.175537 
	C1194.761353,684.688232 1216.553223,697.186890 1238.324707,709.720947 
	C1246.438843,714.392395 1254.549316,719.074280 1262.544556,723.943298 
	C1263.692749,724.642456 1264.356079,726.355225 1264.910156,727.733032 
	C1265.256348,728.593750 1264.978027,729.705994 1264.978027,730.705322 
	C1264.978149,828.641052 1264.953491,926.576843 1265.066162,1024.512451 
	C1265.070801,1028.537109 1263.797607,1030.488647 1260.244141,1032.499268 
	C1242.361938,1042.617554 1224.744141,1053.202637 1206.994507,1063.556763 
	C1195.915771,1070.019409 1184.768066,1076.363403 1173.321777,1082.350342 
	C1172.987549,945.351868 1172.982666,808.763733 1172.977661,672.175537 
z"/>
<path fill="#60D3A5" opacity="1.000000" stroke="none" 
	d="
M1172.665527,672.007690 
	C1172.982666,808.763733 1172.987549,945.351868 1172.980347,1082.397827 
	C1148.567749,1096.911011 1124.167358,1110.966553 1099.394531,1124.596680 
	C1099.016479,1075.802734 1099.024292,1027.434326 1098.958008,979.065857 
	C1098.955322,977.027466 1098.265259,974.989929 1098.080078,972.652344 
	C1107.983398,966.854492 1117.634521,961.230713 1127.458862,955.927917 
	C1130.797119,954.126038 1132.091797,952.004395 1132.076050,948.130615 
	C1131.927612,911.820435 1131.987793,875.509460 1131.987793,839.198669 
	C1131.987793,827.379028 1131.987793,815.559326 1131.987793,802.743713 
	C1124.330566,807.053772 1117.239746,811.045044 1109.825684,814.761169 
	C1109.335083,812.520386 1109.022461,810.554871 1109.021362,808.589172 
	C1108.993774,762.816040 1109.032227,717.042786 1108.910645,671.269958 
	C1108.904053,668.824341 1107.601074,666.382202 1106.901489,663.938416 
	C1114.909302,659.160645 1122.865845,654.292053 1130.986328,649.714233 
	C1132.060059,649.108887 1134.225586,649.538208 1135.451050,650.243347 
	C1147.803589,657.351929 1160.065796,664.617981 1172.665527,672.007690 
z"/>
<path fill="#269F6A" opacity="1.000000" stroke="none" 
	d="
M773.989502,704.157654 
	C783.486389,698.513428 792.933105,692.782349 802.493713,687.248291 
	C813.030151,681.149353 823.671143,675.231262 834.901001,669.380615 
	C835.690308,671.664124 835.980347,673.801514 835.980713,675.938904 
	C836.002197,809.174805 836.000000,942.410706 835.999756,1075.646606 
	C835.999756,1079.388184 835.997375,1083.129761 835.996033,1086.871338 
	C821.688293,1078.589478 807.372192,1070.322144 793.076660,1062.019409 
	C786.906616,1058.435791 780.779114,1054.779053 774.315796,1050.540894 
	C773.996033,934.669983 773.992737,819.413818 773.989502,704.157654 
z"/>
<path fill="#2CA470" opacity="1.000000" stroke="none" 
	d="
M836.323364,1087.017578 
	C835.997375,1083.129761 835.999756,1079.388184 835.999756,1075.646606 
	C836.000000,942.410706 836.002197,809.174805 835.980713,675.938904 
	C835.980347,673.801514 835.690308,671.664124 835.223999,669.239258 
	C845.578857,662.620789 856.196472,656.204224 866.978760,650.077332 
	C868.195129,649.386169 870.422119,650.072205 872.034607,650.581421 
	C874.021484,651.208801 875.855408,652.320435 877.745972,653.930298 
	C877.491028,656.755249 877.033386,658.872375 877.031128,660.990112 
	C876.979553,709.368286 876.977600,757.746582 876.599609,806.057922 
	C874.290283,805.017700 872.347900,804.044312 869.992615,802.864136 
	C869.992615,805.232605 869.992554,807.046997 869.992554,808.861450 
	C869.992554,853.445312 870.169861,898.030640 869.814758,942.611694 
	C869.756836,949.878601 870.900635,955.241821 877.708862,957.987305 
	C876.523621,959.877808 875.101685,961.741089 875.096680,963.608154 
	C874.973206,1009.513123 875.014893,1055.418457 874.955750,1101.323730 
	C874.952820,1103.588623 874.304688,1105.852905 873.957031,1108.117432 
	C865.584656,1103.515015 857.192200,1098.948486 848.848450,1094.294678 
	C844.736084,1092.000977 840.713745,1089.546021 836.323364,1087.017578 
z"/>
<path fill="#52C797" opacity="1.000000" stroke="none" 
	d="
M1106.547607,663.981689 
	C1107.601074,666.382202 1108.904053,668.824341 1108.910645,671.269958 
	C1109.032227,717.042786 1108.993774,762.816040 1109.021362,808.589172 
	C1109.022461,810.554871 1109.335083,812.520386 1109.638184,815.062256 
	C1102.676025,819.700012 1095.567627,823.742737 1088.482788,827.826599 
	C1072.056152,837.295349 1055.664917,846.826355 1039.210205,856.246094 
	C1031.578491,860.615051 1023.832214,864.783752 1015.818481,868.763794 
	C1015.335205,866.518799 1015.029846,864.553345 1015.028015,862.587646 
	C1014.981750,814.010315 1014.967712,765.432983 1014.947876,716.855591 
	C1033.636475,706.068115 1052.333374,695.294922 1071.010620,684.487915 
	C1082.753540,677.693237 1094.467163,670.847717 1106.547607,663.981689 
z"/>
<path fill="#44BA89" opacity="1.000000" stroke="none" 
	d="
M1014.635498,717.024658 
	C1014.967712,765.432983 1014.981750,814.010315 1015.028015,862.587646 
	C1015.029846,864.553345 1015.335205,866.518799 1015.631958,869.063110 
	C1012.407471,871.651917 1008.914185,873.469788 1005.729797,875.724060 
	C1002.265869,878.176331 999.328552,877.478149 995.948914,875.496216 
	C979.483765,865.840759 962.893250,856.399414 946.410156,846.774353 
	C938.853516,842.361816 931.441650,837.701172 924.023315,832.728394 
	C924.391418,830.353027 924.968689,828.402527 924.970337,826.451477 
	C925.011536,778.017578 924.991882,729.583557 924.983093,681.149597 
	C937.043213,687.994690 949.131653,694.790527 961.155457,701.698853 
	C973.204468,708.621582 985.103760,715.812012 997.287476,722.485657 
	C999.264221,723.568481 1002.604797,723.217468 1004.909607,722.394287 
	C1008.241516,721.204163 1011.203369,718.977966 1014.635498,717.024658 
z"/>
<path fill="#34AC79" opacity="1.000000" stroke="none" 
	d="
M874.097656,1108.433838 
	C874.304688,1105.852905 874.952820,1103.588623 874.955750,1101.323730 
	C875.014893,1055.418457 874.973206,1009.513123 875.096680,963.608154 
	C875.101685,961.741089 876.523621,959.877808 878.027100,958.129028 
	C883.195129,960.653381 887.675720,962.967590 892.037659,965.487183 
	C906.252197,973.697693 920.452454,981.933960 934.599304,990.260193 
	C942.142151,994.699585 949.564087,999.344360 957.040588,1003.896423 
	C957.021851,1054.317139 957.003174,1104.737793 956.975952,1155.634766 
	C948.580383,1151.524780 940.123474,1147.060791 931.822876,1142.322998 
	C920.135498,1135.652222 908.564941,1128.776489 896.942444,1121.991821 
	C889.376221,1117.574951 881.806458,1113.164062 874.097656,1108.433838 
z"/>
<path fill="#1B955F" opacity="1.000000" stroke="none" 
	d="
M773.640259,704.200867 
	C773.992737,819.413818 773.996033,934.669983 773.994385,1050.384521 
	C762.298096,1044.221191 750.587280,1037.633179 738.952515,1030.913696 
	C738.030090,1030.380981 737.293762,1029.003174 737.075317,1027.898560 
	C736.758423,1026.296387 736.991699,1024.585327 736.991699,1022.920715 
	C736.991516,926.206360 737.065552,829.491821 736.806885,732.778137 
	C736.791443,727.004578 738.518250,723.799011 743.253174,721.208435 
	C753.340210,715.689697 763.286804,709.914307 773.640259,704.200867 
z"/>
<path fill="#52C797" opacity="1.000000" stroke="none" 
	d="
M1097.895508,972.952026 
	C1098.265259,974.989929 1098.955322,977.027466 1098.958008,979.065857 
	C1099.024292,1027.434326 1099.016479,1075.802734 1099.036133,1124.649170 
	C1075.625366,1138.755249 1052.200928,1152.383301 1028.417480,1166.058350 
	C1027.705566,1163.842163 1027.047974,1161.579468 1027.045044,1159.315918 
	C1026.984863,1113.897095 1027.014160,1068.478271 1026.960815,1023.059570 
	C1026.957886,1020.609924 1026.387451,1018.160889 1026.168945,1014.974854 
	C1050.136353,1000.476074 1074.015991,986.714050 1097.895508,972.952026 
z"/>
<path fill="#34AC79" opacity="1.000000" stroke="none" 
	d="
M924.663879,680.998047 
	C924.991882,729.583557 925.011536,778.017578 924.970337,826.451477 
	C924.968689,828.402527 924.391418,830.353027 923.663940,832.651367 
	C907.819153,824.040955 892.392761,815.082886 876.966431,806.124817 
	C876.977600,757.746582 876.979553,709.368286 877.031128,660.990112 
	C877.033386,658.872375 877.491028,656.755249 877.911133,654.245605 
	C892.890930,662.303589 907.699646,670.747742 922.490540,679.222900 
	C923.189270,679.623230 923.730225,680.298950 924.663879,680.998047 
z"/>
<path fill="#FFFFFF" opacity="1.000000" stroke="none" 
	d="
M876.599609,806.057922 
	C892.392761,815.082886 907.819153,824.040955 923.604858,833.076050 
	C931.441650,837.701172 938.853516,842.361816 946.410156,846.774353 
	C962.893250,856.399414 979.483765,865.840759 995.948914,875.496216 
	C999.328552,877.478149 1002.265869,878.176331 1005.729797,875.724060 
	C1008.914185,873.469788 1012.407471,871.651917 1015.951294,869.342529 
	C1023.832214,864.783752 1031.578491,860.615051 1039.210205,856.246094 
	C1055.664917,846.826355 1072.056152,837.295349 1088.482788,827.826599 
	C1095.567627,823.742737 1102.676025,819.700012 1109.961304,815.337402 
	C1117.239746,811.045044 1124.330566,807.053772 1131.987793,802.743713 
	C1131.987793,815.559326 1131.987793,827.379028 1131.987793,839.198669 
	C1131.987793,875.509460 1131.927612,911.820435 1132.076050,948.130615 
	C1132.091797,952.004395 1130.797119,954.126038 1127.458862,955.927917 
	C1117.634521,961.230713 1107.983398,966.854492 1098.080078,972.652344 
	C1074.015991,986.714050 1050.136353,1000.476074 1026.113281,1014.550842 
	C1019.702576,1018.350037 1013.365784,1021.718628 1007.193481,1025.365723 
	C1003.260254,1027.689697 1000.155212,1028.411743 995.608704,1025.580688 
	C983.289001,1017.909729 970.419067,1011.122437 957.403931,1003.940552 
	C949.564087,999.344360 942.142151,994.699585 934.599304,990.260193 
	C920.452454,981.933960 906.252197,973.697693 892.037659,965.487183 
	C887.675720,962.967590 883.195129,960.653381 878.450562,958.103516 
	C870.900635,955.241821 869.756836,949.878601 869.814758,942.611694 
	C870.169861,898.030640 869.992554,853.445312 869.992554,808.861450 
	C869.992554,807.046997 869.992615,805.232605 869.992615,802.864136 
	C872.347900,804.044312 874.290283,805.017700 876.599609,806.057922 
z"/>
</svg>