<svg version="1.1" id="Layer_1" xmlns="http://www.w3.org/2000/svg" xmlns:xlink="http://www.w3.org/1999/xlink" x="0px" y="0px"
	 width="100%" viewBox="0 0 489 102" enable-background="new 0 0 489 102" xml:space="preserve">
<path fill="#000000" opacity="1.000000" stroke="none" 
	d="
M22.999998,103.000000 
	C15.671551,103.000000 8.343102,103.000000 1.010989,103.000000 
	C1.007326,69.027527 1.007326,35.055058 1.007326,1.045698 
	C164.000000,1.045698 327.000000,1.045698 490.000000,1.045698 
	C490.000000,15.415158 490.000000,29.738920 489.543945,44.534302 
	C486.499054,45.005924 483.910156,45.005924 480.685944,45.005924 
	C480.685944,40.004272 480.685944,35.677536 480.685944,31.481945 
	C472.328033,33.035126 474.422791,39.529629 473.839508,44.683929 
	C471.465332,44.937527 469.397278,45.158428 467.035950,45.410652 
	C467.126831,47.288395 467.203552,48.873329 467.288330,50.624519 
	C469.640778,50.894333 471.694336,51.129860 473.858124,51.378036 
	C473.929352,52.513981 474.023407,53.324360 474.024384,54.134850 
	C474.037445,64.932014 473.977173,75.729698 474.066223,86.526176 
	C474.111023,91.958771 476.181519,93.900627 481.529846,93.956497 
	C484.353088,93.985985 487.176605,93.986435 490.000000,94.000000 
	C490.000000,96.996803 490.000000,99.993607 490.000000,102.995209 
	C356.312439,103.000000 222.624878,103.000000 88.131805,102.751862 
	C90.551933,100.280762 93.777580,98.057793 97.356644,95.798996 
	C100.000191,94.548439 102.540237,93.637032 104.500488,92.021919 
	C106.036751,90.756119 107.819351,88.632431 107.843536,86.867302 
	C108.084854,69.254799 108.052032,51.636883 107.867279,34.022900 
	C107.849960,32.372326 106.668205,30.166296 105.322441,29.214600 
	C102.453308,27.185619 99.121223,25.811300 95.661613,24.090927 
	C94.911491,23.970566 94.478600,23.928001 93.923378,23.603910 
	C93.213409,23.176262 92.625771,23.030140 92.011566,22.519491 
	C89.647728,20.612440 87.485001,18.613169 84.931198,17.637217 
	C81.333183,16.262207 77.606377,16.316984 74.627243,19.970821 
	C73.851974,20.329754 73.384254,20.651217 72.683342,21.002701 
	C72.450157,21.032724 72.010536,21.199566 71.751610,21.162586 
	C71.308487,21.408062 71.124290,21.690516 70.966919,21.985683 
	C70.993752,21.998402 70.983932,21.939838 70.722984,22.016029 
	C70.277802,22.393305 70.093575,22.694389 69.941910,22.989586 
	C69.974472,22.983698 69.938957,22.927845 69.602722,22.969204 
	C68.158806,23.649157 67.051117,24.287752 65.584503,24.965645 
	C62.452080,26.693213 59.678596,28.381485 56.542870,30.056046 
	C48.461502,25.995972 40.742382,21.949606 32.823460,17.571154 
	C30.074522,17.883224 27.525381,18.527386 24.718578,19.145351 
	C24.277571,19.399061 24.094223,19.678965 23.938583,19.969799 
	C23.966290,19.980728 23.941357,19.926727 23.622902,20.069714 
	C20.832333,21.795141 18.360218,23.377581 15.526957,24.987162 
	C12.452030,26.403358 9.738252,27.792416 6.756483,29.153614 
	C6.297264,29.415836 6.106036,29.705917 5.951790,29.993656 
	C5.988771,29.991314 5.983559,29.917387 5.554845,29.981092 
	C4.757394,30.841362 4.069736,31.636705 4.066683,32.434669 
	C3.995157,51.127159 3.984648,69.819962 4.032518,88.512543 
	C4.034493,89.283791 4.711462,90.053314 5.412320,90.893921 
	C7.147970,91.664238 8.545258,92.364273 10.088980,93.381416 
	C13.579844,95.683388 16.994379,97.562584 20.231001,99.709938 
	C21.377115,100.470337 22.089565,101.884377 22.999998,103.000000 
M135.037247,62.500000 
	C135.037247,72.909203 135.037247,83.318405 135.037247,93.558205 
	C140.448318,93.558205 145.020874,93.558205 149.949127,93.558205 
	C149.949127,79.078041 149.949127,65.010208 149.949127,50.942379 
	C153.525894,62.754524 156.258636,74.676353 159.077240,86.577835 
	C159.634567,88.931145 160.143539,92.945312 161.325943,93.202713 
	C165.448639,94.100235 169.897705,94.021927 174.125488,93.510590 
	C175.070312,93.396324 175.756470,90.052185 176.316193,88.123787 
	C177.000320,85.766861 177.401550,83.329102 177.967163,80.936241 
	C180.410370,70.600189 182.868958,60.267769 185.321945,49.934032 
	C185.627838,49.976028 185.933731,50.018024 186.239624,50.060020 
	C186.239624,64.493034 186.239624,78.926041 186.239624,93.506790 
	C191.337708,93.506790 196.025192,93.506790 200.551514,93.506790 
	C200.551514,71.158440 200.551514,49.257114 200.551514,27.180716 
	C193.356094,27.180716 186.564926,27.180716 179.258453,27.180716 
	C175.610352,43.377331 171.969986,59.539623 168.329605,75.701920 
	C168.038971,75.650070 167.748337,75.598228 167.457703,75.546387 
	C163.784729,59.500736 160.111771,43.455090 156.418839,27.322243 
	C149.330856,27.322243 142.430161,27.322243 135.037262,27.322243 
	C135.037262,38.924847 135.037262,50.212425 135.037247,62.500000 
M275.983307,93.848328 
	C282.731171,96.151596 288.849274,94.881943 294.650208,90.356461 
	C294.972717,91.649841 295.253571,92.776062 295.436829,93.511047 
	C300.193787,93.511047 304.425812,93.511047 308.612732,93.511047 
	C308.612732,71.177986 308.612732,49.300159 308.612732,27.385473 
	C304.017822,27.385473 299.788666,27.385473 295.000580,27.385473 
	C295.000580,34.260254 295.000580,40.792366 295.000580,48.001766 
	C286.907257,41.535435 278.962006,41.434574 271.051392,46.130638 
	C264.576752,49.974251 262.402802,56.632973 261.367249,63.586517 
	C259.775238,74.277336 262.717987,88.220650 275.983307,93.848328 
M246.891769,47.499466 
	C240.519928,42.518986 233.226944,41.749844 225.808243,43.824654 
	C214.046661,47.114048 210.326431,54.929768 209.214493,66.342239 
	C208.299438,75.733910 210.197525,84.870956 218.603882,90.866310 
	C226.977890,96.838600 236.076660,96.046310 244.803024,91.856720 
	C250.178406,89.275978 253.707932,84.666008 254.919876,78.245735 
	C253.050140,78.160301 251.726776,78.009857 250.410385,78.056366 
	C246.291412,78.201866 242.321060,77.353676 239.152161,82.011276 
	C236.849777,85.395256 231.961716,84.887085 228.182632,83.073097 
	C224.216171,81.169167 222.733765,77.717453 223.275467,72.817825 
	C234.156815,72.817825 244.893356,72.817825 255.879227,72.817825 
	C256.037720,63.119190 254.950256,54.478176 246.891769,47.499466 
M402.204102,46.486782 
	C399.840118,48.928627 396.891296,51.028591 395.225403,53.878502 
	C390.803436,61.443272 390.067047,69.638565 392.211731,78.204948 
	C395.940277,93.097733 413.092133,99.854568 425.987854,91.500671 
	C434.621338,85.907829 435.839264,77.525108 436.035095,68.189751 
	C436.414215,50.117466 421.277985,38.503265 402.204102,46.486782 
M367.448151,66.030945 
	C364.424652,65.278542 361.363556,64.649651 358.386932,63.743263 
	C354.439514,62.541260 352.023834,59.925381 353.061188,55.629032 
	C353.984955,51.803101 357.042114,50.198132 360.841797,49.948536 
	C369.543274,49.376942 372.536163,51.309387 375.946442,59.558563 
	C378.260651,59.558563 380.487122,59.558563 382.763245,59.558563 
	C381.119751,50.764313 377.735718,45.900978 370.776123,44.586567 
	C366.015747,43.687504 360.779510,43.811459 356.017334,44.772690 
	C349.052063,46.178612 344.971069,51.550514 345.508911,57.703568 
	C346.022614,63.580181 347.997192,68.503052 356.519531,70.215019 
	C361.335663,71.182487 366.248138,72.240959 370.702118,74.201523 
	C372.957031,75.194084 375.764709,78.353897 375.662537,80.401024 
	C375.538300,82.888985 373.113831,86.506706 370.806213,87.422447 
	C361.538086,91.100334 353.562286,89.235695 351.087677,79.359146 
	C348.809814,79.359146 346.557220,79.359146 344.225433,79.359146 
	C343.693298,84.319901 345.784851,87.834412 349.209961,90.422455 
	C356.879181,96.217331 365.481171,96.289391 374.088562,93.224174 
	C380.404358,90.975014 383.225006,85.614471 382.972687,78.292107 
	C382.799561,73.267021 379.871429,70.055908 373.388275,67.794899 
	C371.687866,67.201889 369.980255,66.629486 367.448151,66.030945 
M333.923157,87.368156 
	C333.923157,73.015320 333.923157,58.662483 333.923157,44.501278 
	C328.760712,44.501278 324.546082,44.501278 320.455170,44.501278 
	C320.455170,61.145519 320.455170,77.333038 320.455170,93.577332 
	C325.073883,93.577332 329.292847,93.577332 333.921997,93.577332 
	C333.921997,91.592552 333.921997,89.959732 333.923157,87.368156 
M456.106079,51.950668 
	C457.140320,51.622650 458.204590,50.944466 459.203400,51.030052 
	C462.667633,51.326900 463.981049,49.785061 463.799988,46.448589 
	C460.828094,45.168034 455.851807,47.652271 455.873047,41.399693 
	C455.900482,33.335136 455.625153,33.334198 463.957275,31.088303 
	C463.852051,29.576969 463.742584,28.004684 463.564453,25.446188 
	C459.414337,26.242180 453.748566,25.775240 452.540955,27.873730 
	C449.756195,32.713062 449.135864,38.797909 447.510742,44.849121 
	C446.383575,44.976707 444.314026,45.210960 442.004944,45.472324 
	C442.145294,47.469261 442.256531,49.052280 442.374847,50.735996 
	C444.686615,50.900970 446.620422,51.038975 449.122009,51.217495 
	C449.122009,65.546082 449.122009,79.611053 449.122009,93.592361 
	C451.634705,93.592361 453.547485,93.592361 455.967468,93.592361 
	C455.967468,79.786713 455.967468,66.325562 456.106079,51.950668 
M323.701691,38.837078 
	C328.341064,40.517654 332.355957,38.866398 332.949677,35.026608 
	C333.451416,31.781681 332.662903,28.922235 329.541779,27.528814 
	C326.758331,26.286150 323.894257,26.681736 322.158539,29.547077 
	C320.301605,32.612450 319.978729,35.725094 323.701691,38.837078 
z"/>
<path fill="#39DE99" opacity="1.000000" stroke="none" 
	d="
M15.888104,24.960022 
	C18.360218,23.377581 20.832333,21.795141 23.659767,20.444969 
	C24.880701,21.993816 25.463955,23.717281 26.664881,24.550665 
	C30.266056,27.049707 30.408520,31.842754 28.846914,33.616051 
	C25.288084,37.657310 26.900188,39.621719 30.020596,42.364395 
	C30.019041,43.132633 30.021482,43.572124 29.791019,44.353477 
	C29.361172,53.282066 28.980757,61.870720 29.071293,70.454407 
	C29.101164,73.286316 30.347279,76.105392 31.104179,79.321671 
	C30.829453,87.473244 34.792671,95.265114 31.000000,103.000000 
	C28.629442,103.000000 26.258884,103.000000 23.444160,103.000000 
	C22.089565,101.884377 21.377115,100.470337 20.231001,99.709938 
	C16.994379,97.562584 13.579844,95.683388 10.112182,93.121414 
	C10.658864,92.597466 11.472698,92.423637 11.974565,92.741844 
	C14.586349,94.397820 17.763054,93.297256 17.848688,90.353035 
	C18.015837,84.606247 17.799536,78.848671 17.761198,73.095444 
	C17.708773,65.227463 17.698168,57.359116 17.616255,49.491482 
	C17.594091,47.362949 16.757322,45.004913 17.437452,43.177658 
	C18.050381,41.530945 20.228172,40.466694 21.890234,38.990627 
	C20.195606,37.511448 17.596544,35.681072 17.780865,35.335556 
	C19.523640,32.068710 13.951605,29.235474 17.368614,26.117579 
	C16.875111,25.731726 16.381607,25.345875 15.888104,24.960022 
z"/>
<path fill="#66E1B3" opacity="1.000000" stroke="none" 
	d="
M74.934792,19.933348 
	C77.606377,16.316984 81.333183,16.262207 84.931198,17.637217 
	C87.485001,18.613169 89.647728,20.612440 92.022903,22.819292 
	C92.322784,24.018793 92.584763,24.553965 92.846748,25.089138 
	C93.246399,24.687904 93.646049,24.286671 94.045700,23.885437 
	C94.478600,23.928001 94.911491,23.970566 95.666595,24.499626 
	C95.425682,30.126516 93.663956,35.259163 95.941704,40.421303 
	C96.121834,40.829536 95.921005,41.404919 95.900497,41.902756 
	C95.600464,49.187744 95.321129,56.473656 94.994324,63.757439 
	C94.773705,68.674690 98.917984,74.052109 93.461494,78.473030 
	C93.209335,78.677338 93.599358,79.711014 93.733391,80.349365 
	C94.817505,85.512413 95.911942,90.673294 97.003227,95.834824 
	C93.777580,98.057793 90.551933,100.280762 87.663147,102.751862 
	C86.611107,103.000000 85.222221,103.000000 83.445549,102.620575 
	C86.352379,94.892479 87.625664,78.999550 85.501350,76.116470 
	C82.813225,76.734657 80.377502,77.294800 78.152100,77.556320 
	C79.295364,75.804367 81.012329,74.362083 81.032967,72.895905 
	C81.158791,63.958485 80.899055,55.015636 80.706993,45.764961 
	C79.459572,44.583412 78.273094,43.711498 77.363434,42.699318 
	C80.508316,42.304321 83.376389,42.049591 85.406342,41.869301 
	C85.406342,36.020992 85.406342,30.936811 85.406342,25.387665 
	C84.680450,25.035168 83.237740,24.334576 81.964478,23.716269 
	C82.437836,22.039461 82.835594,20.630465 83.233345,19.221468 
	C81.988777,19.529743 80.758781,19.977587 79.495789,20.109520 
	C78.050087,20.260540 76.575073,20.130924 75.068481,20.075588 
	C75.024162,20.027941 74.934792,19.933348 74.934792,19.933348 
z"/>
<path fill="#2A6ABD" opacity="1.000000" stroke="none" 
	d="
M490.000000,93.571533 
	C487.176605,93.986435 484.353088,93.985985 481.529846,93.956497 
	C476.181519,93.900627 474.111023,91.958771 474.066223,86.526176 
	C473.977173,75.729698 474.037445,64.932014 474.024384,54.134850 
	C474.023407,53.324360 473.929352,52.513981 473.858124,51.378036 
	C471.694336,51.129860 469.640778,50.894333 467.288330,50.624519 
	C467.203552,48.873329 467.126831,47.288395 467.035950,45.410652 
	C469.397278,45.158428 471.465332,44.937527 473.839508,44.683929 
	C474.422791,39.529629 472.328033,33.035126 480.685944,31.481945 
	C480.685944,35.677536 480.685944,40.004272 480.685944,45.005924 
	C483.910156,45.005924 486.499054,45.005924 489.543945,45.002960 
	C490.000000,46.714359 490.000000,48.428715 489.543854,50.558540 
	C486.504608,50.974007 483.921509,50.974007 481.004517,50.974007 
	C481.004517,62.394375 480.857849,73.144333 481.182709,83.880020 
	C481.225220,85.284698 483.474854,87.044693 485.094971,87.847984 
	C486.427490,88.508698 488.342926,87.993835 490.000000,88.000000 
	C490.000000,89.714355 490.000000,91.428719 490.000000,93.571533 
z"/>
<path fill="#000000" opacity="1.000000" stroke="none" 
	d="
M490.000000,87.531342 
	C488.342926,87.993835 486.427490,88.508698 485.094971,87.847984 
	C483.474854,87.044693 481.225220,85.284698 481.182709,83.880020 
	C480.857849,73.144333 481.004517,62.394375 481.004517,50.974007 
	C483.921509,50.974007 486.504608,50.974007 489.543854,50.987003 
	C490.000000,63.020893 490.000000,75.041786 490.000000,87.531342 
z"/>
<path fill="#60E0B0" opacity="1.000000" stroke="none" 
	d="
M77.941788,77.854935 
	C80.377502,77.294800 82.813225,76.734657 85.501350,76.116470 
	C87.625664,78.999550 86.352379,94.892479 83.028885,102.620575 
	C81.611107,103.000000 80.222221,103.000000 78.305275,102.904129 
	C77.480774,102.685059 77.221703,102.748978 77.000000,103.000000 
	C76.555557,103.000000 76.111107,103.000000 75.669685,102.756340 
	C73.511368,101.005516 71.350037,99.498352 69.572685,97.993370 
	C72.968513,98.662392 75.980354,99.329216 79.159172,100.134048 
	C79.550293,99.846893 79.774437,99.421738 79.923798,98.658401 
	C78.232590,95.865631 76.132561,93.589615 75.140953,90.904297 
	C74.219452,88.408836 74.479950,85.476906 74.298401,83.563148 
	C70.525864,84.403488 67.149277,85.155624 63.990288,85.640190 
	C68.494583,82.970650 72.781288,80.568680 77.183182,78.232193 
	C77.586365,78.331032 77.803413,78.214264 77.939148,77.925041 
	C77.928810,77.902710 77.941788,77.854935 77.941788,77.854935 
z"/>
<path fill="#43DF9D" opacity="1.000000" stroke="none" 
	d="
M31.428463,103.000000 
	C34.792671,95.265114 30.829453,87.473244 31.484613,79.335320 
	C36.135944,80.702728 40.473747,82.447815 44.968887,84.484482 
	C47.238537,86.301125 49.350845,87.826195 51.563309,89.423569 
	C50.659611,91.027550 49.869747,92.429497 48.746101,93.974213 
	C47.280678,94.747192 46.026222,95.227730 45.040878,96.036240 
	C42.300770,98.284592 39.672466,100.669205 37.000000,103.000000 
	C35.285641,103.000000 33.571281,103.000000 31.428463,103.000000 
z"/>
<path fill="#000000" opacity="1.000000" stroke="none" 
	d="
M37.468658,103.000000 
	C39.672466,100.669205 42.300770,98.284592 45.040878,96.036240 
	C46.026222,95.227730 47.280678,94.747192 49.103081,94.031845 
	C53.098198,92.683754 56.218773,89.718071 60.322487,93.004150 
	C63.494896,94.772293 66.341797,96.381737 69.188705,97.991180 
	C71.350037,99.498352 73.511368,101.005516 75.336349,102.756340 
	C62.645771,103.000000 50.291546,103.000000 37.468658,103.000000 
z"/>
<path fill="#66E1B3" opacity="1.000000" stroke="none" 
	d="
M77.250000,103.000000 
	C77.221703,102.748978 77.480774,102.685059 77.888611,102.904129 
	C78.000000,103.000000 77.500000,103.000000 77.250000,103.000000 
z"/>
<path fill="#256AC2" opacity="1.000000" stroke="none" 
	d="
M135.037262,62.000000 
	C135.037262,50.212425 135.037262,38.924847 135.037262,27.322243 
	C142.430161,27.322243 149.330856,27.322243 156.418839,27.322243 
	C160.111771,43.455090 163.784729,59.500736 167.457703,75.546387 
	C167.748337,75.598228 168.038971,75.650070 168.329605,75.701920 
	C171.969986,59.539623 175.610352,43.377331 179.258453,27.180716 
	C186.564926,27.180716 193.356094,27.180716 200.551514,27.180716 
	C200.551514,49.257114 200.551514,71.158440 200.551514,93.506790 
	C196.025192,93.506790 191.337708,93.506790 186.239624,93.506790 
	C186.239624,78.926041 186.239624,64.493034 186.239624,50.060020 
	C185.933731,50.018024 185.627838,49.976028 185.321945,49.934032 
	C182.868958,60.267769 180.410370,70.600189 177.967163,80.936241 
	C177.401550,83.329102 177.000320,85.766861 176.316193,88.123787 
	C175.756470,90.052185 175.070312,93.396324 174.125488,93.510590 
	C169.897705,94.021927 165.448639,94.100235 161.325943,93.202713 
	C160.143539,92.945312 159.634567,88.931145 159.077240,86.577835 
	C156.258636,74.676353 153.525894,62.754524 149.949127,50.942379 
	C149.949127,65.010208 149.949127,79.078041 149.949127,93.558205 
	C145.020874,93.558205 140.448318,93.558205 135.037247,93.558205 
	C135.037247,83.318405 135.037247,72.909203 135.037262,62.000000 
z"/>
<path fill="#2569C2" opacity="1.000000" stroke="none" 
	d="
M275.611938,93.708344 
	C262.717987,88.220650 259.775238,74.277336 261.367249,63.586517 
	C262.402802,56.632973 264.576752,49.974251 271.051392,46.130638 
	C278.962006,41.434574 286.907257,41.535435 295.000580,48.001766 
	C295.000580,40.792366 295.000580,34.260254 295.000580,27.385473 
	C299.788666,27.385473 304.017822,27.385473 308.612732,27.385473 
	C308.612732,49.300159 308.612732,71.177986 308.612732,93.511047 
	C304.425812,93.511047 300.193787,93.511047 295.436829,93.511047 
	C295.253571,92.776062 294.972717,91.649841 294.650208,90.356461 
	C288.849274,94.881943 282.731171,96.151596 275.611938,93.708344 
M284.596527,83.060173 
	C288.739777,83.766304 291.203644,81.230652 292.946381,78.175247 
	C296.573273,71.816475 295.983704,65.132378 292.903290,58.848495 
	C290.095612,53.120895 280.868744,52.897308 277.309387,58.253002 
	C274.278809,62.813053 273.394012,74.220039 277.490875,78.890587 
	C279.089752,80.713356 281.648163,81.694405 284.596527,83.060173 
z"/>
<path fill="#2669C0" opacity="1.000000" stroke="none" 
	d="
M247.146133,47.762489 
	C254.950256,54.478176 256.037720,63.119190 255.879227,72.817825 
	C244.893356,72.817825 234.156815,72.817825 223.275467,72.817825 
	C222.733765,77.717453 224.216171,81.169167 228.182632,83.073097 
	C231.961716,84.887085 236.849777,85.395256 239.152161,82.011276 
	C242.321060,77.353676 246.291412,78.201866 250.410385,78.056366 
	C251.726776,78.009857 253.050140,78.160301 254.919876,78.245735 
	C253.707932,84.666008 250.178406,89.275978 244.803024,91.856720 
	C236.076660,96.046310 226.977890,96.838600 218.603882,90.866310 
	C210.197525,84.870956 208.299438,75.733910 209.214493,66.342239 
	C210.326431,54.929768 214.046661,47.114048 225.808243,43.824654 
	C233.226944,41.749844 240.519928,42.518986 247.146133,47.762489 
M239.021439,63.008778 
	C239.531036,61.670773 240.757935,60.113098 240.427002,59.032509 
	C238.934052,54.157646 234.986374,53.327534 230.529739,53.952480 
	C225.622726,54.640587 224.124298,58.295448 222.929779,63.044998 
	C228.267014,63.044998 233.190018,63.044998 239.021439,63.008778 
z"/>
<path fill="#2868BA" opacity="1.000000" stroke="none" 
	d="
M402.546326,46.304077 
	C421.277985,38.503265 436.414215,50.117466 436.035095,68.189751 
	C435.839264,77.525108 434.621338,85.907829 425.987854,91.500671 
	C413.092133,99.854568 395.940277,93.097733 392.211731,78.204948 
	C390.067047,69.638565 390.803436,61.443272 395.225403,53.878502 
	C396.891296,51.028591 399.840118,48.928627 402.546326,46.304077 
M402.392181,55.052975 
	C398.141693,62.713039 396.976624,70.681786 400.018616,79.059143 
	C402.064850,84.694305 407.299591,88.759270 412.786865,89.006706 
	C419.033600,89.288376 424.834961,86.238632 426.784271,80.179062 
	C428.352295,75.304741 429.200378,69.837318 428.760498,64.772659 
	C428.243195,58.816692 425.362549,53.373375 419.158264,50.948975 
	C413.040314,48.558300 407.538818,49.706276 402.392181,55.052975 
z"/>
<path fill="#2968BA" opacity="1.000000" stroke="none" 
	d="
M367.862061,66.039276 
	C369.980255,66.629486 371.687866,67.201889 373.388275,67.794899 
	C379.871429,70.055908 382.799561,73.267021 382.972687,78.292107 
	C383.225006,85.614471 380.404358,90.975014 374.088562,93.224174 
	C365.481171,96.289391 356.879181,96.217331 349.209961,90.422455 
	C345.784851,87.834412 343.693298,84.319901 344.225433,79.359146 
	C346.557220,79.359146 348.809814,79.359146 351.087677,79.359146 
	C353.562286,89.235695 361.538086,91.100334 370.806213,87.422447 
	C373.113831,86.506706 375.538300,82.888985 375.662537,80.401024 
	C375.764709,78.353897 372.957031,75.194084 370.702118,74.201523 
	C366.248138,72.240959 361.335663,71.182487 356.519531,70.215019 
	C347.997192,68.503052 346.022614,63.580181 345.508911,57.703568 
	C344.971069,51.550514 349.052063,46.178612 356.017334,44.772690 
	C360.779510,43.811459 366.015747,43.687504 370.776123,44.586567 
	C377.735718,45.900978 381.119751,50.764313 382.763245,59.558563 
	C380.487122,59.558563 378.260651,59.558563 375.946442,59.558563 
	C372.536163,51.309387 369.543274,49.376942 360.841797,49.948536 
	C357.042114,50.198132 353.984955,51.803101 353.061188,55.629032 
	C352.023834,59.925381 354.439514,62.541260 358.386932,63.743263 
	C361.363556,64.649651 364.424652,65.278542 367.862061,66.039276 
z"/>
<path fill="#6FE2B5" opacity="1.000000" stroke="none" 
	d="
M97.356644,95.798996 
	C95.911942,90.673294 94.817505,85.512413 93.733391,80.349365 
	C93.599358,79.711014 93.209335,78.677338 93.461494,78.473030 
	C98.917984,74.052109 94.773705,68.674690 94.994324,63.757439 
	C95.321129,56.473656 95.600464,49.187744 95.900497,41.902756 
	C95.921005,41.404919 96.121834,40.829536 95.941704,40.421303 
	C93.663956,35.259163 95.425682,30.126516 95.983826,24.577423 
	C99.121223,25.811300 102.453308,27.185619 105.322441,29.214600 
	C106.668205,30.166296 107.849960,32.372326 107.867279,34.022900 
	C108.052032,51.636883 108.084854,69.254799 107.843536,86.867302 
	C107.819351,88.632431 106.036751,90.756119 104.500488,92.021919 
	C102.540237,93.637032 100.000191,94.548439 97.356644,95.798996 
z"/>
<path fill="#32DC94" opacity="1.000000" stroke="none" 
	d="
M15.526957,24.987162 
	C16.381607,25.345875 16.875111,25.731726 17.368614,26.117579 
	C13.951605,29.235474 19.523640,32.068710 17.780865,35.335556 
	C17.596544,35.681072 20.195606,37.511448 21.890234,38.990627 
	C20.228172,40.466694 18.050381,41.530945 17.437452,43.177658 
	C16.757322,45.004913 17.594091,47.362949 17.616255,49.491482 
	C17.698168,57.359116 17.708773,65.227463 17.761198,73.095444 
	C17.799536,78.848671 18.015837,84.606247 17.848688,90.353035 
	C17.763054,93.297256 14.586349,94.397820 11.974565,92.741844 
	C11.472698,92.423637 10.658864,92.597466 9.965748,92.804306 
	C8.545258,92.364273 7.147970,91.664238 5.403327,90.436829 
	C5.046023,72.693130 4.993439,55.476624 5.069218,38.260681 
	C5.081465,35.478294 5.664414,32.698421 5.983559,29.917387 
	C5.983559,29.917387 5.988771,29.991314 6.167386,29.903519 
	C6.618138,29.653490 6.844296,29.442074 7.024474,29.181473 
	C9.738252,27.792416 12.452030,26.403358 15.526957,24.987162 
z"/>
<path fill="#2769BD" opacity="1.000000" stroke="none" 
	d="
M333.922577,87.847534 
	C333.921997,89.959732 333.921997,91.592552 333.921997,93.577332 
	C329.292847,93.577332 325.073883,93.577332 320.455170,93.577332 
	C320.455170,77.333038 320.455170,61.145519 320.455170,44.501278 
	C324.546082,44.501278 328.760712,44.501278 333.923157,44.501278 
	C333.923157,58.662483 333.923157,73.015320 333.922577,87.847534 
z"/>
<path fill="#2768BB" opacity="1.000000" stroke="none" 
	d="
M456.036774,52.407539 
	C455.967468,66.325562 455.967468,79.786713 455.967468,93.592361 
	C453.547485,93.592361 451.634705,93.592361 449.122009,93.592361 
	C449.122009,79.611053 449.122009,65.546082 449.122009,51.217495 
	C446.620422,51.038975 444.686615,50.900970 442.374847,50.735996 
	C442.256531,49.052280 442.145294,47.469261 442.004944,45.472324 
	C444.314026,45.210960 446.383575,44.976707 447.510742,44.849121 
	C449.135864,38.797909 449.756195,32.713062 452.540955,27.873730 
	C453.748566,25.775240 459.414337,26.242180 463.564453,25.446188 
	C463.742584,28.004684 463.852051,29.576969 463.957275,31.088303 
	C455.625153,33.334198 455.900482,33.335136 455.873047,41.399693 
	C455.851807,47.652271 460.828094,45.168034 463.799988,46.448589 
	C463.981049,49.785061 462.667633,51.326900 459.203400,51.030052 
	C458.204590,50.944466 457.140320,51.622650 456.036774,52.407539 
z"/>
<path fill="#40DF9C" opacity="1.000000" stroke="none" 
	d="
M30.024593,42.035645 
	C26.900188,39.621719 25.288084,37.657310 28.846914,33.616051 
	C30.408520,31.842754 30.266056,27.049707 26.664881,24.550665 
	C25.463955,23.717281 24.880701,21.993816 23.978222,20.301983 
	C23.941357,19.926727 23.966290,19.980728 24.134861,19.865154 
	C24.553911,19.587410 24.778183,19.394733 24.976242,19.171547 
	C27.525381,18.527386 30.074522,17.883224 32.895061,17.916019 
	C33.486126,19.152483 33.691315,19.837307 34.144176,20.251011 
	C36.922783,22.789366 41.818119,31.354872 42.541996,35.130585 
	C42.725971,36.090202 42.836063,37.063980 42.793922,38.235775 
	C42.098705,38.643642 41.589668,38.846989 40.829445,38.875431 
	C39.051781,39.805592 37.525303,40.910652 35.851910,42.193096 
	C35.475399,42.584499 35.209206,42.732864 34.696064,42.672668 
	C33.658302,42.675125 32.830898,42.820496 31.794579,42.779427 
	C31.065308,42.407207 30.544950,42.221428 30.024593,42.035645 
z"/>
<path fill="#59DDAB" opacity="1.000000" stroke="none" 
	d="
M72.010536,21.199566 
	C72.010536,21.199566 72.450157,21.032724 73.027466,21.015226 
	C74.063469,21.014370 74.522171,21.031013 74.950531,21.390888 
	C71.945068,24.563517 70.878670,27.598949 73.116699,31.544027 
	C73.502312,32.223763 72.142570,34.348080 71.106697,35.252853 
	C70.056122,36.170464 68.408012,36.403957 66.688095,36.842033 
	C63.230095,34.790234 60.105610,32.833473 56.970135,30.674221 
	C56.959141,30.471725 56.905109,30.069754 56.905109,30.069756 
	C59.678596,28.381485 62.452080,26.693213 65.836014,25.163427 
	C67.610626,24.523891 68.774796,23.725870 69.938957,22.927845 
	C69.938957,22.927845 69.974472,22.983698 70.139679,22.832645 
	C70.531242,22.434343 70.757584,22.187090 70.983932,21.939838 
	C70.983932,21.939838 70.993752,21.998402 71.158936,21.875423 
	C71.580116,21.601900 71.808922,21.417606 72.010536,21.199566 
z"/>
<path fill="#4CD8A6" opacity="1.000000" stroke="none" 
	d="
M56.542870,30.056046 
	C56.905109,30.069754 56.959141,30.471725 56.622559,30.759499 
	C51.850685,33.375267 47.415398,35.703262 42.980106,38.031258 
	C42.836063,37.063980 42.725971,36.090202 42.541996,35.130585 
	C41.818119,31.354872 36.922783,22.789366 34.144176,20.251011 
	C33.691315,19.837307 33.486126,19.152483 33.094860,18.248108 
	C40.742382,21.949606 48.461502,25.995972 56.542870,30.056046 
z"/>
<path fill="#2968BB" opacity="1.000000" stroke="none" 
	d="
M323.376373,38.613968 
	C319.978729,35.725094 320.301605,32.612450 322.158539,29.547077 
	C323.894257,26.681736 326.758331,26.286150 329.541779,27.528814 
	C332.662903,28.922235 333.451416,31.781681 332.949677,35.026608 
	C332.355957,38.866398 328.341064,40.517654 323.376373,38.613968 
z"/>
<path fill="#5EC199" opacity="1.000000" stroke="none" 
	d="
M5.554845,29.981092 
	C5.664414,32.698421 5.081465,35.478294 5.069218,38.260681 
	C4.993439,55.476624 5.046023,72.693130 5.064965,90.366547 
	C4.711462,90.053314 4.034493,89.283791 4.032518,88.512543 
	C3.984648,69.819962 3.995157,51.127159 4.066683,32.434669 
	C4.069736,31.636705 4.757394,30.841362 5.554845,29.981092 
z"/>
<path fill="#5EE0AE" opacity="1.000000" stroke="none" 
	d="
M69.602722,22.969204 
	C68.774796,23.725870 67.610626,24.523891 66.194946,25.124130 
	C67.051117,24.287752 68.158806,23.649157 69.602722,22.969204 
z"/>
<path fill="#6FE2B5" opacity="1.000000" stroke="none" 
	d="
M93.923378,23.603910 
	C93.646049,24.286671 93.246399,24.687904 92.846748,25.089138 
	C92.584763,24.553965 92.322784,24.018793 92.049461,23.183819 
	C92.625771,23.030140 93.213409,23.176262 93.923378,23.603910 
z"/>
<path fill="#66E1B3" opacity="1.000000" stroke="none" 
	d="
M74.980873,21.047657 
	C74.522171,21.031013 74.063469,21.014370 73.260651,20.985203 
	C73.384254,20.651217 73.851974,20.329754 74.627243,19.970821 
	C74.934792,19.933348 75.024162,20.027941 75.034424,20.306210 
	C75.044678,20.584478 74.980873,21.047657 74.980873,21.047657 
z"/>
<path fill="#5EC199" opacity="1.000000" stroke="none" 
	d="
M6.756483,29.153614 
	C6.844296,29.442074 6.618138,29.653490 6.130404,29.905861 
	C6.106036,29.705917 6.297264,29.415836 6.756483,29.153614 
z"/>
<path fill="#66E1B3" opacity="1.000000" stroke="none" 
	d="
M70.722984,22.016029 
	C70.757584,22.187090 70.531242,22.434343 70.107117,22.838535 
	C70.093575,22.694389 70.277802,22.393305 70.722984,22.016029 
z"/>
<path fill="#66E1B3" opacity="1.000000" stroke="none" 
	d="
M71.751610,21.162586 
	C71.808922,21.417606 71.580116,21.601900 71.132111,21.862705 
	C71.124290,21.690516 71.308487,21.408062 71.751610,21.162586 
z"/>
<path fill="#39DE99" opacity="1.000000" stroke="none" 
	d="
M24.718578,19.145351 
	C24.778183,19.394733 24.553911,19.587410 24.107155,19.854223 
	C24.094223,19.678965 24.277571,19.399061 24.718578,19.145351 
z"/>
<path fill="#52D0B8" opacity="1.000000" stroke="none" 
	d="
M44.811550,84.192902 
	C40.473747,82.447815 36.135944,80.702728 31.417709,78.943985 
	C30.347279,76.105392 29.101164,73.286316 29.071293,70.454407 
	C28.980757,61.870720 29.361172,53.282066 30.146299,44.378788 
	C31.206835,44.116486 31.679186,44.170738 32.004578,44.410309 
	C31.664476,45.146065 31.471334,45.696507 31.172295,46.681568 
	C31.018541,55.054066 30.706430,63.004898 31.094553,70.921394 
	C31.201729,73.107483 32.949303,75.728043 34.728436,77.203842 
	C37.868298,79.808388 41.610771,81.686462 45.029175,83.950211 
	C44.957375,84.031769 44.811550,84.192902 44.811550,84.192902 
z"/>
<path fill="#4CD8A6" opacity="1.000000" stroke="none" 
	d="
M32.151535,44.224995 
	C31.679186,44.170738 31.206835,44.116486 30.379204,44.036919 
	C30.021482,43.572124 30.019041,43.132633 30.020597,42.364395 
	C30.544950,42.221428 31.065308,42.407207 31.821415,43.075676 
	C32.085514,43.754364 32.113857,43.950371 32.144981,44.165470 
	C32.147762,44.184566 32.151535,44.224995 32.151535,44.224995 
z"/>
<path fill="#317BDA" opacity="1.000000" stroke="none" 
	d="
M77.068001,78.166718 
	C72.781288,80.568680 68.494583,82.970650 63.687576,85.703377 
	C62.093464,86.660141 61.019661,87.286140 59.604855,87.989059 
	C58.149170,88.390228 57.034492,88.714493 55.940498,88.566849 
	C55.981911,78.720543 56.002640,69.346138 56.314995,59.799129 
	C64.660393,55.109215 72.714165,50.591908 80.767929,46.074596 
	C80.899055,55.015636 81.158791,63.958485 81.032967,72.895905 
	C81.012329,74.362083 79.295364,75.804367 78.152100,77.556320 
	C77.941788,77.854935 77.928810,77.902710 77.708389,77.938705 
	C77.487976,77.974693 77.068001,78.166718 77.068001,78.166718 
z"/>
<path fill="#216DC4" opacity="1.000000" stroke="none" 
	d="
M80.706985,45.764961 
	C72.714165,50.591908 64.660393,55.109215 55.998142,59.653740 
	C47.352505,55.202950 39.315346,50.724949 31.278191,46.246944 
	C31.471334,45.696507 31.664476,45.146065 32.004578,44.410309 
	C32.151535,44.224995 32.147762,44.184566 32.448090,44.104782 
	C33.467754,43.621861 34.187084,43.218719 34.906418,42.815578 
	C35.209206,42.732864 35.475399,42.584499 36.177834,42.127571 
	C38.127323,40.939888 39.603981,39.995113 41.080635,39.050331 
	C41.589668,38.846989 42.098705,38.643642 42.793922,38.235779 
	C47.415398,35.703262 51.850685,33.375267 56.633553,30.961992 
	C60.105610,32.833473 63.230095,34.790234 66.947098,37.063660 
	C70.721954,39.200081 73.904282,41.019829 77.086617,42.839581 
	C78.273094,43.711498 79.459572,44.583412 80.706985,45.764961 
z"/>
<path fill="#5EE0AE" opacity="1.000000" stroke="none" 
	d="
M77.363434,42.699318 
	C73.904282,41.019829 70.721954,39.200081 67.280617,37.158703 
	C68.408012,36.403957 70.056122,36.170464 71.106697,35.252853 
	C72.142570,34.348080 73.502312,32.223763 73.116699,31.544027 
	C70.878670,27.598949 71.945068,24.563517 74.950531,21.390888 
	C74.980873,21.047657 75.044678,20.584478 75.078735,20.353859 
	C76.575073,20.130924 78.050087,20.260540 79.495789,20.109520 
	C80.758781,19.977587 81.988777,19.529743 83.233345,19.221468 
	C82.835594,20.630465 82.437836,22.039461 81.964478,23.716269 
	C83.237740,24.334576 84.680450,25.035168 85.406342,25.387665 
	C85.406342,30.936811 85.406342,36.020992 85.406342,41.869301 
	C83.376389,42.049591 80.508316,42.304321 77.363434,42.699318 
z"/>
<path fill="#5ADFAB" opacity="1.000000" stroke="none" 
	d="
M59.945858,87.912148 
	C61.019661,87.286140 62.093464,86.660141 63.469986,85.970947 
	C67.149277,85.155624 70.525864,84.403488 74.298401,83.563148 
	C74.479950,85.476906 74.219452,88.408836 75.140953,90.904297 
	C76.132561,93.589615 78.232590,95.865631 79.735062,98.802933 
	C79.380898,99.495354 79.171257,99.732162 78.992203,99.996048 
	C75.980354,99.329216 72.968513,98.662392 69.572685,97.993370 
	C66.341797,96.381737 63.494896,94.772293 60.321659,92.594055 
	C59.978840,90.654221 59.962349,89.283180 59.945858,87.912148 
z"/>
<path fill="#66E1B3" opacity="1.000000" stroke="none" 
	d="
M79.159172,100.134048 
	C79.171257,99.732162 79.380898,99.495354 79.809853,99.141106 
	C79.774437,99.421738 79.550293,99.846893 79.159172,100.134048 
z"/>
<path fill="#66E1B3" opacity="1.000000" stroke="none" 
	d="
M77.183182,78.232193 
	C77.068001,78.166718 77.487976,77.974693 77.718735,77.961029 
	C77.803413,78.214264 77.586365,78.331032 77.183182,78.232193 
z"/>
<path fill="#52D0B8" opacity="1.000000" stroke="none" 
	d="
M59.604855,87.989059 
	C59.962349,89.283180 59.978840,90.654221 59.996159,92.435349 
	C56.218773,89.718071 53.098198,92.683754 49.436863,93.889076 
	C49.869747,92.429497 50.659611,91.027550 51.563309,89.423569 
	C49.350845,87.826195 47.238537,86.301125 44.968887,84.484482 
	C44.811550,84.192902 44.957375,84.031769 45.365673,84.045944 
	C49.155918,85.719673 52.537868,87.379211 55.919815,89.038757 
	C57.034492,88.714493 58.149170,88.390228 59.604855,87.989059 
z"/>
<path fill="#000000" opacity="1.000000" stroke="none" 
	d="
M284.183044,83.059494 
	C281.648163,81.694405 279.089752,80.713356 277.490875,78.890587 
	C273.394012,74.220039 274.278809,62.813053 277.309387,58.253002 
	C280.868744,52.897308 290.095612,53.120895 292.903290,58.848495 
	C295.983704,65.132378 296.573273,71.816475 292.946381,78.175247 
	C291.203644,81.230652 288.739777,83.766304 284.183044,83.059494 
z"/>
<path fill="#000000" opacity="1.000000" stroke="none" 
	d="
M238.567230,63.026886 
	C233.190018,63.044998 228.267014,63.044998 222.929779,63.044998 
	C224.124298,58.295448 225.622726,54.640587 230.529739,53.952480 
	C234.986374,53.327534 238.934052,54.157646 240.427002,59.032509 
	C240.757935,60.113098 239.531036,61.670773 238.567230,63.026886 
z"/>
<path fill="#000000" opacity="1.000000" stroke="none" 
	d="
M402.652954,54.777328 
	C407.538818,49.706276 413.040314,48.558300 419.158264,50.948975 
	C425.362549,53.373375 428.243195,58.816692 428.760498,64.772659 
	C429.200378,69.837318 428.352295,75.304741 426.784271,80.179062 
	C424.834961,86.238632 419.033600,89.288376 412.786865,89.006706 
	C407.299591,88.759270 402.064850,84.694305 400.018616,79.059143 
	C396.976624,70.681786 398.141693,62.713039 402.652954,54.777328 
z"/>
<path fill="#4CD8A6" opacity="1.000000" stroke="none" 
	d="
M40.829445,38.875435 
	C39.603981,39.995113 38.127323,40.939888 36.324745,41.950188 
	C37.525303,40.910652 39.051781,39.805592 40.829445,38.875435 
z"/>
<path fill="#52D0B8" opacity="1.000000" stroke="none" 
	d="
M34.696064,42.672668 
	C34.187084,43.218719 33.467754,43.621861 32.445312,44.085686 
	C32.113857,43.950371 32.085514,43.754364 32.030327,43.262112 
	C32.830898,42.820496 33.658302,42.675125 34.696064,42.672668 
z"/>
<path fill="#448ADD" opacity="1.000000" stroke="none" 
	d="
M55.940498,88.566849 
	C52.537868,87.379211 49.155918,85.719673 45.437477,83.964386 
	C41.610771,81.686462 37.868298,79.808388 34.728436,77.203842 
	C32.949303,75.728043 31.201729,73.107483 31.094553,70.921394 
	C30.706430,63.004898 31.018541,55.054066 31.172297,46.681568 
	C39.315346,50.724949 47.352505,55.202950 55.706512,59.826340 
	C56.002640,69.346138 55.981911,78.720543 55.940498,88.566849 
z"/>
</svg>