<svg width="122" height="41" viewBox="0 0 122 41" fill="none" xmlns="http://www.w3.org/2000/svg">
<rect x="0.72168" y="30.2699" width="8.40218" height="7.98445" rx="3.99222" transform="rotate(-59.7644 0.72168 30.2699)" fill="#00A1FF"/>
<rect opacity="0.25" x="18.9902" y="34.2905" width="27.238" height="7.98445" rx="3.99222" transform="rotate(-120 18.9902 34.2905)" fill="#00A1FF"/>
<rect opacity="0.25" x="32.3638" y="34.2905" width="27.238" height="7.98445" rx="3.99222" transform="rotate(-120 32.3638 34.2905)" fill="#00A1FF"/>
<rect x="14.9692" y="27.3262" width="19.1962" height="7.98445" rx="3.99222" transform="rotate(-120 14.9692 27.3262)" fill="#00A1FF"/>
<rect x="28.415" y="27.4518" width="19.3412" height="7.98445" rx="3.99222" transform="rotate(-120 28.415 27.4518)" fill="#00A1FF"/>
<path d="M49.5781 12.5H53.125L57.875 24.0937H58.0625L62.8125 12.5H66.3594V28.5H63.5781V17.5078H63.4297L59.0078 28.4531H56.9297L52.5078 17.4844H52.3594V28.5H49.5781V12.5ZM74.7175 28.5H69.2956V12.5H74.8269C76.4154 12.5 77.78 12.8203 78.9206 13.4609C80.0665 14.0964 80.9467 15.0104 81.5613 16.2031C82.1758 17.3958 82.4831 18.8229 82.4831 20.4844C82.4831 22.151 82.1732 23.5833 81.5534 24.7812C80.9389 25.9792 80.0508 26.8984 78.8894 27.5391C77.7331 28.1797 76.3425 28.5 74.7175 28.5ZM72.1941 25.9922H74.5769C75.6915 25.9922 76.6211 25.7891 77.3659 25.3828C78.1107 24.9714 78.6706 24.3594 79.0456 23.5469C79.4206 22.7292 79.6081 21.7083 79.6081 20.4844C79.6081 19.2604 79.4206 18.2448 79.0456 17.4375C78.6706 16.625 78.1159 16.0182 77.3816 15.6172C76.6524 15.2109 75.7461 15.0078 74.6628 15.0078H72.1941V25.9922ZM88.3452 28.7422C87.5847 28.7422 86.8998 28.6068 86.2905 28.3359C85.6863 28.0599 85.2071 27.6536 84.853 27.1172C84.504 26.5807 84.3295 25.9193 84.3295 25.1328C84.3295 24.4557 84.4545 23.8958 84.7045 23.4531C84.9545 23.0104 85.2957 22.6562 85.728 22.3906C86.1603 22.125 86.6472 21.9245 87.1889 21.7891C87.7358 21.6484 88.3009 21.5469 88.8842 21.4844C89.5873 21.4115 90.1577 21.3464 90.5952 21.2891C91.0327 21.2266 91.3504 21.1328 91.5483 21.0078C91.7514 20.8776 91.853 20.6771 91.853 20.4062V20.3594C91.853 19.7708 91.6785 19.3151 91.3295 18.9922C90.9806 18.6693 90.478 18.5078 89.8217 18.5078C89.129 18.5078 88.5795 18.6589 88.1733 18.9609C87.7722 19.263 87.5014 19.6198 87.3608 20.0312L84.7202 19.6562C84.9285 18.9271 85.2722 18.3177 85.7514 17.8281C86.2306 17.3333 86.8165 16.9635 87.5092 16.7187C88.2019 16.4688 88.9676 16.3438 89.8061 16.3438C90.3842 16.3438 90.9597 16.4115 91.5327 16.5469C92.1056 16.6823 92.629 16.9062 93.103 17.2187C93.5769 17.526 93.9571 17.9453 94.2436 18.4766C94.5353 19.0078 94.6811 19.6719 94.6811 20.4687V28.5H91.9623V26.8516H91.8686C91.6967 27.1849 91.4545 27.4974 91.142 27.7891C90.8347 28.0755 90.4467 28.3073 89.978 28.4844C89.5144 28.6563 88.9702 28.7422 88.3452 28.7422ZM89.0795 26.6641C89.6472 26.6641 90.1394 26.5521 90.5561 26.3281C90.9728 26.099 91.2931 25.7969 91.517 25.4219C91.7462 25.0469 91.8608 24.638 91.8608 24.1953V22.7812C91.7722 22.8542 91.6212 22.9219 91.4077 22.9844C91.1993 23.0469 90.9649 23.1016 90.7045 23.1484C90.4441 23.1953 90.1863 23.237 89.9311 23.2734C89.6759 23.3099 89.4545 23.3411 89.267 23.3672C88.8452 23.4245 88.4676 23.5182 88.1342 23.6484C87.8009 23.7786 87.5379 23.9609 87.3452 24.1953C87.1524 24.4245 87.0561 24.7214 87.0561 25.0859C87.0561 25.6068 87.2462 26 87.6264 26.2656C88.0066 26.5312 88.491 26.6641 89.0795 26.6641ZM106.789 19.6719L104.211 19.9531C104.138 19.6927 104.011 19.4479 103.828 19.2188C103.651 18.9896 103.412 18.8047 103.11 18.6641C102.807 18.5234 102.438 18.4531 102 18.4531C101.412 18.4531 100.917 18.5807 100.516 18.8359C100.12 19.0911 99.9246 19.4219 99.9298 19.8281C99.9246 20.1771 100.052 20.4609 100.313 20.6797C100.578 20.8984 101.016 21.0781 101.625 21.2188L103.672 21.6562C104.807 21.901 105.651 22.2891 106.203 22.8203C106.761 23.3516 107.042 24.0469 107.047 24.9062C107.042 25.6615 106.82 26.3281 106.383 26.9062C105.951 27.4792 105.349 27.9271 104.578 28.25C103.807 28.5729 102.922 28.7344 101.922 28.7344C100.453 28.7344 99.271 28.4271 98.3752 27.8125C97.4793 27.1927 96.9455 26.3307 96.7736 25.2266L99.5314 24.9609C99.6564 25.5026 99.922 25.9115 100.328 26.1875C100.735 26.4635 101.263 26.6016 101.914 26.6016C102.586 26.6016 103.125 26.4635 103.531 26.1875C103.943 25.9115 104.149 25.5703 104.149 25.1641C104.149 24.8203 104.016 24.5365 103.75 24.3125C103.49 24.0885 103.083 23.9167 102.531 23.7969L100.485 23.3672C99.3335 23.1276 98.4819 22.724 97.9298 22.1562C97.3778 21.5833 97.1043 20.8594 97.1095 19.9844C97.1043 19.2448 97.3048 18.6042 97.7111 18.0625C98.1226 17.5156 98.6929 17.0937 99.422 16.7969C100.156 16.4948 101.003 16.3438 101.961 16.3438C103.367 16.3438 104.474 16.6432 105.281 17.2422C106.094 17.8411 106.597 18.651 106.789 19.6719ZM111.987 21.4687V28.5H109.159V12.5H111.925V18.5391H112.065C112.347 17.862 112.781 17.3281 113.37 16.9375C113.964 16.5417 114.719 16.3438 115.636 16.3438C116.469 16.3438 117.196 16.5182 117.815 16.8672C118.435 17.2161 118.914 17.7266 119.253 18.3984C119.597 19.0703 119.768 19.8906 119.768 20.8594V28.5H116.94V21.2969C116.94 20.4896 116.732 19.862 116.315 19.4141C115.904 18.9609 115.326 18.7344 114.581 18.7344C114.081 18.7344 113.633 18.8437 113.237 19.0625C112.847 19.276 112.539 19.5859 112.315 19.9922C112.097 20.3984 111.987 20.8906 111.987 21.4687Z" fill="white"/>
</svg>
