<?xml version="1.0" standalone="no"?>
<!DOCTYPE svg PUBLIC "-//W3C//DTD SVG 20010904//EN"
 "http://www.w3.org/TR/2001/REC-SVG-20010904/DTD/svg10.dtd">
<svg version="1.0" xmlns="http://www.w3.org/2000/svg"
 width="8000.000000pt" height="6000.000000pt" viewBox="0 0 8000.000000 6000.000000"
 preserveAspectRatio="xMidYMid meet">

<g transform="translate(0.000000,6000.000000) scale(0.100000,-0.100000)"
fill="#000000" stroke="none">
<path d="M50260 52308 c0 -761 15 -2129 23 -2134 1 -1 184 2 407 7 1013 19
1905 -29 2729 -147 135 -19 246 -36 248 -37 1 -2 -4 -37 -11 -78 -59 -305
-116 -842 -148 -1379 -15 -252 -17 -1461 -4 -2682 l9 -878 2649 0 2648 0 0
2243 c0 2026 -5 2624 -26 2814 l-5 52 -145 125 -145 125 -62 5 c-63 6 -379 17
-1047 38 -503 15 -1980 15 -2390 -1 -642 -24 -1199 -58 -1665 -101 -115 -11
-217 -20 -227 -20 -15 0 -11 11 22 65 168 274 262 569 312 975 10 78 12 240 9
635 -3 292 -5 709 -5 928 l-1 397 -1587 0 -1588 0 0 -952z"/>
<path d="M40014 52858 c-1019 -1156 -1706 -1857 -2409 -2458 -538 -460 -1021
-810 -1555 -1130 -261 -156 -399 -230 -809 -434 -532 -264 -852 -400 -1306
-551 -1642 -549 -3515 -702 -5987 -489 -109 10 -201 14 -205 10 -8 -8 -57
-1100 -72 -1621 -40 -1398 -11 -2325 104 -3300 41 -339 129 -880 179 -1099 30
-129 251 -443 513 -731 270 -296 564 -553 1178 -1032 396 -309 557 -438 712
-570 l132 -112 158 181 c682 786 1084 1250 1947 2248 545 630 1097 1268 1228
1419 134 153 238 282 238 293 0 26 -13 80 -72 292 -72 262 -82 352 -82 721 -1
401 23 579 120 900 247 815 871 1314 1773 1416 170 19 478 7 631 -26 309 -65
598 -203 843 -403 86 -71 264 -253 328 -337 216 -281 366 -600 443 -942 42
-189 51 -276 51 -513 -1 -186 -5 -246 -22 -345 -73 -401 -245 -737 -520 -1007
-352 -348 -792 -543 -1409 -623 -124 -17 -147 -17 -410 -1 -381 23 -598 30
-666 22 l-56 -7 -128 -157 c-308 -377 -530 -632 -1184 -1362 -885 -989 -1275
-1459 -1662 -2000 -178 -249 -429 -630 -428 -648 1 -4 40 -29 88 -57 87 -50
596 -388 837 -556 683 -476 1046 -701 1449 -900 252 -125 695 -299 760 -299
20 0 698 717 1192 1260 846 931 1582 1772 2854 3259 1560 1825 2136 2495 2522
2933 l138 157 -24 64 c-171 455 -217 1077 -115 1577 135 667 496 1169 1034
1438 518 258 1177 288 1750 80 506 -184 913 -544 1141 -1008 94 -190 152 -372
191 -595 24 -144 24 -526 -1 -685 -142 -904 -665 -1477 -1561 -1710 -128 -33
-372 -75 -524 -90 -128 -12 -603 -13 -731 0 -52 5 -126 12 -165 15 l-70 5
-220 -251 c-121 -139 -337 -385 -480 -548 -488 -557 -1510 -1726 -1916 -2191
-344 -396 -560 -645 -1293 -1489 -302 -348 -480 -554 -992 -1146 -313 -363
-740 -858 -949 -1100 -208 -242 -437 -506 -507 -587 -119 -137 -141 -168 -120
-168 5 0 94 -44 198 -98 104 -54 306 -159 449 -232 143 -73 319 -163 390 -200
285 -149 2057 -1031 2065 -1028 8 3 435 491 940 1073 448 517 1058 1233 1402
1646 l97 115 -20 64 c-54 175 -104 412 -135 640 -24 176 -24 589 0 755 65 448
196 785 421 1084 83 110 255 280 367 364 573 427 1331 542 1995 301 669 -242
1232 -886 1378 -1576 123 -579 -27 -1229 -397 -1728 -91 -123 -298 -327 -416
-410 -338 -239 -814 -397 -1354 -450 -190 -19 -484 -15 -657 9 -84 11 -183 21
-220 20 l-66 0 -326 -382 c-503 -587 -936 -1097 -1533 -1802 -102 -121 -186
-223 -186 -226 0 -12 840 -327 1438 -540 2516 -896 4624 -1409 6615 -1609 169
-17 357 -32 418 -33 l110 -2 100 180 c55 99 121 218 146 265 26 47 54 99 63
115 18 33 72 134 235 440 167 316 589 1170 748 1515 356 774 655 1493 909
2190 161 440 336 967 462 1391 31 103 58 193 61 201 5 14 -190 16 -1672 22
-923 4 -1766 11 -1873 14 l-195 7 275 8 c151 4 721 14 1265 22 1220 18 2268
46 2284 61 2 2 2 6 0 9 -3 2 -234 10 -515 16 -345 8 -968 9 -1932 5 l-1423 -6
1 3455 1 3455 2178 0 c1198 0 2294 3 2436 7 l257 6 -6 256 c-4 141 -11 456
-16 701 -14 596 -57 1849 -64 1857 -1 1 -251 -11 -556 -27 -992 -53 -1217 -61
-1765 -67 -1406 -15 -2302 97 -3425 429 -1521 448 -3008 1273 -4325 2397 -282
240 -434 381 -806 741 -190 184 -589 615 -824 890 -149 174 -440 537 -569 710
-60 80 -114 151 -121 158 -10 11 -47 -26 -191 -190z"/>
<path d="M26960 50120 c-514 -15 -1063 -40 -1205 -55 -2060 -218 -3428 -876
-4158 -2001 -80 -123 -117 -197 -172 -339 -114 -295 -185 -595 -220 -937 -17
-171 -20 -567 -5 -738 94 -1042 509 -2095 1276 -3241 1202 -1795 2828 -3482
5074 -5260 421 -333 1051 -813 1195 -908 44 -30 107 -75 140 -101 74 -59 245
-234 307 -316 185 -242 345 -556 563 -1109 215 -544 617 -1421 942 -2055 1693
-3301 4004 -6090 6738 -8135 934 -698 1925 -1319 2332 -1459 187 -64 279 -78
481 -74 169 4 181 5 272 37 107 36 98 32 455 238 1243 717 2300 1472 3335
2380 297 261 499 450 814 762 563 559 971 1010 1428 1581 99 124 186 231 192
238 10 10 69 5 312 -28 1669 -226 2486 -298 3480 -307 554 -5 775 1 1179 33
952 74 1845 276 2615 591 564 231 830 381 1130 638 763 652 1198 1660 1140
2640 -16 265 -90 700 -176 1025 -259 991 -763 1958 -1603 3080 -140 186 -154
204 -384 492 -230 287 -499 607 -909 1083 -15 17 -30 27 -34 23 -4 -5 -1 -16
8 -25 8 -10 45 -72 83 -138 86 -151 118 -206 360 -610 206 -343 393 -662 478
-815 559 -1004 799 -1762 800 -2525 0 -504 -92 -927 -279 -1285 -239 -454
-644 -860 -1174 -1175 -406 -241 -896 -435 -1413 -560 -317 -77 -871 -140
-1617 -187 -276 -17 -1354 -17 -1640 0 -585 35 -1036 76 -1505 138 -1832 240
-3735 724 -6090 1549 -546 192 -736 263 -1239 462 -1907 755 -3753 1623 -5411
2546 -1472 819 -2861 1708 -4140 2651 -815 601 -1736 1346 -2415 1954 -497
445 -1403 1352 -1871 1872 -961 1069 -1642 2120 -2036 3140 -142 369 -285 865
-344 1195 -27 150 -37 499 -20 667 85 824 576 1601 1320 2090 147 97 403 227
552 282 123 45 475 154 701 217 760 211 1426 332 2168 396 253 21 995 25 1215
5 694 -62 1283 -185 1775 -372 96 -36 128 -43 104 -21 -14 12 -364 164 -499
216 -566 219 -1174 369 -1860 459 -295 39 -517 59 -960 87 -219 13 -1237 19
-1585 9z"/>
<path d="M43239 46314 c-195 -35 -358 -122 -495 -266 -113 -117 -164 -201
-213 -347 -111 -332 -20 -697 235 -942 152 -144 315 -222 524 -249 443 -57
871 234 991 675 18 66 22 107 22 230 0 123 -4 164 -22 230 -125 462 -579 753
-1042 669z"/>
<path d="M35770 45405 c-639 -131 -942 -866 -580 -1406 129 -192 348 -338 577
-385 121 -25 332 -15 443 21 170 55 283 127 406 258 160 171 244 384 244 616
0 425 -301 799 -718 891 -103 23 -273 25 -372 5z"/>
<path d="M48547 42828 c-5 -1388 3 -3189 19 -3943 l7 -330 2798 -1 2797 -2 6
92 c15 242 26 1739 26 3604 l0 2062 -2823 0 -2824 0 -6 -1482z"/>
<path d="M43083 39109 c-210 -24 -441 -151 -578 -316 -147 -178 -215 -364
-215 -592 0 -240 81 -445 244 -619 125 -132 267 -218 440 -265 109 -29 336
-31 441 -3 362 96 628 384 686 740 16 104 7 289 -21 389 -11 44 -41 118 -65
167 -139 278 -409 465 -717 499 -107 12 -111 12 -215 0z"/>
<path d="M31580 11938 l-1515 -4163 1044 -3 c574 -1 1046 0 1049 3 3 2 116
404 252 892 l248 888 1208 0 1209 0 240 -801 c132 -440 252 -841 268 -892 l27
-92 1091 0 c1034 0 1090 1 1085 18 -4 9 -669 1882 -1479 4162 l-1473 4145
-869 3 -870 2 -1515 -4162z m2720 563 c226 -750 409 -1366 407 -1368 -2 -1
-382 -2 -844 -1 l-841 3 417 1360 c229 748 420 1366 425 1374 4 7 12 9 17 4 4
-4 193 -622 419 -1372z"/>
<path d="M18800 11910 l0 -4140 1070 0 1070 0 0 1410 0 1410 488 -2 487 -3
705 -1407 705 -1408 1204 0 c1023 0 1202 2 1198 14 -3 8 -389 708 -858 1557
-469 849 -854 1551 -856 1559 -2 10 31 34 108 74 757 405 1200 1084 1295 1986
23 218 15 637 -15 834 -50 323 -130 579 -262 837 -375 735 -1098 1219 -2044
1368 -289 45 -233 44 -2307 48 l-1988 4 0 -4141z m3670 2365 c250 -37 443
-129 587 -277 112 -115 182 -251 220 -428 23 -107 25 -380 4 -485 -76 -379
-318 -620 -712 -706 -152 -33 -344 -40 -999 -37 l-625 3 -3 973 -2 972 717 0
c575 0 737 -3 813 -15z"/>
<path d="M42570 11910 l0 -4140 1070 0 1070 0 0 1580 0 1580 1455 0 1455 0 0
880 0 880 -1455 0 -1455 0 0 800 0 800 1735 0 1735 0 0 880 0 880 -2805 0
-2805 0 0 -4140z"/>
<path d="M53020 11905 l0 -4135 975 0 976 0 -6 333 c-11 654 -47 4839 -41
4845 3 3 8 3 10 1 2 -2 367 -870 811 -1929 444 -1059 814 -1937 821 -1952 l15
-28 728 0 729 0 86 203 c47 111 418 989 825 1952 407 962 744 1751 750 1753 8
3 9 -107 5 -375 -5 -365 -44 -4507 -44 -4705 l0 -98 1070 0 1070 0 0 4135 0
4135 -1376 -2 -1376 -3 -453 -1171 c-289 -749 -574 -1509 -791 -2109 -187
-515 -345 -940 -352 -942 -7 -3 -15 -3 -18 0 -3 3 -169 427 -369 944 -300 774
-450 1142 -858 2108 l-495 1170 -1346 3 -1346 2 0 -4135z"/>
</g>
</svg>
