<svg version="1.1" id="Layer_1" xmlns="http://www.w3.org/2000/svg" xmlns:xlink="http://www.w3.org/1999/xlink" x="0px" y="0px"
	 width="100%" viewBox="0 0 534 468" enable-background="new 0 0 534 468" xml:space="preserve">
<path fill="#000000" opacity="1.000000" stroke="none" 
	d="
M375.000000,469.000000 
	C250.000031,469.000000 125.500061,469.000000 1.000067,469.000000 
	C1.000045,313.000061 1.000045,157.000137 1.000022,1.000151 
	C178.999893,1.000100 356.999786,1.000100 534.999756,1.000050 
	C534.999878,156.999863 534.999878,312.999725 534.999939,468.999786 
	C481.833344,469.000000 428.666656,469.000000 375.000000,469.000000 
M245.969650,385.030975 
	C245.969650,385.030975 245.959167,385.070953 246.369064,385.742493 
	C247.341751,386.073639 248.314438,386.404785 249.278259,386.628296 
	C249.278259,386.628296 249.172638,386.651001 249.677063,387.103241 
	C251.415955,388.091156 253.154831,389.079071 255.051407,390.578857 
	C255.362732,390.672241 255.674042,390.765656 256.599304,391.119843 
	C257.728394,391.760559 258.857483,392.401306 260.148712,393.517548 
	C260.445374,393.607819 260.742004,393.698059 261.478729,393.957672 
	C261.478729,393.957672 261.942535,394.042633 262.108307,394.515015 
	C262.398682,394.610535 262.689026,394.706024 263.614471,395.110291 
	C265.404694,395.884338 267.781006,397.802948 268.885376,397.237488 
	C274.130493,394.551910 279.029053,391.189453 284.780548,387.999725 
	C292.513458,383.591431 300.246338,379.183167 308.676453,374.714020 
	C319.444885,368.402435 330.213287,362.090851 341.664093,355.728882 
	C344.515289,353.940979 347.307861,352.050049 350.230133,350.387115 
	C355.957672,347.127777 361.822845,344.105957 367.493073,340.752533 
	C369.569183,339.524750 371.253906,337.635193 373.845001,335.981201 
	C375.447388,334.990662 377.010620,333.928558 378.660675,333.025055 
	C381.758301,331.328949 384.906128,329.724548 388.764221,327.992218 
	C394.563232,324.763031 400.488617,321.732147 406.076965,318.172272 
	C407.568878,317.221954 408.831390,314.658936 408.843842,312.827087 
	C409.022461,286.520905 408.969849,260.213165 408.970947,233.905777 
	C408.972076,207.107315 408.971191,180.308853 408.971191,153.473846 
	C398.904968,147.907074 388.967560,142.411499 378.739380,136.261002 
	C376.186401,134.708069 373.686371,133.058746 371.069733,131.621689 
	C365.076172,128.329987 359.025696,125.141891 352.729767,121.271835 
	C339.169983,113.495911 325.610229,105.719978 311.720154,97.284187 
	C310.163300,96.565971 308.546722,95.953255 307.059570,95.111839 
	C299.359833,90.755386 291.693207,86.340469 283.677155,81.334793 
	C279.671021,78.960045 275.781281,76.345345 271.605621,74.320183 
	C269.748566,73.419525 266.799347,72.761566 265.230469,73.616592 
	C257.611176,77.769028 250.291672,82.471497 242.242950,87.281471 
	C237.757523,89.839470 233.263382,92.382362 228.788605,94.958855 
	C221.237579,99.306587 213.698807,103.675613 205.776688,108.665062 
	C199.146286,112.449501 192.515884,116.233932 185.233673,120.056038 
	C184.165802,120.690651 183.097916,121.325264 181.525574,122.130737 
	C181.327774,122.416458 181.129990,122.702179 180.279755,123.248405 
	C171.822525,128.169373 163.365295,133.090332 154.191345,138.045761 
	C146.192169,142.520844 138.187363,146.985931 130.197357,151.477295 
	C127.928459,152.752686 126.978035,154.466766 126.984253,157.343399 
	C127.095810,208.975143 127.098900,260.607391 126.940025,312.238892 
	C126.929688,315.600922 128.199722,317.446777 130.762665,318.875366 
	C137.469376,322.613586 144.206558,326.297150 150.945755,330.066376 
	C150.945755,330.066376 151.009964,330.066803 151.144135,330.503998 
	C151.144135,330.503998 151.487076,330.807220 151.487076,330.807220 
	C151.487076,330.807220 151.943008,330.764679 152.652786,330.950989 
	C159.740356,334.986511 166.827911,339.022034 174.220840,343.690369 
	C174.801849,343.966644 175.403229,344.207123 175.960846,344.524506 
	C185.630798,350.027924 195.295395,355.540741 205.096283,361.518860 
	C205.277863,361.828217 205.548004,361.980988 206.246216,362.583588 
	C208.125504,363.368439 210.004791,364.153290 212.160110,365.613037 
	C217.740662,368.770599 223.321213,371.928192 229.233994,375.703888 
	C234.481750,378.505096 239.729507,381.306305 245.102203,384.597076 
	C245.391083,384.751251 245.679962,384.905426 245.969650,385.030975 
z"/>
<path fill="#236EC4" opacity="1.000000" stroke="none" 
	d="
M150.931595,330.002533 
	C144.206558,326.297150 137.469376,322.613586 130.762665,318.875366 
	C128.199722,317.446777 126.929688,315.600922 126.940025,312.238892 
	C127.098900,260.607391 127.095810,208.975143 126.984253,157.343399 
	C126.978035,154.466766 127.928459,152.752686 130.197357,151.477295 
	C138.187363,146.985931 146.192169,142.520844 154.577667,138.423309 
	C155.243790,139.904129 155.230682,141.750107 155.849350,141.994095 
	C161.148163,144.083771 159.921432,148.566406 159.987686,152.564026 
	C160.051071,156.389099 159.611450,160.271103 160.131943,164.025635 
	C160.604355,167.433395 162.071823,170.703186 163.051605,174.498047 
	C162.977417,214.044540 162.939987,253.126785 162.971436,292.208984 
	C162.972702,293.788116 163.624710,295.366730 163.633209,297.032593 
	C162.343704,298.421600 160.729141,299.647217 160.569351,301.039795 
	C160.079681,305.307190 160.201889,309.641449 159.978836,313.944122 
	C159.854828,316.336151 159.517120,318.717072 159.276016,321.100159 
	C152.557541,320.400024 151.265274,321.518188 151.002045,327.512085 
	C150.965622,328.341644 150.954468,329.172363 150.931595,330.002533 
M149.500000,324.526367 
	C149.500000,324.526367 149.485474,324.486328 149.500000,324.526367 
M144.474243,323.500549 
	C144.474243,323.500549 144.513855,323.486389 144.474243,323.500549 
z"/>
<path fill="#5492DF" opacity="1.000000" stroke="none" 
	d="
M379.030151,136.915939 
	C388.967560,142.411499 398.904968,147.907074 408.971191,153.473846 
	C408.971191,180.308853 408.972076,207.107315 408.970947,233.905777 
	C408.969849,260.213165 409.022461,286.520905 408.843842,312.827087 
	C408.831390,314.658936 407.568878,317.221954 406.076965,318.172272 
	C400.488617,321.732147 394.563232,324.763031 388.244934,327.721893 
	C386.239716,323.083374 382.910980,321.694366 377.440979,322.772705 
	C382.784210,312.836365 375.224152,301.400421 383.672974,294.922729 
	C382.526794,291.523254 381.124512,289.266388 381.101776,286.995728 
	C380.920441,268.894226 380.881104,250.789154 381.033844,232.687149 
	C381.189667,214.223038 381.624695,195.761337 381.882812,177.297821 
	C381.894867,176.433411 381.374054,175.561584 381.091034,174.660095 
	C379.333435,175.377701 377.914429,175.957062 375.304474,177.022690 
	C377.396942,172.993164 378.202423,169.056458 380.584351,167.433701 
	C383.871460,165.194214 384.152893,163.100204 382.414154,160.487503 
	C378.742767,154.970749 379.230072,149.633652 382.615417,143.710587 
	C376.023132,144.021469 378.468903,140.051682 379.030151,136.915939 
z"/>
<path fill="#508FDC" opacity="1.000000" stroke="none" 
	d="
M378.884766,136.588470 
	C378.468903,140.051682 376.023132,144.021469 382.615417,143.710587 
	C379.230072,149.633652 378.742767,154.970749 382.414154,160.487503 
	C384.152893,163.100204 383.871460,165.194214 380.584351,167.433701 
	C378.202423,169.056458 377.396942,172.993164 375.304474,177.022690 
	C377.914429,175.957062 379.333435,175.377701 381.091034,174.660095 
	C381.374054,175.561584 381.894867,176.433411 381.882812,177.297821 
	C381.624695,195.761337 381.189667,214.223038 381.033844,232.687149 
	C380.881104,250.789154 380.920441,268.894226 381.101776,286.995728 
	C381.124512,289.266388 382.526794,291.523254 383.672974,294.922729 
	C375.224152,301.400421 382.784210,312.836365 377.440979,322.772705 
	C382.910980,321.694366 386.239716,323.083374 387.879333,327.766785 
	C384.906128,329.724548 381.758301,331.328949 378.660675,333.025055 
	C377.010620,333.928558 375.447388,334.990662 373.105988,336.081512 
	C370.957581,336.680481 369.579712,337.314484 368.132599,337.651062 
	C364.530853,338.488953 360.579529,336.142456 360.061279,332.942749 
	C358.383850,322.586578 363.929871,313.535919 365.612274,303.779724 
	C365.960175,301.762268 369.758392,300.409637 371.809418,298.575073 
	C372.454071,297.998444 372.585724,296.848297 372.994171,295.707275 
	C373.087555,295.290588 373.138947,295.127258 373.355713,294.656921 
	C373.665955,293.197083 373.810760,292.044250 373.787659,290.509338 
	C373.411804,288.359039 373.023651,286.590881 373.022491,284.822479 
	C372.998779,249.519592 372.956635,214.216370 373.131165,178.914246 
	C373.148315,175.448425 371.980835,173.539261 369.161438,171.959503 
	C361.035095,167.406189 352.985748,162.715500 344.832275,157.768600 
	C343.126984,152.748215 343.355164,152.554398 351.661255,151.862640 
	C351.039459,149.261353 350.026520,146.727982 349.901245,144.151443 
	C349.624176,138.452255 350.137238,132.701462 349.643768,127.031258 
	C349.374176,123.933830 349.633636,122.170273 352.998322,121.911743 
	C359.025696,125.141891 365.076172,128.329987 371.069733,131.621689 
	C373.686371,133.058746 376.186401,134.708069 378.884766,136.588470 
z"/>
<path fill="#3B7FD1" opacity="1.000000" stroke="none" 
	d="
M242.865982,86.979172 
	C250.291672,82.471497 257.611176,77.769028 265.230469,73.616592 
	C266.799347,72.761566 269.748566,73.419525 271.605621,74.320183 
	C275.781281,76.345345 279.671021,78.960045 283.569153,81.832108 
	C280.396912,83.151436 276.058105,80.831345 274.328979,86.069565 
	C276.528076,86.741020 278.432465,87.322479 280.487549,87.949966 
	C279.213257,90.135719 278.192413,91.886803 276.938446,94.037682 
	C279.438873,94.717323 281.233704,95.205177 284.255646,96.026581 
	C281.862183,97.321426 280.309021,97.853119 279.175323,98.858047 
	C277.934479,99.957985 276.261627,101.454094 276.191803,102.848412 
	C275.733459,112.000122 275.657623,121.171005 275.452057,130.558655 
	C277.387848,129.909164 279.626434,129.158096 281.864990,128.407013 
	C282.078430,128.880447 282.291870,129.353867 282.505310,129.827301 
	C279.453094,132.380249 276.400909,134.933212 272.548523,138.155457 
	C278.151947,139.480072 285.444305,134.388962 284.881897,144.358032 
	C280.197876,147.441452 275.725311,150.349701 271.046539,152.875916 
	C269.653900,153.627853 267.285706,154.032104 266.045380,153.352646 
	C260.847382,150.505295 255.907867,147.186096 251.013397,143.818604 
	C250.110458,140.297241 247.712662,140.320038 244.963043,141.100052 
	C244.916748,141.108017 244.883148,141.020264 244.874573,140.640930 
	C243.430634,137.291763 241.995255,134.321930 240.951721,132.162827 
	C241.734558,118.356812 244.785507,104.985176 238.439072,91.910271 
	C243.518341,90.062767 243.518341,90.062767 242.865982,86.979172 
z"/>
<path fill="#4183D4" opacity="1.000000" stroke="none" 
	d="
M285.014435,144.036667 
	C285.444305,134.388962 278.151947,139.480072 272.548523,138.155457 
	C276.400909,134.933212 279.453094,132.380249 282.505310,129.827301 
	C282.291870,129.353867 282.078430,128.880447 281.864990,128.407013 
	C279.626434,129.158096 277.387848,129.909164 275.452057,130.558655 
	C275.657623,121.171005 275.733459,112.000122 276.191803,102.848412 
	C276.261627,101.454094 277.934479,99.957985 279.175323,98.858047 
	C280.309021,97.853119 281.862183,97.321426 284.255646,96.026581 
	C281.233704,95.205177 279.438873,94.717323 276.938446,94.037682 
	C278.192413,91.886803 279.213257,90.135719 280.487549,87.949966 
	C278.432465,87.322479 276.528076,86.741020 274.328979,86.069565 
	C276.058105,80.831345 280.396912,83.151436 283.738068,82.137680 
	C291.693207,86.340469 299.359833,90.755386 307.059570,95.111839 
	C308.546722,95.953255 310.163300,96.565971 311.656860,97.861435 
	C311.945648,102.265961 312.297729,106.093239 312.698181,110.446564 
	C312.207001,110.686867 310.954254,111.299721 310.005676,111.763771 
	C312.073334,120.999756 315.328033,129.761688 310.617188,138.767059 
	C306.235657,135.214630 302.416718,133.652328 297.359833,137.649094 
	C293.791138,140.469650 289.167236,141.955139 285.014435,144.036667 
z"/>
<path fill="#4183D4" opacity="1.000000" stroke="none" 
	d="
M307.979218,374.774902 
	C300.246338,379.183167 292.513458,383.591431 284.011322,388.006287 
	C280.386780,386.864777 275.497803,388.773346 275.503662,383.265259 
	C275.520966,366.931549 275.663116,350.597839 275.837006,334.264954 
	C275.846100,333.414001 276.653381,332.591553 276.999939,331.720398 
	C278.032654,329.124481 279.020966,326.510925 280.392944,323.956055 
	C287.685974,327.698761 294.569489,331.475677 301.582458,334.994659 
	C302.731323,335.571136 304.450226,335.011658 306.216095,335.217194 
	C307.018127,337.464233 307.527191,339.467163 307.998169,341.479034 
	C309.686737,348.692291 304.625275,356.153931 308.791229,363.335663 
	C309.132721,363.924408 308.658112,365.645630 308.054443,366.019135 
	C303.265625,368.981720 305.081909,371.840332 307.979218,374.774902 
z"/>
<path fill="#4889D7" opacity="1.000000" stroke="none" 
	d="
M310.952423,138.841461 
	C315.328033,129.761688 312.073334,120.999756 310.005676,111.763771 
	C310.954254,111.299721 312.207001,110.686867 312.698181,110.446564 
	C312.297729,106.093239 311.945648,102.265961 311.822021,98.191368 
	C325.610229,105.719978 339.169983,113.495911 352.864044,121.591789 
	C349.633636,122.170273 349.374176,123.933830 349.643768,127.031258 
	C350.137238,132.701462 349.624176,138.452255 349.901245,144.151443 
	C350.026520,146.727982 351.039459,149.261353 351.661255,151.862640 
	C343.355164,152.554398 343.126984,152.748215 344.478546,157.715179 
	C333.116608,151.595108 322.034515,145.218292 310.952423,138.841461 
z"/>
<path fill="#3C7FD1" opacity="1.000000" stroke="none" 
	d="
M280.026611,323.904236 
	C279.020966,326.510925 278.032654,329.124481 276.999939,331.720398 
	C276.653381,332.591553 275.846100,333.414001 275.837006,334.264954 
	C275.663116,350.597839 275.520966,366.931549 275.503662,383.265259 
	C275.497803,388.773346 280.386780,386.864777 283.646545,388.040405 
	C279.029053,391.189453 274.130493,394.551910 268.885376,397.237488 
	C267.781006,397.802948 265.404694,395.884338 263.365051,394.649994 
	C262.886414,393.244110 262.657196,392.298553 262.427979,391.352966 
	C261.614197,391.916016 260.800385,392.479034 259.986572,393.042053 
	C258.857483,392.401306 257.728394,391.760559 256.290649,390.783875 
	C255.982025,390.447937 255.963821,390.037292 255.985382,390.013947 
	C256.006958,389.990601 256.049103,389.943024 256.362854,389.801392 
	C257.714050,387.273804 259.684052,384.812927 259.500336,382.525055 
	C259.347351,380.620636 256.665039,378.919342 254.955063,376.958374 
	C256.487671,376.677673 258.010681,376.398712 260.839111,375.880676 
	C258.604492,373.246094 256.972687,371.322205 254.802139,368.763123 
	C261.041901,366.883026 259.975586,362.032959 259.994995,357.613098 
	C260.014618,353.138214 260.684143,348.526520 259.831970,344.219543 
	C258.496796,337.471588 257.966980,330.012848 251.052643,325.597900 
	C256.153961,322.280945 261.121765,319.289276 266.477600,316.230682 
	C267.921387,316.130737 268.977081,316.097687 270.133972,316.397827 
	C273.498962,319.122040 276.762787,321.513123 280.026611,323.904236 
M277.495697,324.343414 
	C275.867035,321.755493 274.386444,322.994751 273.585693,324.817444 
	C273.215759,325.659607 274.112122,327.058075 274.434357,328.204315 
	C275.509644,327.125854 276.584900,326.047424 277.495697,324.343414 
z"/>
<path fill="#4889D7" opacity="1.000000" stroke="none" 
	d="
M308.327820,374.744446 
	C305.081909,371.840332 303.265625,368.981720 308.054443,366.019135 
	C308.658112,365.645630 309.132721,363.924408 308.791229,363.335663 
	C304.625275,356.153931 309.686737,348.692291 307.998169,341.479034 
	C307.527191,339.467163 307.018127,337.464233 306.375305,334.903656 
	C317.138367,327.960876 328.052673,321.571594 338.942505,315.521057 
	C338.499542,317.260101 338.081085,318.660400 337.814941,319.551056 
	C339.368042,321.358246 341.528931,322.716583 341.679596,324.269836 
	C342.093109,328.533691 342.909088,333.433380 341.292542,337.071320 
	C338.399292,343.582458 341.299866,349.587646 340.981689,355.779266 
	C330.213287,362.090851 319.444885,368.402435 308.327820,374.744446 
M309.570801,372.050629 
	C309.570801,372.050629 309.466736,371.895874 309.466736,371.895874 
	C309.466736,371.895874 309.474823,372.089569 309.570801,372.050629 
z"/>
<path fill="#377CCF" opacity="1.000000" stroke="none" 
	d="
M250.919083,325.923157 
	C257.966980,330.012848 258.496796,337.471588 259.831970,344.219543 
	C260.684143,348.526520 260.014618,353.138214 259.994995,357.613098 
	C259.975586,362.032959 261.041901,366.883026 254.802139,368.763123 
	C256.972687,371.322205 258.604492,373.246094 260.839111,375.880676 
	C258.010681,376.398712 256.487671,376.677673 254.955063,376.958374 
	C256.665039,378.919342 259.347351,380.620636 259.500336,382.525055 
	C259.684052,384.812927 257.714050,387.273804 256.219971,389.477722 
	C253.566437,388.414093 251.369537,387.532562 249.172638,386.651001 
	C249.172638,386.651001 249.278259,386.628296 249.025635,386.382935 
	C247.835068,385.782043 246.897125,385.426483 245.959167,385.070923 
	C245.959167,385.070953 245.969650,385.030975 245.824402,384.864136 
	C245.475754,384.464294 245.241806,384.267700 244.977264,384.107513 
	C239.729507,381.306305 234.481750,378.505096 229.356842,375.204346 
	C231.448746,372.435059 235.017349,370.230957 235.113708,367.884277 
	C235.563278,356.936981 235.053909,345.950317 235.040466,334.652985 
	C238.791382,332.285034 242.389267,330.241791 246.091110,328.423462 
	C247.119339,328.076263 248.043610,327.504089 249.093750,326.661011 
	C249.786133,326.234406 250.352600,326.078796 250.919083,325.923157 
z"/>
<path fill="#3479CC" opacity="1.000000" stroke="none" 
	d="
M242.554474,87.130325 
	C243.518341,90.062767 243.518341,90.062767 238.439072,91.910271 
	C244.785507,104.985176 241.734558,118.356812 240.951721,132.162827 
	C241.995255,134.321930 243.430634,137.291763 244.549622,140.528809 
	C242.469940,139.671997 240.710190,138.542358 238.942612,137.425064 
	C235.102280,134.997574 231.678970,134.132935 227.496918,137.580597 
	C224.129349,140.356827 219.665359,141.803116 215.632629,143.495636 
	C215.330261,140.970047 215.083115,138.788315 214.789017,136.192047 
	C212.895096,137.044861 211.472305,137.685532 208.533463,139.008881 
	C209.428726,136.157547 209.895844,134.461502 210.497864,132.814774 
	C211.031906,131.353973 212.177444,129.968582 212.242569,128.513626 
	C212.405350,124.875885 212.036285,121.217987 212.013611,117.567352 
	C211.986282,113.166794 210.050812,110.018669 206.154892,108.035690 
	C213.698807,103.675613 221.237579,99.306587 228.788605,94.958855 
	C233.263382,92.382362 237.757523,89.839470 242.554474,87.130325 
z"/>
<path fill="#2F75C9" opacity="1.000000" stroke="none" 
	d="
M205.965790,108.350372 
	C210.050812,110.018669 211.986282,113.166794 212.013611,117.567352 
	C212.036285,121.217987 212.405350,124.875885 212.242569,128.513626 
	C212.177444,129.968582 211.031906,131.353973 210.497864,132.814774 
	C209.895844,134.461502 209.428726,136.157547 208.533463,139.008881 
	C211.472305,137.685532 212.895096,137.044861 214.789017,136.192047 
	C215.083115,138.788315 215.330261,140.970047 215.565399,143.566162 
	C215.553406,143.980530 215.186417,143.956802 214.848663,143.913025 
	C211.652176,142.949646 210.396255,144.323730 209.920715,147.322235 
	C201.204926,152.450668 192.612274,157.247665 183.783508,161.805084 
	C182.737885,160.514313 181.928391,159.463120 181.132828,158.430008 
	C185.296722,156.219604 188.803238,154.358154 193.224030,152.011368 
	C187.842957,151.428207 183.700394,150.979279 179.557846,150.530350 
	C179.590302,150.004211 179.622757,149.478088 179.655197,148.951950 
	C181.729218,148.184433 184.934052,147.942764 185.596252,146.518738 
	C186.459473,144.662430 185.298096,141.869614 185.028610,139.477448 
	C184.973190,138.985504 184.989059,138.482635 185.005783,137.985931 
	C185.188171,132.567383 186.230606,126.917450 180.932205,122.987907 
	C181.129990,122.702179 181.327774,122.416458 182.128159,122.046677 
	C183.782318,121.314529 184.833893,120.666451 185.885468,120.018372 
	C192.515884,116.233932 199.146286,112.449501 205.965790,108.350372 
M208.585144,120.503044 
	C208.242722,120.366249 207.900299,120.229454 207.557877,120.092651 
	C207.514648,120.246910 207.421509,120.531029 207.435516,120.536423 
	C207.777817,120.668015 208.131500,120.769981 208.585144,120.503044 
z"/>
<path fill="#2F75C9" opacity="1.000000" stroke="none" 
	d="
M211.884079,364.938110 
	C210.004791,364.153290 208.125504,363.368439 205.941925,362.105621 
	C205.435562,361.408112 205.210068,361.216064 204.961151,361.051544 
	C195.295395,355.540741 185.630798,350.027924 175.960846,344.524506 
	C175.403229,344.207123 174.801849,343.966644 174.290741,343.098846 
	C177.912354,339.487335 180.403931,342.510651 183.257599,343.950745 
	C184.339828,344.496857 185.748474,344.396118 187.008347,344.590179 
	C186.553436,343.479126 186.382782,341.702393 185.596786,341.366760 
	C181.023209,339.413818 180.451355,336.826721 183.541870,333.032928 
	C184.076355,332.376801 184.137497,331.048004 183.939697,330.133148 
	C183.166382,326.556824 182.201416,323.021942 181.187164,318.992920 
	C182.583725,318.442932 184.581314,317.656250 186.019257,317.089966 
	C184.553757,313.847839 183.269104,311.005829 182.363953,308.100525 
	C183.524612,308.216827 184.414597,308.213379 185.070633,308.603424 
	C194.751587,314.359161 204.401459,320.167175 213.682907,325.999207 
	C208.177567,327.834259 207.326202,329.967346 209.567123,334.867676 
	C209.987015,335.785858 210.124420,337.083099 209.835495,338.036774 
	C207.032730,347.288452 205.842102,356.375580 211.884079,364.938110 
z"/>
<path fill="#3479CC" opacity="1.000000" stroke="none" 
	d="
M212.022095,365.275574 
	C205.842102,356.375580 207.032730,347.288452 209.835495,338.036774 
	C210.124420,337.083099 209.987015,335.785858 209.567123,334.867676 
	C207.326202,329.967346 208.177567,327.834259 214.047150,326.038483 
	C220.531693,329.417480 226.276199,332.793549 232.149979,336.212769 
	C232.567612,336.265900 232.797623,336.147736 232.970612,335.936096 
	C232.971939,335.970764 232.902603,335.967682 233.091766,335.854553 
	C233.530533,335.584717 233.760574,335.403198 234.196136,335.125427 
	C234.421249,335.053955 234.887451,334.977722 234.887451,334.977722 
	C235.053909,345.950317 235.563278,356.936981 235.113708,367.884277 
	C235.017349,370.230957 231.448746,372.435059 229.190735,374.895325 
	C223.321213,371.928192 217.740662,368.770599 212.022095,365.275574 
z"/>
<path fill="#2971C6" opacity="1.000000" stroke="none" 
	d="
M180.605988,123.118156 
	C186.230606,126.917450 185.188171,132.567383 185.005783,137.985931 
	C184.989059,138.482635 184.973190,138.985504 185.028610,139.477448 
	C185.298096,141.869614 186.459473,144.662430 185.596252,146.518738 
	C184.934052,147.942764 181.729218,148.184433 179.655197,148.951950 
	C179.622757,149.478088 179.590302,150.004211 179.557846,150.530350 
	C183.700394,150.979279 187.842957,151.428207 193.224030,152.011368 
	C188.803238,154.358154 185.296722,156.219604 181.132828,158.430008 
	C181.928391,159.463120 182.737885,160.514313 183.603378,162.101669 
	C177.610474,165.710419 171.544846,168.750977 165.530212,171.889267 
	C164.600464,172.374374 163.904633,173.307739 163.100616,174.033813 
	C162.071823,170.703186 160.604355,167.433395 160.131943,164.025635 
	C159.611450,160.271103 160.051071,156.389099 159.987686,152.564026 
	C159.921432,148.566406 161.148163,144.083771 155.849350,141.994095 
	C155.230682,141.750107 155.243790,139.904129 154.936035,138.406067 
	C163.365295,133.090332 171.822525,128.169373 180.605988,123.118156 
z"/>
<path fill="#2971C6" opacity="1.000000" stroke="none" 
	d="
M181.984451,308.163788 
	C183.269104,311.005829 184.553757,313.847839 186.019257,317.089966 
	C184.581314,317.656250 182.583725,318.442932 181.187164,318.992920 
	C182.201416,323.021942 183.166382,326.556824 183.939697,330.133148 
	C184.137497,331.048004 184.076355,332.376801 183.541870,333.032928 
	C180.451355,336.826721 181.023209,339.413818 185.596786,341.366760 
	C186.382782,341.702393 186.553436,343.479126 187.008347,344.590179 
	C185.748474,344.396118 184.339828,344.496857 183.257599,343.950745 
	C180.403931,342.510651 177.912354,339.487335 174.138062,342.782471 
	C166.827911,339.022034 159.740356,334.986511 152.157898,330.721252 
	C151.465820,330.318390 151.248138,330.176819 151.009964,330.066803 
	C151.009964,330.066803 150.945755,330.066376 150.938675,330.034454 
	C150.954468,329.172363 150.965622,328.341644 151.002045,327.512085 
	C151.265274,321.518188 152.557541,320.400024 159.276016,321.100159 
	C159.517120,318.717072 159.854828,316.336151 159.978836,313.944122 
	C160.201889,309.641449 160.079681,305.307190 160.569351,301.039795 
	C160.729141,299.647217 162.343704,298.421600 164.002274,297.075867 
	C170.469223,300.742676 176.226837,304.453247 181.984451,308.163788 
z"/>
<path fill="#4D8CD9" opacity="1.000000" stroke="none" 
	d="
M341.322876,355.754089 
	C341.299866,349.587646 338.399292,343.582458 341.292542,337.071320 
	C342.909088,333.433380 342.093109,328.533691 341.679596,324.269836 
	C341.528931,322.716583 339.368042,321.358246 337.814941,319.551056 
	C338.081085,318.660400 338.499542,317.260101 339.265869,315.358551 
	C345.253113,311.732849 350.892517,308.608398 356.639343,305.894836 
	C357.585632,308.400726 355.199249,312.631622 361.538483,310.904083 
	C359.891205,309.081390 358.243958,307.258667 356.748108,305.120789 
	C362.250397,301.857300 367.601288,298.908966 372.952179,295.960632 
	C372.585724,296.848297 372.454071,297.998444 371.809418,298.575073 
	C369.758392,300.409637 365.960175,301.762268 365.612274,303.779724 
	C363.929871,313.535919 358.383850,322.586578 360.061279,332.942749 
	C360.579529,336.142456 364.530853,338.488953 368.132599,337.651062 
	C369.579712,337.314484 370.957581,336.680481 372.742065,336.114685 
	C371.253906,337.635193 369.569183,339.524750 367.493073,340.752533 
	C361.822845,344.105957 355.957672,347.127777 350.230133,350.387115 
	C347.307861,352.050049 344.515289,353.940979 341.322876,355.754089 
z"/>
<path fill="#3C7FD1" opacity="1.000000" stroke="none" 
	d="
M249.424850,386.877136 
	C251.369537,387.532562 253.566437,388.414093 255.906219,389.619324 
	C256.049103,389.943024 256.006958,389.990601 255.718170,390.013733 
	C255.250824,390.046967 255.072266,390.057007 254.893707,390.067017 
	C253.154831,389.079071 251.415955,388.091156 249.424850,386.877136 
z"/>
<path fill="#377CCF" opacity="1.000000" stroke="none" 
	d="
M260.067627,393.279816 
	C260.800385,392.479034 261.614197,391.916016 262.427979,391.352966 
	C262.657196,392.298553 262.886414,393.244110 263.047516,394.495605 
	C262.689026,394.706024 262.398682,394.610535 261.940338,394.179749 
	C261.543640,393.677216 261.299072,393.658478 261.038666,393.788300 
	C260.742004,393.698059 260.445374,393.607819 260.067627,393.279816 
z"/>
<path fill="#2971C6" opacity="1.000000" stroke="none" 
	d="
M185.559570,120.037201 
	C184.833893,120.666451 183.782318,121.314529 182.380402,121.961243 
	C183.097916,121.325264 184.165802,120.690651 185.559570,120.037201 
z"/>
<path fill="#3C7FD1" opacity="1.000000" stroke="none" 
	d="
M246.164124,385.406708 
	C246.897125,385.426483 247.835068,385.782043 249.030075,386.436768 
	C248.314438,386.404785 247.341751,386.073639 246.164124,385.406708 
z"/>
<path fill="#3C7FD1" opacity="1.000000" stroke="none" 
	d="
M261.258698,393.872986 
	C261.299072,393.658478 261.543640,393.677216 261.857452,393.943573 
	C261.942535,394.042633 261.478729,393.957672 261.258698,393.872986 
z"/>
<path fill="#3479CC" opacity="1.000000" stroke="none" 
	d="
M205.028717,361.285217 
	C205.210068,361.216064 205.435562,361.408112 205.772156,361.802399 
	C205.548004,361.980988 205.277863,361.828217 205.028717,361.285217 
z"/>
<path fill="#3C7FD1" opacity="1.000000" stroke="none" 
	d="
M245.039734,384.352295 
	C245.241806,384.267700 245.475754,384.464294 245.823990,384.878448 
	C245.679962,384.905426 245.391083,384.751251 245.039734,384.352295 
z"/>
<path fill="#377CCF" opacity="1.000000" stroke="none" 
	d="
M254.972565,390.322937 
	C255.072266,390.057007 255.250824,390.046967 255.696594,390.037109 
	C255.963821,390.037292 255.982025,390.447937 255.983688,390.653503 
	C255.674042,390.765656 255.362732,390.672241 254.972565,390.322937 
z"/>
<path fill="#236EC4" opacity="1.000000" stroke="none" 
	d="
M151.077057,330.285400 
	C151.248138,330.176819 151.465820,330.318390 151.803009,330.628082 
	C151.943008,330.764679 151.487076,330.807220 151.487076,330.807220 
	C151.487076,330.807220 151.144135,330.503998 151.077057,330.285400 
z"/>
<path fill="#000000" opacity="1.000000" stroke="none" 
	d="
M372.994171,295.707275 
	C367.601288,298.908966 362.250397,301.857300 356.747528,305.152588 
	C356.595551,305.499573 356.531891,305.483978 356.531891,305.483978 
	C350.892517,308.608398 345.253113,311.732849 339.290344,315.019775 
	C328.052673,321.571594 317.138367,327.960876 306.064880,334.663666 
	C304.450226,335.011658 302.731323,335.571136 301.582458,334.994659 
	C294.569489,331.475677 287.685974,327.698761 280.392944,323.956055 
	C276.762787,321.513123 273.498962,319.122040 270.410126,316.274902 
	C270.737274,315.250916 270.889374,314.682983 271.406189,314.057739 
	C275.540894,312.047455 279.310883,310.094391 283.372253,308.014313 
	C284.471100,307.274475 285.278595,306.661713 286.388580,306.018555 
	C287.153595,305.677917 287.616119,305.367645 288.051208,305.038757 
	C288.023804,305.020172 287.999268,305.081696 288.268127,305.005493 
	C288.719879,304.618164 288.902771,304.307037 289.057617,304.015747 
	C289.029602,304.035614 289.077911,304.084442 289.443695,304.047607 
	C295.389404,300.938995 300.969330,297.867188 306.827209,294.570679 
	C310.728638,292.192261 314.352203,290.038483 318.326843,287.871216 
	C321.124268,286.182159 323.570557,284.506653 326.279846,282.859863 
	C326.731445,282.601746 326.920044,282.314850 327.075012,282.028351 
	C327.041412,282.028748 327.060608,282.093201 327.427399,282.045502 
	C330.599884,280.453247 333.565002,279.130035 336.144714,277.271790 
	C337.457458,276.326233 338.880554,274.423676 338.890320,272.944702 
	C339.057434,247.655655 339.027130,222.365158 338.955536,197.075211 
	C338.952515,196.002869 338.435883,194.455307 337.637115,193.944580 
	C334.218658,191.758820 330.604492,189.879089 327.051392,187.920807 
	C327.041077,187.953857 327.109161,187.966446 327.028351,187.710022 
	C326.639313,187.352173 326.331116,187.250732 325.798523,187.076981 
	C325.574127,187.004654 325.107758,186.935440 325.028687,186.694702 
	C324.675568,186.275467 324.401520,186.096970 323.976013,185.594971 
	C321.900330,184.484787 319.976105,183.698105 317.884979,182.586731 
	C313.488983,180.135208 309.259949,178.008362 304.834412,175.550629 
	C302.801086,175.597031 300.740173,175.566971 299.170654,176.430298 
	C294.972321,178.739609 290.984863,181.432190 286.550995,184.000061 
	C282.788483,185.744263 279.388580,187.460892 275.647461,189.231842 
	C272.537231,190.581863 269.768250,191.877579 266.632324,193.101532 
	C264.555603,191.944473 262.845856,190.859146 260.943237,189.466888 
	C259.592438,188.676666 258.384949,188.285629 257.284546,187.695099 
	C250.168564,183.876434 243.075928,180.014297 235.631714,175.978088 
	C231.501984,173.741089 228.582901,175.471832 225.531708,178.117126 
	C221.148590,180.582092 217.070648,182.887115 212.658875,185.258301 
	C209.183624,187.217896 206.042221,189.111313 202.604614,191.130508 
	C200.857620,192.116791 199.406845,192.977295 197.595062,194.091080 
	C197.170181,220.744003 197.081497,247.143707 197.129410,273.543152 
	C197.131409,274.647003 198.407364,275.748535 199.289398,276.907104 
	C199.488983,276.963013 199.893738,277.052551 200.029037,277.332336 
	C200.756149,277.673950 201.347946,277.735779 202.232391,277.942291 
	C203.689560,279.000214 204.854095,279.913452 206.326248,280.992371 
	C209.068634,282.463196 211.503403,283.768372 214.119675,285.362610 
	C216.510117,286.793091 218.719040,287.934479 221.097321,289.379028 
	C226.159286,292.469513 231.051926,295.256805 236.082870,298.316345 
	C236.800217,298.750031 237.379257,298.911469 237.977310,299.038269 
	C237.996323,299.003662 237.942062,299.061188 238.114624,299.361145 
	C244.182007,303.065887 250.076843,306.470703 256.288818,310.033997 
	C259.767181,312.227509 262.928345,314.262573 266.089539,316.297607 
	C261.121765,319.289276 256.153961,322.280945 251.052643,325.597900 
	C250.352600,326.078796 249.786133,326.234406 248.762604,326.697754 
	C247.532745,327.403168 246.759933,327.800842 245.987122,328.198547 
	C242.389267,330.241791 238.791382,332.285034 235.040466,334.652985 
	C234.887451,334.977722 234.421249,335.053955 233.942032,335.099915 
	C233.276077,335.419800 233.089340,335.693756 232.902603,335.967682 
	C232.902603,335.967682 232.971939,335.970764 232.730057,335.992126 
	C232.488174,336.013489 232.020721,336.169617 232.020721,336.169617 
	C226.276199,332.793549 220.531693,329.417480 214.422943,326.002075 
	C204.401459,320.167175 194.751587,314.359161 185.070633,308.603424 
	C184.414597,308.213379 183.524612,308.216827 182.363953,308.100525 
	C176.226837,304.453247 170.469223,300.742676 164.342560,296.988831 
	C163.624710,295.366730 162.972702,293.788116 162.971436,292.208984 
	C162.939987,253.126785 162.977417,214.044540 163.051605,174.498047 
	C163.904633,173.307739 164.600464,172.374374 165.530212,171.889267 
	C171.544846,168.750977 177.610474,165.710419 183.839508,162.341248 
	C192.612274,157.247665 201.204926,152.450668 210.258911,147.254059 
	C212.208969,145.888580 213.697693,144.922699 215.186417,143.956818 
	C215.186417,143.956802 215.553406,143.980530 215.620621,143.910004 
	C219.665359,141.803116 224.129349,140.356827 227.496918,137.580597 
	C231.678970,134.132935 235.102280,134.997574 238.942612,137.425064 
	C240.710190,138.542358 242.469940,139.671997 244.558197,140.908142 
	C244.883148,141.020264 244.916748,141.108017 245.127319,141.392914 
	C247.183167,142.465118 249.028412,143.252426 250.873672,144.039734 
	C255.907867,147.186096 260.847382,150.505295 266.045380,153.352646 
	C267.285706,154.032104 269.653900,153.627853 271.046539,152.875916 
	C275.725311,150.349701 280.197876,147.441452 284.881897,144.358032 
	C289.167236,141.955139 293.791138,140.469650 297.359833,137.649094 
	C302.416718,133.652328 306.235657,135.214630 310.617188,138.767059 
	C322.034515,145.218292 333.116608,151.595108 344.552429,158.025360 
	C352.985748,162.715500 361.035095,167.406189 369.161438,171.959503 
	C371.980835,173.539261 373.148315,175.448425 373.131165,178.914246 
	C372.956635,214.216370 372.998779,249.519592 373.022491,284.822479 
	C373.023651,286.590881 373.411804,288.359039 373.467957,290.704102 
	C373.274200,292.508606 373.232269,293.736267 373.190338,294.963959 
	C373.138947,295.127258 373.087555,295.290588 372.994171,295.707275 
z"/>
<path fill="#2971C6" opacity="1.000000" stroke="none" 
	d="
M149.492737,324.506348 
	C149.485474,324.486328 149.500000,324.526367 149.492737,324.506348 
z"/>
<path fill="#2971C6" opacity="1.000000" stroke="none" 
	d="
M144.494049,323.493469 
	C144.513855,323.486389 144.474243,323.500549 144.494049,323.493469 
z"/>
<path fill="#4D8CD9" opacity="1.000000" stroke="none" 
	d="
M373.355713,294.656921 
	C373.232269,293.736267 373.274200,292.508606 373.635864,291.086182 
	C373.810760,292.044250 373.665955,293.197083 373.355713,294.656921 
z"/>
<path fill="#3479CC" opacity="1.000000" stroke="none" 
	d="
M251.013397,143.818604 
	C249.028412,143.252426 247.183167,142.465118 245.173615,141.384949 
	C247.712662,140.320038 250.110458,140.297241 251.013397,143.818604 
z"/>
<path fill="#44B888" opacity="1.000000" stroke="none" 
	d="
M271.041473,314.115021 
	C270.889374,314.682983 270.737274,315.250916 270.308960,315.941772 
	C268.977081,316.097687 267.921387,316.130737 266.477600,316.230682 
	C262.928345,314.262573 259.767181,312.227509 256.382996,309.713470 
	C256.793488,306.987091 257.932800,304.749084 257.974548,302.490784 
	C258.175079,291.634674 258.079193,280.773041 258.446594,269.962952 
	C261.209320,271.386139 263.614014,272.759735 266.180115,274.289734 
	C266.579437,274.629730 266.836395,274.780914 267.408081,274.934662 
	C268.098206,274.940735 268.492615,274.911896 268.941467,275.277008 
	C269.689636,281.617554 270.214722,287.590179 271.128174,293.502777 
	C271.920685,298.632538 268.010101,304.501068 273.445068,308.619843 
	C272.579437,310.598907 271.810455,312.356964 271.041473,314.115021 
z"/>
<path fill="#4183D4" opacity="1.000000" stroke="none" 
	d="
M277.577942,324.656189 
	C276.584900,326.047424 275.509644,327.125854 274.434357,328.204315 
	C274.112122,327.058075 273.215759,325.659607 273.585693,324.817444 
	C274.386444,322.994751 275.867035,321.755493 277.577942,324.656189 
z"/>
<path fill="#4183D4" opacity="1.000000" stroke="none" 
	d="
M309.522827,372.070099 
	C309.474823,372.089569 309.466736,371.895874 309.466736,371.895874 
	C309.466736,371.895874 309.570801,372.050629 309.522827,372.070099 
z"/>
<path fill="#3C7FD1" opacity="1.000000" stroke="none" 
	d="
M246.091095,328.423462 
	C246.759933,327.800842 247.532745,327.403168 248.636703,326.968719 
	C248.043610,327.504089 247.119339,328.076263 246.091095,328.423462 
z"/>
<path fill="#3479CC" opacity="1.000000" stroke="none" 
	d="
M214.848663,143.913025 
	C213.697693,144.922699 212.208969,145.888580 210.382050,146.922638 
	C210.396255,144.323730 211.652176,142.949646 214.848663,143.913025 
z"/>
<path fill="#3479CC" opacity="1.000000" stroke="none" 
	d="
M208.534149,120.690155 
	C208.131500,120.769981 207.777817,120.668015 207.435516,120.536423 
	C207.421509,120.531029 207.514648,120.246910 207.557877,120.092651 
	C207.900299,120.229454 208.242722,120.366249 208.534149,120.690155 
z"/>
<path fill="#377CCF" opacity="1.000000" stroke="none" 
	d="
M232.149979,336.212769 
	C232.020721,336.169617 232.488174,336.013489 232.728729,335.957458 
	C232.797623,336.147736 232.567612,336.265900 232.149979,336.212769 
z"/>
<path fill="#377CCF" opacity="1.000000" stroke="none" 
	d="
M233.091766,335.854553 
	C233.089340,335.693756 233.276077,335.419800 233.716919,335.171387 
	C233.760574,335.403198 233.530533,335.584717 233.091766,335.854553 
z"/>
<path fill="#508FDC" opacity="1.000000" stroke="none" 
	d="
M356.596130,305.467773 
	C358.243958,307.258667 359.891205,309.081390 361.538483,310.904083 
	C355.199249,312.631622 357.585632,308.400726 356.639343,305.894836 
	C356.531891,305.483978 356.595551,305.499573 356.596130,305.467773 
z"/>
<path fill="#62D4A6" opacity="1.000000" stroke="none" 
	d="
M317.975708,287.884735 
	C314.352203,290.038483 310.728638,292.192261 306.570923,294.164795 
	C305.691376,291.883301 305.074860,289.786560 305.047882,287.682220 
	C304.934967,278.873657 305.129303,270.059448 304.903015,261.255249 
	C304.848816,259.146545 303.610443,257.068298 302.954956,254.510223 
	C302.948456,241.383728 302.903717,228.723022 303.130188,215.779449 
	C303.923859,213.960083 304.880249,212.429092 304.899689,210.886276 
	C305.046875,199.219315 305.010193,187.550064 305.030884,175.881516 
	C309.259949,178.008362 313.488983,180.135208 317.865173,182.982941 
	C317.674896,188.447830 317.017029,193.194214 317.052185,197.935455 
	C317.274597,227.919189 317.650482,257.901764 317.975708,287.884735 
z"/>
<path fill="#2EA672" opacity="1.000000" stroke="none" 
	d="
M225.836868,177.957169 
	C228.582901,175.471832 231.501984,173.741089 235.725250,176.330078 
	C240.429886,184.628128 238.545425,193.096832 239.048721,201.301468 
	C239.391678,206.892303 240.061646,212.442627 233.546448,215.275009 
	C233.298721,215.382690 233.194855,215.821335 233.011902,216.567078 
	C232.997803,227.476349 233.532272,237.961945 232.802719,248.358871 
	C232.326385,255.147110 235.369400,258.178802 241.091705,260.450531 
	C241.427261,261.594360 241.778473,262.394958 241.782623,263.197327 
	C241.833725,273.097198 242.055771,283.005920 241.669922,292.890411 
	C241.587860,294.992645 239.243927,297.006592 237.942078,299.061188 
	C237.942062,299.061188 237.996323,299.003662 237.914993,298.794373 
	C237.203964,298.404724 236.574265,298.224396 235.944565,298.044098 
	C231.051926,295.256805 226.159286,292.469513 221.381592,289.189331 
	C223.090485,288.543854 224.684464,288.391205 226.674072,288.200684 
	C226.788574,286.087372 226.982574,284.133728 226.986191,282.179779 
	C227.012375,268.037384 226.999832,253.894882 226.999985,239.752411 
	C227.000168,223.817398 227.086899,207.881653 226.947800,191.947861 
	C226.907059,187.281418 226.224991,182.620575 225.836868,177.957169 
M227.500153,291.471375 
	C227.500153,291.471375 227.514709,291.511505 227.500153,291.471375 
z"/>
<path fill="#279F6B" opacity="1.000000" stroke="none" 
	d="
M225.531708,178.117126 
	C226.224991,182.620575 226.907059,187.281418 226.947800,191.947861 
	C227.086899,207.881653 227.000168,223.817398 226.999985,239.752411 
	C226.999832,253.894882 227.012375,268.037384 226.986191,282.179779 
	C226.982574,284.133728 226.788574,286.087372 226.674072,288.200684 
	C224.684464,288.391205 223.090485,288.543854 221.212250,288.886169 
	C218.719040,287.934479 216.510117,286.793091 214.236328,285.043823 
	C214.929428,282.989838 216.275040,281.567200 216.333817,280.093231 
	C216.502197,275.870483 216.028641,271.627106 216.020660,267.391479 
	C215.978058,244.799973 216.171417,222.206009 215.863998,199.618607 
	C215.798386,194.797653 213.995346,190.000336 212.992722,185.192139 
	C217.070648,182.887115 221.148590,180.582092 225.531708,178.117126 
z"/>
<path fill="#68DBAD" opacity="1.000000" stroke="none" 
	d="
M318.326843,287.871216 
	C317.650482,257.901764 317.274597,227.919189 317.052185,197.935455 
	C317.017029,193.194214 317.674896,188.447830 318.032104,183.307617 
	C319.976105,183.698105 321.900330,184.484787 324.120422,185.779572 
	C324.626648,186.525116 324.857117,186.741043 325.107758,186.935440 
	C325.107758,186.935440 325.574127,187.004654 325.964539,187.231445 
	C326.597900,187.640167 326.849304,187.809570 327.109161,187.966446 
	C327.109161,187.966446 327.041077,187.953857 327.124878,188.274414 
	C327.159363,219.761047 327.109985,250.927124 327.060608,282.093201 
	C327.060608,282.093201 327.041412,282.028748 326.884705,282.151917 
	C326.471436,282.435486 326.234375,282.620819 326.016846,282.831116 
	C323.570557,284.506653 321.124268,286.182159 318.326843,287.871216 
z"/>
<path fill="#6FE1B3" opacity="1.000000" stroke="none" 
	d="
M327.427399,282.045502 
	C327.109985,250.927124 327.159363,219.761047 327.135193,188.241364 
	C330.604492,189.879089 334.218658,191.758820 337.637115,193.944580 
	C338.435883,194.455307 338.952515,196.002869 338.955536,197.075211 
	C339.027130,222.365158 339.057434,247.655655 338.890320,272.944702 
	C338.880554,274.423676 337.457458,276.326233 336.144714,277.271790 
	C333.565002,279.130035 330.599884,280.453247 327.427399,282.045502 
z"/>
<path fill="#3CB07F" opacity="1.000000" stroke="none" 
	d="
M233.023926,216.105774 
	C233.194855,215.821335 233.298721,215.382690 233.546448,215.275009 
	C240.061646,212.442627 239.391678,206.892303 239.048721,201.301468 
	C238.545425,193.096832 240.429886,184.628128 236.069183,176.518372 
	C243.075928,180.014297 250.168564,183.876434 257.284546,187.695099 
	C258.384949,188.285629 259.592438,188.676666 260.872345,189.869446 
	C260.330750,193.803146 259.209320,197.011124 259.094330,200.254807 
	C258.813354,208.178802 259.063660,216.120300 258.948151,224.052521 
	C258.919861,225.997513 258.308411,227.934021 257.627533,229.812195 
	C249.201309,225.201904 241.112625,220.653839 233.023926,216.105774 
z"/>
<path fill="#229965" opacity="1.000000" stroke="none" 
	d="
M212.658875,185.258316 
	C213.995346,190.000336 215.798386,194.797653 215.863998,199.618607 
	C216.171417,222.206009 215.978058,244.799973 216.020660,267.391479 
	C216.028641,271.627106 216.502197,275.870483 216.333817,280.093231 
	C216.275040,281.567200 214.929428,282.989838 214.054825,284.754700 
	C211.503403,283.768372 209.068634,282.463196 206.488342,280.620544 
	C206.562088,277.783142 206.961929,275.484100 206.973022,273.183167 
	C207.098846,247.088943 207.101364,220.993927 207.322235,194.900665 
	C207.352341,191.341736 205.264374,191.282532 202.900833,191.004730 
	C206.042221,189.111313 209.183624,187.217896 212.658875,185.258316 
z"/>
<path fill="#1B945F" opacity="1.000000" stroke="none" 
	d="
M202.604614,191.130508 
	C205.264374,191.282532 207.352341,191.341736 207.322235,194.900665 
	C207.101364,220.993927 207.098846,247.088943 206.973022,273.183167 
	C206.961929,275.484100 206.562088,277.783142 206.180725,280.454865 
	C204.854095,279.913452 203.689560,279.000214 202.002228,277.786957 
	C200.950882,277.342133 200.422302,277.197327 199.893738,277.052551 
	C199.893738,277.052551 199.488983,276.963013 199.226593,276.499786 
	C198.641785,273.076111 198.050125,270.116638 198.039383,267.155060 
	C197.950699,242.716202 197.969696,218.276947 197.956085,193.837799 
	C199.406845,192.977295 200.857620,192.116791 202.604614,191.130508 
z"/>
<path fill="#3CB07F" opacity="1.000000" stroke="none" 
	d="
M238.114624,299.361145 
	C239.243927,297.006592 241.587860,294.992645 241.669922,292.890411 
	C242.055771,283.005920 241.833725,273.097198 241.782623,263.197327 
	C241.778473,262.394958 241.427261,261.594360 241.458801,260.379242 
	C246.789993,263.024445 251.899689,266.083313 257.170807,269.302917 
	C257.570435,269.653564 257.821106,269.825348 258.056824,269.960815 
	C258.029419,269.942596 258.088593,269.913391 258.088593,269.913391 
	C258.079193,280.773041 258.175079,291.634674 257.974548,302.490784 
	C257.932800,304.749084 256.793488,306.987091 256.065857,309.554993 
	C250.076843,306.470703 244.182007,303.065887 238.114624,299.361145 
z"/>
<path fill="#5ACD9E" opacity="1.000000" stroke="none" 
	d="
M304.834442,175.550629 
	C305.010193,187.550064 305.046875,199.219315 304.899689,210.886276 
	C304.880249,212.429092 303.923859,213.960083 302.773010,215.780762 
	C297.808441,218.410645 293.472229,220.756332 289.152100,222.739349 
	C291.866241,219.420456 291.306366,216.010391 291.149902,212.348572 
	C290.759674,203.216370 291.021332,194.056290 291.021332,184.859787 
	C289.784485,184.592621 288.349060,184.282562 286.913605,183.972504 
	C290.984863,181.432190 294.972321,178.739609 299.170654,176.430298 
	C300.740173,175.566971 302.801086,175.597031 304.834442,175.550629 
z"/>
<path fill="#5ACD9E" opacity="1.000000" stroke="none" 
	d="
M302.916687,254.976028 
	C303.610443,257.068298 304.848816,259.146545 304.903015,261.255249 
	C305.129303,270.059448 304.934967,278.873657 305.047882,287.682220 
	C305.074860,289.786560 305.691376,291.883301 306.293030,294.389465 
	C300.969330,297.867188 295.389404,300.938995 289.516418,303.696411 
	C292.276917,299.495056 292.525391,295.176666 292.099426,290.355377 
	C291.449188,282.995636 291.329529,275.551697 291.595795,268.165527 
	C291.713165,264.909149 290.712158,263.949249 288.025696,263.645508 
	C293.097260,260.543884 298.006958,257.759949 302.916687,254.976028 
z"/>
<path fill="#44B888" opacity="1.000000" stroke="none" 
	d="
M257.965057,229.874420 
	C258.308411,227.934021 258.919861,225.997513 258.948151,224.052521 
	C259.063660,216.120300 258.813354,208.178802 259.094330,200.254807 
	C259.209320,197.011124 260.330750,193.803146 261.065186,190.176376 
	C262.845856,190.859146 264.555603,191.944473 266.669617,193.454163 
	C271.083801,199.076263 272.613434,204.889816 272.073639,211.467850 
	C271.694763,216.085220 272.248383,220.775925 271.931305,225.402740 
	C271.729889,228.341293 270.695648,231.222733 269.835144,234.444702 
	C265.745270,233.131210 261.855164,231.502823 257.965057,229.874420 
z"/>
<path fill="#4CBF8E" opacity="1.000000" stroke="none" 
	d="
M271.406189,314.057739 
	C271.810455,312.356964 272.579437,310.598907 273.445068,308.619843 
	C268.010101,304.501068 271.920685,298.632538 271.128174,293.502777 
	C270.214722,287.590179 269.689636,281.617554 269.090820,274.953369 
	C271.428864,273.124329 273.671936,272.012909 276.105560,270.798706 
	C276.547821,270.548737 276.774200,270.369568 277.199310,270.091492 
	C277.423401,270.024628 277.886078,269.956543 278.177216,269.892914 
	C278.965637,269.515686 279.462891,269.202087 280.035065,268.654175 
	C280.307312,268.140228 280.570953,267.955048 281.002930,268.279724 
	C281.402771,271.304718 281.863251,273.907684 281.970001,276.525055 
	C282.399689,287.061401 282.720062,297.602203 283.080841,308.141357 
	C279.310883,310.094391 275.540894,312.047455 271.406189,314.057739 
z"/>
<path fill="#51C595" opacity="1.000000" stroke="none" 
	d="
M286.550995,184.000061 
	C288.349060,184.282562 289.784485,184.592621 291.021332,184.859787 
	C291.021332,194.056290 290.759674,203.216370 291.149902,212.348572 
	C291.306366,216.010391 291.866241,219.420456 289.122620,222.719696 
	C289.077087,223.062714 289.123596,223.009399 288.925354,223.175690 
	C288.486053,223.587723 288.245056,223.833466 288.042236,224.063919 
	C288.080414,224.048630 288.110748,224.125137 287.762115,224.113800 
	C286.293396,224.762878 285.173309,225.423279 283.897247,226.385651 
	C282.175262,227.491714 280.609253,228.295822 279.072601,228.735092 
	C279.904480,226.294128 281.350739,224.233276 281.400360,222.139313 
	C281.641785,211.950790 281.509491,201.753433 281.509491,191.878906 
	C279.640259,190.964264 277.814453,190.070892 275.988678,189.177521 
	C279.388580,187.460892 282.788483,185.744263 286.550995,184.000061 
z"/>
<path fill="#4CBF8E" opacity="1.000000" stroke="none" 
	d="
M275.647461,189.231827 
	C277.814453,190.070892 279.640259,190.964264 281.509491,191.878906 
	C281.509491,201.753433 281.641785,211.950790 281.400360,222.139313 
	C281.350739,224.233276 279.904480,226.294128 278.907104,229.042252 
	C275.819824,231.186096 272.927338,232.657944 270.034882,234.129791 
	C270.695648,231.222733 271.729889,228.341293 271.931305,225.402740 
	C272.248383,220.775925 271.694763,216.085220 272.073639,211.467850 
	C272.613434,204.889816 271.083801,199.076263 267.036560,193.525909 
	C269.768250,191.877579 272.537231,190.581863 275.647461,189.231827 
z"/>
<path fill="#51C595" opacity="1.000000" stroke="none" 
	d="
M283.372253,308.014313 
	C282.720062,297.602203 282.399689,287.061401 281.970001,276.525055 
	C281.863251,273.907684 281.402771,271.304718 281.165588,267.960724 
	C283.438812,266.138611 285.651337,265.050903 287.863861,263.963196 
	C290.712158,263.949249 291.713165,264.909149 291.595795,268.165527 
	C291.329529,275.551697 291.449188,282.995636 292.099426,290.355377 
	C292.525391,295.176666 292.276917,299.495056 289.150635,303.733215 
	C289.077911,304.084442 289.029602,304.035614 288.867126,304.187439 
	C288.469513,304.586731 288.234375,304.834229 287.999268,305.081696 
	C287.999268,305.081696 288.023804,305.020172 287.770935,305.096191 
	C287.040741,305.464447 286.563416,305.756683 286.086060,306.048920 
	C285.278595,306.661713 284.471100,307.274475 283.372253,308.014313 
z"/>
<path fill="#279F6B" opacity="1.000000" stroke="none" 
	d="
M197.595062,194.091095 
	C197.969696,218.276947 197.950699,242.716202 198.039383,267.155060 
	C198.050125,270.116638 198.641785,273.076111 199.027008,276.443848 
	C198.407364,275.748535 197.131409,274.647003 197.129410,273.543152 
	C197.081497,247.143707 197.170181,220.744003 197.595062,194.091095 
z"/>
<path fill="#3CB07F" opacity="1.000000" stroke="none" 
	d="
M236.082870,298.316345 
	C236.574265,298.224396 237.203964,298.404724 237.895981,298.828979 
	C237.379257,298.911469 236.800217,298.750031 236.082870,298.316345 
z"/>
<path fill="#5ACD9E" opacity="1.000000" stroke="none" 
	d="
M286.388580,306.018555 
	C286.563416,305.756683 287.040741,305.464447 287.798370,305.114807 
	C287.616119,305.367645 287.153595,305.677917 286.388580,306.018555 
z"/>
<path fill="#279F6B" opacity="1.000000" stroke="none" 
	d="
M200.029037,277.332336 
	C200.422302,277.197327 200.950882,277.342133 201.709595,277.642242 
	C201.347946,277.735779 200.756149,277.673950 200.029037,277.332336 
z"/>
<path fill="#5ACD9E" opacity="1.000000" stroke="none" 
	d="
M288.268127,305.005493 
	C288.234375,304.834229 288.469513,304.586731 288.895142,304.167572 
	C288.902771,304.307037 288.719879,304.618164 288.268127,305.005493 
z"/>
<path fill="#6FE1B3" opacity="1.000000" stroke="none" 
	d="
M326.279846,282.859863 
	C326.234375,282.620819 326.471436,282.435486 326.918335,282.151550 
	C326.920044,282.314850 326.731445,282.601746 326.279846,282.859863 
z"/>
<path fill="#6FE1B3" opacity="1.000000" stroke="none" 
	d="
M327.028351,187.710022 
	C326.849304,187.809570 326.597900,187.640167 326.188904,187.303772 
	C326.331116,187.250732 326.639313,187.352173 327.028351,187.710022 
z"/>
<path fill="#6FE1B3" opacity="1.000000" stroke="none" 
	d="
M325.028687,186.694702 
	C324.857117,186.741043 324.626648,186.525116 324.271912,186.103088 
	C324.401520,186.096970 324.675568,186.275467 325.028687,186.694702 
z"/>
<path fill="#000000" opacity="1.000000" stroke="none" 
	d="
M288.025696,263.645508 
	C285.651337,265.050903 283.438812,266.138611 281.063629,267.545319 
	C280.570953,267.955048 280.307312,268.140228 279.722229,268.704346 
	C278.851654,269.311371 278.368866,269.633972 277.886078,269.956543 
	C277.886078,269.956543 277.423401,270.024628 276.946838,270.058838 
	C276.285187,270.362518 276.100098,270.632019 275.915039,270.901520 
	C273.671936,272.012909 271.428864,273.124329 269.036377,274.559387 
	C268.492615,274.911896 268.098206,274.940735 267.321106,274.689056 
	C266.631836,274.316803 266.325287,274.225067 266.018707,274.133331 
	C263.614014,272.759735 261.209320,271.386139 258.446594,269.962952 
	C258.088593,269.913391 258.029419,269.942596 257.982941,269.703094 
	C257.627441,269.356476 257.318420,269.249329 257.009399,269.142212 
	C251.899689,266.083313 246.789993,263.024445 241.313202,260.036835 
	C235.369400,258.178802 232.326385,255.147110 232.802719,248.358871 
	C233.532272,237.961945 232.997803,227.476349 233.011902,216.567078 
	C241.112625,220.653839 249.201309,225.201904 257.627533,229.812195 
	C261.855164,231.502823 265.745270,233.131210 269.835144,234.444702 
	C272.927338,232.657944 275.819824,231.186096 278.877747,229.407089 
	C280.609253,228.295822 282.175262,227.491714 284.234467,226.342270 
	C285.855347,225.373001 286.983063,224.749069 288.110748,224.125137 
	C288.110748,224.125137 288.080414,224.048630 288.327576,224.014328 
	C288.757690,223.656479 288.940643,223.332932 289.123596,223.009399 
	C289.123596,223.009399 289.077087,223.062714 289.106567,223.082367 
	C293.472229,220.756332 297.808441,218.410645 302.501831,216.063644 
	C302.903717,228.723022 302.948456,241.383728 302.954956,254.510223 
	C298.006958,257.759949 293.097260,260.543884 288.025696,263.645508 
z"/>
<path fill="#4CBF8E" opacity="1.000000" stroke="none" 
	d="
M266.180115,274.289734 
	C266.325287,274.225067 266.631836,274.316803 267.025391,274.654144 
	C266.836395,274.780914 266.579437,274.629730 266.180115,274.289734 
z"/>
<path fill="#279F6B" opacity="1.000000" stroke="none" 
	d="
M227.507431,291.491455 
	C227.514709,291.511505 227.500153,291.471375 227.507431,291.491455 
z"/>
<path fill="#44B888" opacity="1.000000" stroke="none" 
	d="
M257.170807,269.302917 
	C257.318420,269.249329 257.627441,269.356476 258.010315,269.721313 
	C257.821106,269.825348 257.570435,269.653564 257.170807,269.302917 
z"/>
<path fill="#51C595" opacity="1.000000" stroke="none" 
	d="
M278.177216,269.892914 
	C278.368866,269.633972 278.851654,269.311371 279.647278,268.938629 
	C279.462891,269.202087 278.965637,269.515686 278.177216,269.892914 
z"/>
<path fill="#51C595" opacity="1.000000" stroke="none" 
	d="
M276.105560,270.798706 
	C276.100098,270.632019 276.285187,270.362518 276.722717,270.125671 
	C276.774200,270.369568 276.547821,270.548737 276.105560,270.798706 
z"/>
<path fill="#5ACD9E" opacity="1.000000" stroke="none" 
	d="
M287.762115,224.113800 
	C286.983063,224.749069 285.855347,225.373001 284.390442,226.040314 
	C285.173309,225.423279 286.293396,224.762878 287.762115,224.113800 
z"/>
<path fill="#5ACD9E" opacity="1.000000" stroke="none" 
	d="
M288.925354,223.175690 
	C288.940643,223.332932 288.757690,223.656479 288.289368,224.029617 
	C288.245056,223.833466 288.486053,223.587723 288.925354,223.175690 
z"/>
</svg>