<svg version="1.1" id="Layer_1" xmlns="http://www.w3.org/2000/svg" xmlns:xlink="http://www.w3.org/1999/xlink" x="0px" y="0px"
	 width="100%" viewBox="0 0 118 135" enable-background="new 0 0 118 135" xml:space="preserve">
<path fill="#000000" opacity="1.000000" stroke="none" 
	d="
M66.000000,136.000000 
	C44.021263,136.000000 22.542528,136.000000 1.031896,136.000000 
	C1.031896,91.065788 1.031896,46.131550 1.031896,1.098655 
	C40.228443,1.098655 79.457214,1.098655 118.842995,1.098655 
	C118.842995,45.999561 118.842995,90.999733 118.842995,136.000000 
	C101.465355,136.000000 83.982674,136.000000 66.000000,136.000000 
M60.156704,94.649239 
	C60.726250,94.786697 61.295795,94.924156 62.209999,95.680275 
	C65.774521,97.798439 69.339050,99.916611 73.221458,102.671417 
	C74.035751,103.159225 74.799339,103.780411 75.672821,104.112556 
	C80.310364,105.876015 84.085449,111.017548 90.632515,107.823257 
	C91.425667,107.157463 92.218811,106.491669 93.536140,105.893402 
	C93.722855,105.607269 93.909561,105.321144 94.034622,105.020424 
	C94.034622,105.020424 94.065475,105.075638 94.789673,104.989967 
	C98.858223,102.602623 102.926781,100.215271 107.659248,97.797356 
	C109.077065,96.806839 110.494881,95.816322 112.760414,94.598343 
	C112.832596,75.735046 112.914841,56.871754 112.932213,38.008408 
	C112.932777,37.392036 112.272308,36.775059 111.312256,35.825085 
	C109.891983,35.185345 108.471703,34.545605 107.034531,33.972294 
	C107.034531,33.972294 107.101997,33.960217 106.924866,33.466232 
	C106.622520,33.367279 106.320168,33.268326 105.380821,32.870770 
	C102.919373,31.300930 100.457932,29.731092 97.355957,27.860819 
	C94.899750,26.299973 92.443550,24.739128 89.491165,23.046551 
	C89.324150,23.083845 89.157143,23.121141 88.351860,22.850334 
	C86.911339,22.958672 85.470818,23.067011 83.304955,23.035286 
	C80.163071,25.009415 77.021179,26.983545 73.141701,28.996645 
	C69.377220,31.332863 65.612740,33.669083 61.245079,36.045380 
	C60.519241,36.339870 59.793407,36.634361 58.999828,36.205559 
	C57.033142,35.119942 55.066452,34.034325 52.811928,32.315548 
	C49.222370,30.169386 45.632812,28.023224 41.706429,25.256931 
	C36.425194,20.860180 31.498899,22.659325 26.662354,26.112402 
	C26.134172,26.489500 25.576962,26.825935 24.342665,27.227026 
	C21.862000,28.809486 19.381334,30.391945 16.437731,32.100124 
	C16.141865,32.285316 15.985076,32.552216 15.490570,33.022686 
	C15.490570,33.022686 15.022840,33.175694 14.363046,33.196938 
	C12.893400,34.418404 11.423754,35.639870 9.255439,37.393608 
	C9.225996,46.598240 9.196552,55.802868 9.035474,65.935654 
	C9.022627,71.673843 8.899668,77.414719 9.039136,83.149200 
	C9.119963,86.472511 9.622998,89.785553 10.232118,93.743813 
	C13.809052,96.189201 17.385986,98.634590 21.242239,101.718834 
	C24.809572,103.513992 28.376905,105.309151 32.276176,107.775696 
	C33.956417,108.130203 35.858753,109.155853 37.267422,108.689697 
	C39.678326,107.891891 41.780212,106.160263 44.539883,104.878944 
	C44.735966,104.594917 44.932049,104.310898 45.655910,103.847443 
	C46.091087,103.511726 46.526264,103.176003 47.673038,102.788300 
	C51.488243,99.879837 55.303448,96.971367 59.519241,94.031746 
	C59.519241,94.031746 59.915844,94.096191 60.156704,94.649239 
z"/>
<path fill="#39DE99" opacity="1.000000" stroke="none" 
	d="
M31.944239,107.104309 
	C28.376905,105.309151 24.809572,103.513992 21.207611,101.071030 
	C21.907438,98.855598 23.277672,97.288742 23.279593,95.720207 
	C23.302973,76.625092 23.020544,57.529427 23.075716,38.434647 
	C23.088924,33.863579 21.855139,31.369560 16.900669,31.974405 
	C19.381334,30.391945 21.862000,28.809486 24.997116,27.383081 
	C27.564713,27.676760 29.477859,27.814383 31.299860,27.945450 
	C32.489056,36.404011 33.653732,44.688187 34.848969,53.442966 
	C34.859135,62.601303 34.838741,71.289032 34.749855,80.109200 
	C34.637283,80.571594 34.771896,80.808296 35.290703,80.984634 
	C35.496204,81.017509 35.906403,81.088104 36.107834,81.325127 
	C37.204483,82.087883 38.099701,82.613617 38.985226,83.507263 
	C38.753319,84.654350 38.762520,85.887733 38.270916,86.138214 
	C35.322601,87.640419 33.748821,89.352318 34.755684,93.119019 
	C35.461426,95.759232 34.891907,98.740341 34.891907,101.569206 
	C35.306576,101.583740 35.721249,101.598274 36.135918,101.612808 
	C34.738693,103.443314 33.341465,105.273819 31.944239,107.104309 
z"/>
<path fill="#32DD94" opacity="1.000000" stroke="none" 
	d="
M16.669201,32.037266 
	C21.855139,31.369560 23.088924,33.863579 23.075716,38.434647 
	C23.020544,57.529427 23.302973,76.625092 23.279593,95.720207 
	C23.277672,97.288742 21.907438,98.855598 21.067951,100.751602 
	C17.385986,98.634590 13.809052,96.189201 10.099695,92.949158 
	C9.965167,83.102112 9.963063,74.049713 9.972994,64.529022 
	C9.974722,54.994270 9.964414,45.927799 9.954106,36.861332 
	C11.423754,35.639870 12.893400,34.418404 14.823147,33.245384 
	C15.589700,33.318958 15.817738,33.187954 15.967362,32.900822 
	C15.985076,32.552216 16.141865,32.285316 16.669201,32.037266 
z"/>
<path fill="#6BE4B4" opacity="1.000000" stroke="none" 
	d="
M97.996475,28.161255 
	C100.457932,29.731092 102.919373,31.300930 105.861267,33.176125 
	C106.576546,33.670593 106.829971,33.830173 107.101997,33.960217 
	C107.101997,33.960217 107.034531,33.972294 107.097977,34.302876 
	C107.443390,37.369980 107.866615,40.101292 107.967834,42.844482 
	C108.070236,45.619511 107.784775,48.406425 107.789627,51.187920 
	C107.806732,61.002083 107.968018,70.817230 107.854012,80.629433 
	C107.828270,82.845108 106.557228,85.039337 106.487663,87.263084 
	C106.377754,90.775963 106.798927,94.305466 106.995331,97.827927 
	C102.926781,100.215271 98.858223,102.602623 94.435173,104.648422 
	C94.634674,99.628723 99.950012,95.426620 94.488373,90.366730 
	C100.263229,87.759987 99.175751,85.103409 96.420471,83.219025 
	C97.028542,79.318611 97.823616,76.213943 97.934677,73.084999 
	C98.156189,66.844452 98.002480,60.590565 98.003151,54.342190 
	C98.003662,49.567356 98.003250,44.792522 98.003250,40.017689 
	C98.470055,39.975971 98.936852,39.934258 99.403656,39.892540 
	C98.086754,38.463779 96.769852,37.035023 95.969254,36.166428 
	C96.759407,33.046265 97.377945,30.603760 97.996475,28.161255 
z"/>
<path fill="#216BC6" opacity="1.000000" stroke="none" 
	d="
M59.067570,36.928852 
	C59.793407,36.634361 60.519241,36.339870 61.792946,36.266304 
	C65.530434,38.339283 68.720055,40.191334 72.084114,42.340279 
	C76.192154,45.067131 80.125755,47.497089 83.999710,50.239922 
	C83.611961,51.327438 83.283852,52.102077 82.593826,52.919373 
	C75.157196,56.974064 68.082497,60.986099 60.693726,64.851318 
	C58.530819,63.652081 56.712418,62.541306 54.827545,61.557926 
	C48.623341,58.321060 42.395050,55.130356 36.177567,51.578957 
	C38.801147,49.196449 41.423168,47.156910 44.377342,45.052086 
	C46.153732,44.025253 47.597969,43.063702 49.399323,42.031723 
	C52.860153,40.283813 55.963860,38.606331 59.067570,36.928852 
z"/>
<path fill="#65E3B1" opacity="1.000000" stroke="none" 
	d="
M97.676216,28.011036 
	C97.377945,30.603760 96.759407,33.046265 95.969254,36.166428 
	C96.769852,37.035023 98.086754,38.463779 99.403656,39.892540 
	C98.936852,39.934258 98.470055,39.975971 98.003250,40.017689 
	C98.003250,44.792522 98.003662,49.567356 98.003151,54.342190 
	C98.002480,60.590565 98.156189,66.844452 97.934677,73.084999 
	C97.823616,76.213943 97.028542,79.318611 96.420471,83.219025 
	C99.175751,85.103409 100.263229,87.759987 94.488373,90.366730 
	C99.950012,95.426620 94.634674,99.628723 94.073074,104.691254 
	C94.065475,105.075638 94.034622,105.020424 93.868500,105.137009 
	C93.444725,105.411156 93.214584,105.601921 93.011963,105.825882 
	C92.218811,106.491669 91.425667,107.157463 90.310875,107.451233 
	C88.781677,102.675682 86.783165,98.789124 88.369949,93.504807 
	C89.108383,91.045692 88.976463,84.241356 82.940796,82.756042 
	C82.982788,82.554024 83.056366,82.147789 83.364151,82.083145 
	C84.391380,81.611244 85.110825,81.203995 86.090637,80.840271 
	C86.525887,80.903603 86.700760,80.923409 87.136429,80.621307 
	C87.283165,71.194382 87.169098,62.089363 87.052383,52.651291 
	C87.076050,51.874920 87.102356,51.431614 87.478218,50.949383 
	C88.302361,49.624439 89.298134,48.278671 89.158775,47.063030 
	C88.633873,42.484306 86.088547,37.757908 89.142242,33.431313 
	C91.600128,29.948875 91.151688,26.710049 89.987343,23.178284 
	C92.443550,24.739128 94.899750,26.299973 97.676216,28.011036 
z"/>
<path fill="#41DF9C" opacity="1.000000" stroke="none" 
	d="
M32.110207,107.440002 
	C33.341465,105.273819 34.738693,103.443314 36.135918,101.612808 
	C35.721249,101.598274 35.306576,101.583740 34.891907,101.569206 
	C34.891907,98.740341 35.461426,95.759232 34.755684,93.119019 
	C33.748821,89.352318 35.322601,87.640419 38.270916,86.138214 
	C38.762520,85.887733 38.753319,84.654350 39.313950,83.602676 
	C42.767811,84.936234 45.883263,86.542267 49.085571,88.494881 
	C51.607719,92.503410 51.061943,95.928902 48.522011,99.329674 
	C47.774708,100.330254 47.469345,101.660896 46.961441,102.840279 
	C46.526264,103.176003 46.091087,103.511726 45.190304,104.046951 
	C44.459084,104.403152 44.221474,104.594589 44.011864,104.820786 
	C41.780212,106.160263 39.678326,107.891891 37.267422,108.689697 
	C35.858753,109.155853 33.956417,108.130203 32.110207,107.440002 
z"/>
<path fill="#3FDF9C" opacity="1.000000" stroke="none" 
	d="
M44.045189,45.117371 
	C41.423168,47.156910 38.801147,49.196449 36.109966,51.814026 
	C36.040810,52.392059 35.980995,52.876507 35.690727,52.905067 
	C35.206444,52.946537 35.012428,52.959446 34.818409,52.972359 
	C33.653732,44.688187 32.489056,36.404011 31.299860,27.945450 
	C29.477859,27.814383 27.564713,27.676760 25.342390,27.360184 
	C25.576962,26.825935 26.134172,26.489500 26.662354,26.112402 
	C31.498899,22.659325 36.425194,20.860180 41.798737,25.946892 
	C41.514896,31.190893 41.138756,35.744938 40.807087,39.760502 
	C41.906052,41.578545 42.975620,43.347958 44.045189,45.117371 
z"/>
<path fill="#72E4B8" opacity="1.000000" stroke="none" 
	d="
M107.327286,97.812637 
	C106.798927,94.305466 106.377754,90.775963 106.487663,87.263084 
	C106.557228,85.039337 107.828270,82.845108 107.854012,80.629433 
	C107.968018,70.817230 107.806732,61.002083 107.789627,51.187920 
	C107.784775,48.406425 108.070236,45.619511 107.967834,42.844482 
	C107.866615,40.101292 107.443390,37.369980 107.106422,34.269661 
	C108.471703,34.545605 109.891983,35.185345 111.634491,36.450424 
	C111.942055,56.325779 111.927383,75.575798 111.912704,94.825806 
	C110.494881,95.816322 109.077065,96.806839 107.327286,97.812637 
z"/>
<path fill="#5FE3AD" opacity="1.000000" stroke="none" 
	d="
M89.739258,23.112417 
	C91.151688,26.710049 91.600128,29.948875 89.142242,33.431313 
	C86.088547,37.757908 88.633873,42.484306 89.158775,47.063030 
	C89.298134,48.278671 88.302361,49.624439 87.284363,50.768913 
	C86.427017,50.475780 86.113083,50.324196 85.602539,50.109299 
	C85.405914,50.045990 85.022301,49.892651 84.986267,49.553299 
	C83.299515,47.477776 81.648796,45.741604 79.998367,43.574280 
	C80.024437,41.825161 79.751709,40.414684 80.126633,39.204918 
	C81.944298,33.339806 78.882690,30.588905 73.879295,28.957676 
	C77.021179,26.983545 80.163071,25.009415 83.948814,23.280056 
	C86.058495,23.402695 87.524315,23.280565 88.990135,23.158436 
	C89.157143,23.121141 89.324150,23.083845 89.739258,23.112417 
z"/>
<path fill="#59E1AB" opacity="1.000000" stroke="none" 
	d="
M72.903572,102.034775 
	C69.339050,99.916611 65.774521,97.798439 62.101288,95.120361 
	C62.030071,94.391586 62.067566,94.222733 62.387745,93.933029 
	C68.738098,90.531319 74.805771,87.250443 81.069832,84.259964 
	C81.266220,89.091560 81.266220,93.632767 81.266220,99.655128 
	C79.304474,100.213356 76.104019,101.124069 72.903572,102.034775 
z"/>
<path fill="#60E2AD" opacity="1.000000" stroke="none" 
	d="
M73.062515,102.353104 
	C76.104019,101.124069 79.304474,100.213356 81.266220,99.655128 
	C81.266220,93.632767 81.266220,89.091560 81.247955,84.021759 
	C81.786064,83.314796 82.342430,83.136429 82.898804,82.958069 
	C88.976463,84.241356 89.108383,91.045692 88.369949,93.504807 
	C86.783165,98.789124 88.781677,102.675682 89.997047,107.456512 
	C84.085449,111.017548 80.310364,105.876015 75.672821,104.112556 
	C74.799339,103.780411 74.035751,103.159225 73.062515,102.353104 
z"/>
<path fill="#59E1AA" opacity="1.000000" stroke="none" 
	d="
M73.510498,28.977161 
	C78.882690,30.588905 81.944298,33.339806 80.126633,39.204918 
	C79.751709,40.414684 80.024437,41.825161 79.619354,43.551758 
	C76.796593,43.321384 74.353134,42.682388 71.909676,42.043388 
	C68.720055,40.191334 65.530434,38.339283 62.094536,36.246262 
	C65.612740,33.669083 69.377220,31.332863 73.510498,28.977161 
z"/>
<path fill="#44E19D" opacity="1.000000" stroke="none" 
	d="
M44.377342,45.052086 
	C42.975620,43.347958 41.906052,41.578545 40.807087,39.760502 
	C41.138756,35.744938 41.514896,31.190893 41.967148,26.256958 
	C45.632812,28.023224 49.222370,30.169386 52.722813,32.892181 
	C51.436535,36.346596 50.239368,39.224373 49.042202,42.102150 
	C47.597969,43.063702 46.153732,44.025253 44.377342,45.052086 
z"/>
<path fill="#4FDDA5" opacity="1.000000" stroke="none" 
	d="
M47.317238,102.814285 
	C47.469345,101.660896 47.774708,100.330254 48.522011,99.329674 
	C51.061943,95.928902 51.607719,92.503410 49.393669,88.583511 
	C51.095112,89.182167 52.575314,90.038780 54.386230,90.972641 
	C56.184181,92.054230 57.651417,93.058563 59.118649,94.062897 
	C55.303448,96.971367 51.488243,99.879837 47.317238,102.814285 
z"/>
<path fill="#7CCBAD" opacity="1.000000" stroke="none" 
	d="
M112.336563,94.712082 
	C111.927383,75.575798 111.942055,56.325779 111.938354,36.617065 
	C112.272308,36.775059 112.932777,37.392036 112.932213,38.008408 
	C112.914841,56.871754 112.832596,75.735046 112.336563,94.712082 
z"/>
<path fill="#4BDEA9" opacity="1.000000" stroke="none" 
	d="
M49.399323,42.031723 
	C50.239368,39.224373 51.436535,36.346596 52.866730,33.208763 
	C55.066452,34.034325 57.033142,35.119942 59.033699,36.567207 
	C55.963860,38.606331 52.860153,40.283813 49.399323,42.031723 
z"/>
<path fill="#47BF91" opacity="1.000000" stroke="none" 
	d="
M9.960958,64.997314 
	C9.963063,74.049713 9.965167,83.102112 9.951651,92.628860 
	C9.622998,89.785553 9.119963,86.472511 9.039136,83.149200 
	C8.899668,77.414719 9.022627,71.673843 9.299753,65.469025 
	C9.564034,65.002388 9.960958,64.997314 9.960958,64.997314 
z"/>
<path fill="#43BA8B" opacity="1.000000" stroke="none" 
	d="
M9.972994,64.529022 
	C9.960958,64.997314 9.564034,65.002388 9.365572,65.004944 
	C9.196552,55.802868 9.225996,46.598240 9.604773,37.127472 
	C9.964414,45.927799 9.974722,54.994270 9.972994,64.529022 
z"/>
<path fill="#418ED0" opacity="1.000000" stroke="none" 
	d="
M59.318947,94.047318 
	C57.651417,93.058563 56.184181,92.054230 54.656822,90.785110 
	C57.775059,89.384659 59.108135,91.365677 60.101387,93.886116 
	C60.039497,93.956108 59.915844,94.096191 59.915844,94.096191 
	C59.915844,94.096191 59.519241,94.031746 59.318947,94.047318 
z"/>
<path fill="#65E3B1" opacity="1.000000" stroke="none" 
	d="
M88.670998,23.004385 
	C87.524315,23.280565 86.058495,23.402695 84.311485,23.350086 
	C85.470818,23.067011 86.911339,22.958672 88.670998,23.004385 
z"/>
<path fill="#418ED0" opacity="1.000000" stroke="none" 
	d="
M62.105064,94.053871 
	C62.067566,94.222733 62.030071,94.391586 61.928963,94.811035 
	C61.295795,94.924156 60.726250,94.786697 60.036274,94.372711 
	C59.915844,94.096191 60.039497,93.956108 60.331924,93.918144 
	C60.624348,93.880180 61.090134,93.910858 61.344105,93.944916 
	C61.767071,94.003944 61.936069,94.028908 62.105064,94.053871 
z"/>
<path fill="#72E4B8" opacity="1.000000" stroke="none" 
	d="
M107.013428,33.713226 
	C106.829971,33.830173 106.576546,33.670593 106.179771,33.325428 
	C106.320168,33.268326 106.622520,33.367279 107.013428,33.713226 
z"/>
<path fill="#39DE99" opacity="1.000000" stroke="none" 
	d="
M15.728966,32.961754 
	C15.817738,33.187954 15.589700,33.318958 15.153044,33.234764 
	C15.022840,33.175694 15.490570,33.022686 15.728966,32.961754 
z"/>
<path fill="#4FDDA5" opacity="1.000000" stroke="none" 
	d="
M44.275871,104.849869 
	C44.221474,104.594589 44.459084,104.403152 44.926414,104.136673 
	C44.932049,104.310898 44.735966,104.594917 44.275871,104.849869 
z"/>
<path fill="#6BE4B4" opacity="1.000000" stroke="none" 
	d="
M93.274048,105.859642 
	C93.214584,105.601921 93.444725,105.411156 93.899323,105.144302 
	C93.909561,105.321144 93.722855,105.607269 93.274048,105.859642 
z"/>
<path fill="#4589DF" opacity="1.000000" stroke="none" 
	d="
M61.090134,93.910858 
	C61.090134,93.910858 60.624348,93.880180 60.393814,93.848152 
	C59.108135,91.365677 57.775059,89.384659 54.326103,90.707855 
	C52.575314,90.038780 51.095112,89.182167 49.306812,88.236923 
	C45.883263,86.542267 42.767811,84.936234 39.323639,83.234779 
	C38.099701,82.613617 37.204483,82.087883 36.133934,80.849968 
	C35.966068,71.050697 35.973534,61.963600 35.980995,52.876507 
	C35.980995,52.876507 36.040810,52.392059 36.108410,52.156990 
	C42.395050,55.130356 48.623341,58.321060 54.827545,61.557926 
	C56.712418,62.541306 58.530819,63.652081 60.696495,65.320175 
	C61.038929,75.260841 61.064529,84.585854 61.090134,93.910858 
z"/>
<path fill="#5BB3D7" opacity="1.000000" stroke="none" 
	d="
M35.690731,52.905067 
	C35.973534,61.963600 35.966068,71.050697 35.932503,80.612946 
	C35.906403,81.088104 35.496204,81.017509 35.229706,80.739349 
	C34.914917,80.299706 34.866634,80.138229 34.818352,79.976761 
	C34.838741,71.289032 34.859135,62.601303 34.848969,53.442966 
	C35.012428,52.959446 35.206444,52.946537 35.690731,52.905067 
z"/>
<path fill="#49D4B2" opacity="1.000000" stroke="none" 
	d="
M34.749859,80.109200 
	C34.866634,80.138229 34.914917,80.299706 35.024204,80.706467 
	C34.771896,80.808296 34.637283,80.571594 34.749859,80.109200 
z"/>
<path fill="#317ADC" opacity="1.000000" stroke="none" 
	d="
M61.344105,93.944916 
	C61.064529,84.585854 61.038929,75.260841 61.010559,65.466980 
	C68.082497,60.986099 75.157196,56.974064 82.756531,53.302368 
	C83.785622,56.544079 84.801651,59.465054 84.691315,62.342846 
	C84.437798,68.955673 83.635765,75.547462 83.056366,82.147789 
	C83.056366,82.147789 82.982788,82.554024 82.940796,82.756042 
	C82.342430,83.136429 81.786064,83.314796 81.051567,83.731369 
	C74.805771,87.250443 68.738098,90.531319 62.387745,93.933029 
	C61.936069,94.028908 61.767071,94.003944 61.344105,93.944916 
z"/>
<path fill="#347ECC" opacity="1.000000" stroke="none" 
	d="
M83.364159,82.083145 
	C83.635765,75.547462 84.437798,68.955673 84.691315,62.342846 
	C84.801651,59.465054 83.785622,56.544079 83.118454,53.259716 
	C83.283852,52.102077 83.611961,51.327438 84.240990,50.250389 
	C84.541916,49.947983 85.022301,49.892651 85.022301,49.892651 
	C85.022301,49.892651 85.405914,50.045990 85.644875,50.561638 
	C85.865974,60.983768 85.848114,70.890259 85.830261,80.796745 
	C85.110825,81.203995 84.391380,81.611244 83.364159,82.083145 
z"/>
<path fill="#5FDCBD" opacity="1.000000" stroke="none" 
	d="
M84.986267,49.553299 
	C85.022301,49.892651 84.541916,49.947983 84.300636,49.937515 
	C80.125755,47.497089 76.192154,45.067131 72.084114,42.340279 
	C74.353134,42.682388 76.796593,43.321384 79.619064,43.982910 
	C81.648796,45.741604 83.299515,47.477776 84.986267,49.553299 
z"/>
<path fill="#5EB1D9" opacity="1.000000" stroke="none" 
	d="
M86.090637,80.840271 
	C85.848114,70.890259 85.865974,60.983768 85.841492,50.624947 
	C86.113083,50.324196 86.427017,50.475780 86.934799,50.807835 
	C87.102356,51.431614 87.076050,51.874920 87.033752,53.120911 
	C86.970383,62.930134 86.923004,71.936676 86.875626,80.943214 
	C86.700760,80.923409 86.525887,80.903603 86.090637,80.840271 
z"/>
<path fill="#69DAC9" opacity="1.000000" stroke="none" 
	d="
M87.136429,80.621307 
	C86.923004,71.936676 86.970383,62.930134 87.036392,53.453972 
	C87.169098,62.089363 87.283165,71.194382 87.136429,80.621307 
z"/>
</svg>